%TF.GenerationSoftware,KiCad,Pcbnew,9.0.6*%
%TF.CreationDate,2025-11-06T17:37:23+11:00*%
%TF.ProjectId,catch-the-led,63617463-682d-4746-9865-2d6c65642e6b,rev?*%
%TF.SameCoordinates,Original*%
%TF.FileFunction,Copper,L1,Top*%
%TF.FilePolarity,Positive*%
%FSLAX46Y46*%
G04 Gerber Fmt 4.6, Leading zero omitted, Abs format (unit mm)*
G04 Created by KiCad (PCBNEW 9.0.6) date 2025-11-06 17:37:23*
%MOMM*%
%LPD*%
G01*
G04 APERTURE LIST*
G04 Aperture macros list*
%AMRoundRect*
0 Rectangle with rounded corners*
0 $1 Rounding radius*
0 $2 $3 $4 $5 $6 $7 $8 $9 X,Y pos of 4 corners*
0 Add a 4 corners polygon primitive as box body*
4,1,4,$2,$3,$4,$5,$6,$7,$8,$9,$2,$3,0*
0 Add four circle primitives for the rounded corners*
1,1,$1+$1,$2,$3*
1,1,$1+$1,$4,$5*
1,1,$1+$1,$6,$7*
1,1,$1+$1,$8,$9*
0 Add four rect primitives between the rounded corners*
20,1,$1+$1,$2,$3,$4,$5,0*
20,1,$1+$1,$4,$5,$6,$7,0*
20,1,$1+$1,$6,$7,$8,$9,0*
20,1,$1+$1,$8,$9,$2,$3,0*%
G04 Aperture macros list end*
%TA.AperFunction,SMDPad,CuDef*%
%ADD10RoundRect,0.250001X0.462499X1.074999X-0.462499X1.074999X-0.462499X-1.074999X0.462499X-1.074999X0*%
%TD*%
%TA.AperFunction,SMDPad,CuDef*%
%ADD11RoundRect,0.250001X1.074999X-0.462499X1.074999X0.462499X-1.074999X0.462499X-1.074999X-0.462499X0*%
%TD*%
%TA.AperFunction,SMDPad,CuDef*%
%ADD12RoundRect,0.250000X0.750000X-0.275000X0.750000X0.275000X-0.750000X0.275000X-0.750000X-0.275000X0*%
%TD*%
%TA.AperFunction,ComponentPad*%
%ADD13RoundRect,0.250000X0.550000X-0.550000X0.550000X0.550000X-0.550000X0.550000X-0.550000X-0.550000X0*%
%TD*%
%TA.AperFunction,ComponentPad*%
%ADD14C,1.600000*%
%TD*%
%TA.AperFunction,SMDPad,CuDef*%
%ADD15RoundRect,0.250000X0.450000X-0.350000X0.450000X0.350000X-0.450000X0.350000X-0.450000X-0.350000X0*%
%TD*%
%TA.AperFunction,SMDPad,CuDef*%
%ADD16RoundRect,0.250000X-0.450000X0.350000X-0.450000X-0.350000X0.450000X-0.350000X0.450000X0.350000X0*%
%TD*%
%TA.AperFunction,SMDPad,CuDef*%
%ADD17RoundRect,0.250000X0.475000X-0.337500X0.475000X0.337500X-0.475000X0.337500X-0.475000X-0.337500X0*%
%TD*%
%TA.AperFunction,SMDPad,CuDef*%
%ADD18RoundRect,0.500000X-3.000000X-0.500000X3.000000X-0.500000X3.000000X0.500000X-3.000000X0.500000X0*%
%TD*%
%TA.AperFunction,SMDPad,CuDef*%
%ADD19RoundRect,0.375000X-2.625000X-0.375000X2.625000X-0.375000X2.625000X0.375000X-2.625000X0.375000X0*%
%TD*%
%TA.AperFunction,ViaPad*%
%ADD20C,0.600000*%
%TD*%
%TA.AperFunction,Conductor*%
%ADD21C,0.200000*%
%TD*%
G04 APERTURE END LIST*
D10*
%TO.P,D1,1,K*%
%TO.N,Net-(D1-K)*%
X162348500Y-106078500D03*
%TO.P,D1,2,A*%
%TO.N,Net-(D1-A)*%
X159373500Y-106078500D03*
%TD*%
%TO.P,D3,1,K*%
%TO.N,Net-(D1-K)*%
X144220500Y-106078500D03*
%TO.P,D3,2,A*%
%TO.N,Net-(D3-A)*%
X141245500Y-106078500D03*
%TD*%
D11*
%TO.P,D5,1,K*%
%TO.N,Net-(D1-K)*%
X130090500Y-100998500D03*
%TO.P,D5,2,A*%
%TO.N,Net-(D5-A)*%
X130090500Y-98023500D03*
%TD*%
D12*
%TO.P,SW1,1,1*%
%TO.N,Net-(U1-R)*%
X169206500Y-101892500D03*
%TO.P,SW1,2,2*%
%TO.N,Net-(U2-CKEN)*%
X169206500Y-97442500D03*
%TD*%
D10*
%TO.P,D9,1,K*%
%TO.N,Net-(D1-K)*%
X162348500Y-92870500D03*
%TO.P,D9,2,A*%
%TO.N,Net-(D9-A)*%
X159373500Y-92870500D03*
%TD*%
D13*
%TO.P,U2,1,Q5*%
%TO.N,Net-(D6-A)*%
X133392500Y-103279500D03*
D14*
%TO.P,U2,2,Q1*%
%TO.N,Net-(D2-A)*%
X135932500Y-103279500D03*
%TO.P,U2,3,Q0*%
%TO.N,Net-(D1-A)*%
X138472500Y-103279500D03*
%TO.P,U2,4,Q2*%
%TO.N,Net-(D3-A)*%
X141012500Y-103279500D03*
%TO.P,U2,5,Q6*%
%TO.N,Net-(D7-A)*%
X143552500Y-103279500D03*
%TO.P,U2,6,Q7*%
%TO.N,Net-(D8-A)*%
X146092500Y-103279500D03*
%TO.P,U2,7,Q3*%
%TO.N,Net-(D4-A)*%
X148632500Y-103279500D03*
%TO.P,U2,8,VSS*%
%TO.N,Net-(U1-GND)*%
X151172500Y-103279500D03*
%TO.P,U2,9,Q8*%
%TO.N,Net-(D9-A)*%
X151172500Y-95659500D03*
%TO.P,U2,10,Q4*%
%TO.N,Net-(D5-A)*%
X148632500Y-95659500D03*
%TO.P,U2,11,Q9*%
%TO.N,Net-(U2-Q9)*%
X146092500Y-95659500D03*
%TO.P,U2,12,Cout*%
%TO.N,unconnected-(U2-Cout-Pad12)*%
X143552500Y-95659500D03*
%TO.P,U2,13,CKEN*%
%TO.N,Net-(U2-CKEN)*%
X141012500Y-95659500D03*
%TO.P,U2,14,CLK*%
%TO.N,Net-(U1-Q)*%
X138472500Y-95659500D03*
%TO.P,U2,15,Reset*%
%TO.N,Net-(U2-Q9)*%
X135932500Y-95659500D03*
%TO.P,U2,16,VDD*%
%TO.N,Net-(U1-R)*%
X133392500Y-95659500D03*
%TD*%
D15*
%TO.P,R2,1*%
%TO.N,Net-(U1-DIS)*%
X164380500Y-98712500D03*
%TO.P,R2,2*%
%TO.N,Net-(U1-THR)*%
X164380500Y-96712500D03*
%TD*%
D10*
%TO.P,D4,1,K*%
%TO.N,Net-(D1-K)*%
X135134000Y-106078500D03*
%TO.P,D4,2,A*%
%TO.N,Net-(D4-A)*%
X132159000Y-106078500D03*
%TD*%
D16*
%TO.P,R3,1*%
%TO.N,Net-(U2-CKEN)*%
X166412500Y-96755500D03*
%TO.P,R3,2*%
%TO.N,Net-(U1-GND)*%
X166412500Y-98755500D03*
%TD*%
D10*
%TO.P,D6,1,K*%
%TO.N,Net-(D1-K)*%
X135170500Y-92870500D03*
%TO.P,D6,2,A*%
%TO.N,Net-(D6-A)*%
X132195500Y-92870500D03*
%TD*%
D15*
%TO.P,R1,1*%
%TO.N,Net-(U1-R)*%
X164380500Y-102522500D03*
%TO.P,R1,2*%
%TO.N,Net-(U1-DIS)*%
X164380500Y-100522500D03*
%TD*%
D10*
%TO.P,D8,1,K*%
%TO.N,Net-(D1-K)*%
X153289167Y-92870500D03*
%TO.P,D8,2,A*%
%TO.N,Net-(D8-A)*%
X150314167Y-92870500D03*
%TD*%
D13*
%TO.P,U1,1,GND*%
%TO.N,Net-(U1-GND)*%
X154220500Y-103279500D03*
D14*
%TO.P,U1,2,TR*%
%TO.N,Net-(U1-THR)*%
X156760500Y-103279500D03*
%TO.P,U1,3,Q*%
%TO.N,Net-(U1-Q)*%
X159300500Y-103279500D03*
%TO.P,U1,4,R*%
%TO.N,Net-(U1-R)*%
X161840500Y-103279500D03*
%TO.P,U1,5,CV*%
%TO.N,unconnected-(U1-CV-Pad5)*%
X161840500Y-95659500D03*
%TO.P,U1,6,THR*%
%TO.N,Net-(U1-THR)*%
X159300500Y-95659500D03*
%TO.P,U1,7,DIS*%
%TO.N,Net-(U1-DIS)*%
X156760500Y-95659500D03*
%TO.P,U1,8,VCC*%
%TO.N,Net-(U1-R)*%
X154220500Y-95659500D03*
%TD*%
D10*
%TO.P,D2,1,K*%
%TO.N,Net-(D1-K)*%
X153307000Y-106078500D03*
%TO.P,D2,2,A*%
%TO.N,Net-(D2-A)*%
X150332000Y-106078500D03*
%TD*%
D17*
%TO.P,C1,1*%
%TO.N,Net-(U1-THR)*%
X166412500Y-102565500D03*
%TO.P,C1,2*%
%TO.N,Net-(U1-GND)*%
X166412500Y-100490500D03*
%TD*%
D15*
%TO.P,R4,1*%
%TO.N,Net-(D1-K)*%
X172000500Y-100744500D03*
%TO.P,R4,2*%
%TO.N,Net-(U1-GND)*%
X172000500Y-98744500D03*
%TD*%
D10*
%TO.P,D7,1,K*%
%TO.N,Net-(D1-K)*%
X144229833Y-92870500D03*
%TO.P,D7,2,A*%
%TO.N,Net-(D7-A)*%
X141254833Y-92870500D03*
%TD*%
D18*
%TO.P,U3,1,VCC*%
%TO.N,Net-(U1-R)*%
X119454000Y-103426500D03*
D19*
%TO.P,U3,2,D+*%
%TO.N,unconnected-(U3-D+-Pad2)*%
X119454000Y-100676500D03*
%TO.P,U3,3,D-*%
%TO.N,unconnected-(U3-D--Pad3)*%
X119454000Y-98676500D03*
D18*
%TO.P,U3,4,GND*%
%TO.N,Net-(U1-GND)*%
X119454000Y-95926500D03*
%TD*%
D20*
%TO.N,Net-(U1-GND)*%
X161160500Y-101220500D03*
X125660500Y-95970500D03*
X158660500Y-101220500D03*
X132910500Y-98970500D03*
%TO.N,Net-(U1-THR)*%
X165580500Y-102633403D03*
%TO.N,Net-(D1-A)*%
X156160500Y-105720500D03*
%TO.N,Net-(D2-A)*%
X146160500Y-106720500D03*
%TO.N,Net-(D3-A)*%
X141160500Y-105052500D03*
%TO.N,Net-(D4-A)*%
X133410500Y-105970500D03*
%TO.N,Net-(D5-A)*%
X134160500Y-97970500D03*
X137160500Y-97970500D03*
%TO.N,Net-(D6-A)*%
X132160500Y-94970500D03*
%TO.N,Net-(D7-A)*%
X141910500Y-101470500D03*
X139910500Y-93720500D03*
%TO.N,Net-(D8-A)*%
X147337735Y-100293265D03*
X149160500Y-93896500D03*
X149160500Y-98220500D03*
X149910500Y-96220500D03*
%TO.N,Net-(D9-A)*%
X155410500Y-93896500D03*
%TO.N,Net-(U1-DIS)*%
X161660500Y-98470500D03*
%TO.N,Net-(U2-CKEN)*%
X156660500Y-97220500D03*
%TO.N,Net-(U1-Q)*%
X140660500Y-97220500D03*
%TD*%
D21*
%TO.N,Net-(U1-GND)*%
X119454000Y-95926500D02*
X125616500Y-95926500D01*
X133311500Y-99371500D02*
X147264500Y-99371500D01*
X171989500Y-98755500D02*
X172000500Y-98744500D01*
X151172500Y-103279500D02*
X154220500Y-103279500D01*
X156279500Y-101220500D02*
X158660500Y-101220500D01*
X166412500Y-100490500D02*
X166412500Y-98755500D01*
X166412500Y-98755500D02*
X171989500Y-98755500D01*
X154220500Y-103279500D02*
X156279500Y-101220500D01*
X125616500Y-95926500D02*
X125660500Y-95970500D01*
X161363500Y-101423500D02*
X165479500Y-101423500D01*
X165479500Y-101423500D02*
X166412500Y-100490500D01*
X132910500Y-98970500D02*
X133311500Y-99371500D01*
X147264500Y-99371500D02*
X151172500Y-103279500D01*
X161160500Y-101220500D02*
X161363500Y-101423500D01*
%TO.N,Net-(U1-THR)*%
X165648403Y-102565500D02*
X165580500Y-102633403D01*
X159300500Y-95659500D02*
X160401500Y-96760500D01*
X166412500Y-102565500D02*
X165648403Y-102565500D01*
X164332500Y-96760500D02*
X164380500Y-96712500D01*
X160401500Y-96760500D02*
X164332500Y-96760500D01*
%TO.N,Net-(D1-K)*%
X162348500Y-106078500D02*
X160722500Y-104452500D01*
X136760000Y-104452500D02*
X135134000Y-106078500D01*
X154915167Y-94496500D02*
X153289167Y-92870500D01*
X151663167Y-94496500D02*
X145855833Y-94496500D01*
X133436000Y-104380500D02*
X132607340Y-104380500D01*
X136796500Y-94496500D02*
X135170500Y-92870500D01*
X142603833Y-94496500D02*
X136796500Y-94496500D01*
X173001500Y-98159340D02*
X167712660Y-92870500D01*
X144229833Y-92870500D02*
X142603833Y-94496500D01*
X167266500Y-106078500D02*
X162348500Y-106078500D01*
X172000500Y-101344500D02*
X167266500Y-106078500D01*
X135134000Y-106078500D02*
X133436000Y-104380500D01*
X132607340Y-104380500D02*
X130090500Y-101863660D01*
X160722500Y-94496500D02*
X154915167Y-94496500D01*
X153307000Y-106078500D02*
X151681000Y-104452500D01*
X173001500Y-99743500D02*
X173001500Y-98159340D01*
X145846500Y-104452500D02*
X144220500Y-106078500D01*
X172000500Y-100744500D02*
X172000500Y-101344500D01*
X172000500Y-100744500D02*
X173001500Y-99743500D01*
X145855833Y-94496500D02*
X144229833Y-92870500D01*
X144220500Y-106078500D02*
X142594500Y-104452500D01*
X167712660Y-92870500D02*
X162348500Y-92870500D01*
X160722500Y-104452500D02*
X154933000Y-104452500D01*
X142594500Y-104452500D02*
X136760000Y-104452500D01*
X154933000Y-104452500D02*
X153307000Y-106078500D01*
X153289167Y-92870500D02*
X151663167Y-94496500D01*
X151681000Y-104452500D02*
X145846500Y-104452500D01*
X130090500Y-101863660D02*
X130090500Y-100998500D01*
X162348500Y-92870500D02*
X160722500Y-94496500D01*
%TO.N,Net-(D1-A)*%
X159373500Y-106078500D02*
X156518500Y-106078500D01*
X156518500Y-106078500D02*
X156160500Y-105720500D01*
%TO.N,Net-(D2-A)*%
X150332000Y-106078500D02*
X146802500Y-106078500D01*
X146802500Y-106078500D02*
X146160500Y-106720500D01*
%TO.N,Net-(D3-A)*%
X141245500Y-106078500D02*
X141245500Y-105137500D01*
X141245500Y-105137500D02*
X141160500Y-105052500D01*
%TO.N,Net-(D4-A)*%
X133302500Y-106078500D02*
X133410500Y-105970500D01*
X132159000Y-106078500D02*
X133302500Y-106078500D01*
%TO.N,Net-(D5-A)*%
X130090500Y-98023500D02*
X134107500Y-98023500D01*
X137160500Y-97970500D02*
X146321500Y-97970500D01*
X146321500Y-97970500D02*
X148632500Y-95659500D01*
X134107500Y-98023500D02*
X134160500Y-97970500D01*
%TO.N,Net-(D6-A)*%
X132195500Y-92870500D02*
X132195500Y-94935500D01*
X132195500Y-94935500D02*
X132160500Y-94970500D01*
%TO.N,Net-(D7-A)*%
X141910500Y-101470500D02*
X142160500Y-101720500D01*
X141254833Y-92870500D02*
X140760500Y-92870500D01*
X140760500Y-92870500D02*
X139910500Y-93720500D01*
X142160500Y-101720500D02*
X142160500Y-101887500D01*
X142160500Y-101887500D02*
X143552500Y-103279500D01*
%TO.N,Net-(D8-A)*%
X149910500Y-96220500D02*
X149910500Y-97470500D01*
X150186500Y-92870500D02*
X149160500Y-93896500D01*
X147337735Y-100293265D02*
X146092500Y-101538500D01*
X149910500Y-97470500D02*
X149160500Y-98220500D01*
X146092500Y-101538500D02*
X146092500Y-103279500D01*
X150314167Y-92870500D02*
X150186500Y-92870500D01*
%TO.N,Net-(D9-A)*%
X159373500Y-92870500D02*
X158347500Y-93896500D01*
X158347500Y-93896500D02*
X155410500Y-93896500D01*
%TO.N,Net-(U1-R)*%
X165312000Y-103454000D02*
X167645000Y-103454000D01*
X119454000Y-103426500D02*
X122363840Y-103426500D01*
X161840500Y-103279500D02*
X163623500Y-103279500D01*
X150909500Y-98970500D02*
X154220500Y-95659500D01*
X164380500Y-102522500D02*
X165312000Y-103454000D01*
X136703500Y-98970500D02*
X150909500Y-98970500D01*
X163623500Y-103279500D02*
X164380500Y-102522500D01*
X122363840Y-103426500D02*
X130130840Y-95659500D01*
X154220500Y-95659500D02*
X161840500Y-103279500D01*
X167645000Y-103454000D02*
X169206500Y-101892500D01*
X133392500Y-95659500D02*
X136703500Y-98970500D01*
X130130840Y-95659500D02*
X133392500Y-95659500D01*
%TO.N,Net-(U1-DIS)*%
X164380500Y-98712500D02*
X161902500Y-98712500D01*
X164380500Y-100522500D02*
X164380500Y-98712500D01*
X161902500Y-98712500D02*
X161660500Y-98470500D01*
%TO.N,Net-(U2-CKEN)*%
X166412500Y-96755500D02*
X165447500Y-97720500D01*
X165447500Y-97720500D02*
X157160500Y-97720500D01*
X167099500Y-97442500D02*
X166412500Y-96755500D01*
X157160500Y-97720500D02*
X156660500Y-97220500D01*
X169206500Y-97442500D02*
X167099500Y-97442500D01*
%TO.N,Net-(U1-Q)*%
X140410500Y-96970500D02*
X139783500Y-96970500D01*
X139783500Y-96970500D02*
X138472500Y-95659500D01*
X140660500Y-97220500D02*
X140410500Y-96970500D01*
%TD*%
M02*
