%TF.GenerationSoftware,KiCad,Pcbnew,9.0.6*%
%TF.CreationDate,2025-11-06T17:37:23+11:00*%
%TF.ProjectId,catch-the-led,63617463-682d-4746-9865-2d6c65642e6b,rev?*%
%TF.SameCoordinates,Original*%
%TF.FileFunction,Copper,L2,Bot*%
%TF.FilePolarity,Positive*%
%FSLAX46Y46*%
G04 Gerber Fmt 4.6, Leading zero omitted, Abs format (unit mm)*
G04 Created by KiCad (PCBNEW 9.0.6) date 2025-11-06 17:37:23*
%MOMM*%
%LPD*%
G01*
G04 APERTURE LIST*
G04 Aperture macros list*
%AMRoundRect*
0 Rectangle with rounded corners*
0 $1 Rounding radius*
0 $2 $3 $4 $5 $6 $7 $8 $9 X,Y pos of 4 corners*
0 Add a 4 corners polygon primitive as box body*
4,1,4,$2,$3,$4,$5,$6,$7,$8,$9,$2,$3,0*
0 Add four circle primitives for the rounded corners*
1,1,$1+$1,$2,$3*
1,1,$1+$1,$4,$5*
1,1,$1+$1,$6,$7*
1,1,$1+$1,$8,$9*
0 Add four rect primitives between the rounded corners*
20,1,$1+$1,$2,$3,$4,$5,0*
20,1,$1+$1,$4,$5,$6,$7,0*
20,1,$1+$1,$6,$7,$8,$9,0*
20,1,$1+$1,$8,$9,$2,$3,0*%
G04 Aperture macros list end*
%TA.AperFunction,ComponentPad*%
%ADD10RoundRect,0.250000X0.550000X-0.550000X0.550000X0.550000X-0.550000X0.550000X-0.550000X-0.550000X0*%
%TD*%
%TA.AperFunction,ComponentPad*%
%ADD11C,1.600000*%
%TD*%
%TA.AperFunction,ViaPad*%
%ADD12C,0.600000*%
%TD*%
%TA.AperFunction,Conductor*%
%ADD13C,0.200000*%
%TD*%
G04 APERTURE END LIST*
D10*
%TO.P,U2,1,Q5*%
%TO.N,Net-(D6-A)*%
X133392500Y-103279500D03*
D11*
%TO.P,U2,2,Q1*%
%TO.N,Net-(D2-A)*%
X135932500Y-103279500D03*
%TO.P,U2,3,Q0*%
%TO.N,Net-(D1-A)*%
X138472500Y-103279500D03*
%TO.P,U2,4,Q2*%
%TO.N,Net-(D3-A)*%
X141012500Y-103279500D03*
%TO.P,U2,5,Q6*%
%TO.N,Net-(D7-A)*%
X143552500Y-103279500D03*
%TO.P,U2,6,Q7*%
%TO.N,Net-(D8-A)*%
X146092500Y-103279500D03*
%TO.P,U2,7,Q3*%
%TO.N,Net-(D4-A)*%
X148632500Y-103279500D03*
%TO.P,U2,8,VSS*%
%TO.N,Net-(U1-GND)*%
X151172500Y-103279500D03*
%TO.P,U2,9,Q8*%
%TO.N,Net-(D9-A)*%
X151172500Y-95659500D03*
%TO.P,U2,10,Q4*%
%TO.N,Net-(D5-A)*%
X148632500Y-95659500D03*
%TO.P,U2,11,Q9*%
%TO.N,Net-(U2-Q9)*%
X146092500Y-95659500D03*
%TO.P,U2,12,Cout*%
%TO.N,unconnected-(U2-Cout-Pad12)*%
X143552500Y-95659500D03*
%TO.P,U2,13,CKEN*%
%TO.N,Net-(U2-CKEN)*%
X141012500Y-95659500D03*
%TO.P,U2,14,CLK*%
%TO.N,Net-(U1-Q)*%
X138472500Y-95659500D03*
%TO.P,U2,15,Reset*%
%TO.N,Net-(U2-Q9)*%
X135932500Y-95659500D03*
%TO.P,U2,16,VDD*%
%TO.N,Net-(U1-R)*%
X133392500Y-95659500D03*
%TD*%
D10*
%TO.P,U1,1,GND*%
%TO.N,Net-(U1-GND)*%
X154220500Y-103279500D03*
D11*
%TO.P,U1,2,TR*%
%TO.N,Net-(U1-THR)*%
X156760500Y-103279500D03*
%TO.P,U1,3,Q*%
%TO.N,Net-(U1-Q)*%
X159300500Y-103279500D03*
%TO.P,U1,4,R*%
%TO.N,Net-(U1-R)*%
X161840500Y-103279500D03*
%TO.P,U1,5,CV*%
%TO.N,unconnected-(U1-CV-Pad5)*%
X161840500Y-95659500D03*
%TO.P,U1,6,THR*%
%TO.N,Net-(U1-THR)*%
X159300500Y-95659500D03*
%TO.P,U1,7,DIS*%
%TO.N,Net-(U1-DIS)*%
X156760500Y-95659500D03*
%TO.P,U1,8,VCC*%
%TO.N,Net-(U1-R)*%
X154220500Y-95659500D03*
%TD*%
D12*
%TO.N,Net-(U1-GND)*%
X161160500Y-101220500D03*
X125660500Y-95970500D03*
X158660500Y-101220500D03*
X132910500Y-98970500D03*
%TO.N,Net-(U1-THR)*%
X165580500Y-102633403D03*
%TO.N,Net-(D1-A)*%
X156160500Y-105720500D03*
%TO.N,Net-(D2-A)*%
X146160500Y-106720500D03*
%TO.N,Net-(D3-A)*%
X141160500Y-105052500D03*
%TO.N,Net-(D4-A)*%
X133410500Y-105970500D03*
%TO.N,Net-(D5-A)*%
X134160500Y-97970500D03*
X137160500Y-97970500D03*
%TO.N,Net-(D6-A)*%
X132160500Y-94970500D03*
%TO.N,Net-(D7-A)*%
X141910500Y-101470500D03*
X139910500Y-93720500D03*
%TO.N,Net-(D8-A)*%
X147337735Y-100293265D03*
X149160500Y-93896500D03*
X149160500Y-98220500D03*
X149910500Y-96220500D03*
%TO.N,Net-(D9-A)*%
X155410500Y-93896500D03*
%TO.N,Net-(U1-DIS)*%
X161660500Y-98470500D03*
%TO.N,Net-(U2-CKEN)*%
X156660500Y-97220500D03*
%TO.N,Net-(U1-Q)*%
X140660500Y-97220500D03*
%TD*%
D13*
%TO.N,Net-(U1-GND)*%
X158660500Y-101220500D02*
X161160500Y-101220500D01*
X125660500Y-95970500D02*
X129910500Y-95970500D01*
X129910500Y-95970500D02*
X132910500Y-98970500D01*
%TO.N,Net-(U1-THR)*%
X157861500Y-102178500D02*
X156760500Y-103279500D01*
X165580500Y-102633403D02*
X165125597Y-102178500D01*
X156760500Y-103279500D02*
X156760500Y-98199500D01*
X165125597Y-102178500D02*
X157861500Y-102178500D01*
X156760500Y-98199500D02*
X159300500Y-95659500D01*
%TO.N,Net-(D1-A)*%
X140913500Y-105720500D02*
X138472500Y-103279500D01*
X156160500Y-105720500D02*
X140913500Y-105720500D01*
%TO.N,Net-(D2-A)*%
X139373500Y-106720500D02*
X135932500Y-103279500D01*
X146160500Y-106720500D02*
X139373500Y-106720500D01*
%TO.N,Net-(D3-A)*%
X141160500Y-105052500D02*
X141160500Y-103427500D01*
X141160500Y-103427500D02*
X141012500Y-103279500D01*
%TO.N,Net-(D4-A)*%
X147531500Y-102178500D02*
X148632500Y-103279500D01*
X134831500Y-102823450D02*
X135476450Y-102178500D01*
X133410500Y-105970500D02*
X134831500Y-104549500D01*
X135476450Y-102178500D02*
X147531500Y-102178500D01*
X134831500Y-104549500D02*
X134831500Y-102823450D01*
%TO.N,Net-(D5-A)*%
X134160500Y-97970500D02*
X137160500Y-97970500D01*
%TO.N,Net-(D6-A)*%
X133511500Y-98321500D02*
X133511500Y-103160500D01*
X133511500Y-103160500D02*
X133392500Y-103279500D01*
X132160500Y-96970500D02*
X133511500Y-98321500D01*
X132160500Y-94970500D02*
X132160500Y-96970500D01*
%TO.N,Net-(D7-A)*%
X139910500Y-93720500D02*
X139910500Y-99470500D01*
X139910500Y-99470500D02*
X141910500Y-101470500D01*
%TO.N,Net-(D8-A)*%
X149160500Y-93896500D02*
X149910500Y-94646500D01*
X149160500Y-98470500D02*
X149160500Y-98220500D01*
X147337735Y-100293265D02*
X149160500Y-98470500D01*
X149910500Y-94646500D02*
X149910500Y-96220500D01*
%TO.N,Net-(D9-A)*%
X155410500Y-93896500D02*
X152935500Y-93896500D01*
X152935500Y-93896500D02*
X151172500Y-95659500D01*
%TO.N,Net-(U1-DIS)*%
X157861500Y-94558500D02*
X156760500Y-95659500D01*
X161660500Y-98470500D02*
X160401500Y-97211500D01*
X160401500Y-95203450D02*
X159756550Y-94558500D01*
X160401500Y-97211500D02*
X160401500Y-95203450D01*
X159756550Y-94558500D02*
X157861500Y-94558500D01*
%TO.N,Net-(U2-CKEN)*%
X156660500Y-97220500D02*
X142573500Y-97220500D01*
X142573500Y-97220500D02*
X141012500Y-95659500D01*
%TO.N,Net-(U1-Q)*%
X153119500Y-104064660D02*
X153119500Y-103669450D01*
X144334265Y-100894265D02*
X140660500Y-97220500D01*
X158199500Y-104380500D02*
X153435340Y-104380500D01*
X153435340Y-104380500D02*
X153119500Y-104064660D01*
X159300500Y-103279500D02*
X158199500Y-104380500D01*
X150344315Y-100894265D02*
X144334265Y-100894265D01*
X153119500Y-103669450D02*
X150344315Y-100894265D01*
%TO.N,Net-(U2-Q9)*%
X138472500Y-93119500D02*
X143552500Y-93119500D01*
X143552500Y-93119500D02*
X146092500Y-95659500D01*
X135932500Y-95659500D02*
X138472500Y-93119500D01*
%TD*%
M02*
