%TF.GenerationSoftware,KiCad,Pcbnew,9.0.6*%
%TF.CreationDate,2025-11-06T17:37:24+11:00*%
%TF.ProjectId,catch-the-led,63617463-682d-4746-9865-2d6c65642e6b,rev?*%
%TF.SameCoordinates,Original*%
%TF.FileFunction,Legend,Bot*%
%TF.FilePolarity,Positive*%
%FSLAX46Y46*%
G04 Gerber Fmt 4.6, Leading zero omitted, Abs format (unit mm)*
G04 Created by KiCad (PCBNEW 9.0.6) date 2025-11-06 17:37:24*
%MOMM*%
%LPD*%
G01*
G04 APERTURE LIST*
%ADD10C,0.100000*%
%ADD11C,0.000000*%
G04 APERTURE END LIST*
D10*
X177606615Y-93232975D02*
X177606615Y-92232975D01*
X177606615Y-92232975D02*
X177368520Y-92232975D01*
X177368520Y-92232975D02*
X177225663Y-92280594D01*
X177225663Y-92280594D02*
X177130425Y-92375832D01*
X177130425Y-92375832D02*
X177082806Y-92471070D01*
X177082806Y-92471070D02*
X177035187Y-92661546D01*
X177035187Y-92661546D02*
X177035187Y-92804403D01*
X177035187Y-92804403D02*
X177082806Y-92994879D01*
X177082806Y-92994879D02*
X177130425Y-93090117D01*
X177130425Y-93090117D02*
X177225663Y-93185356D01*
X177225663Y-93185356D02*
X177368520Y-93232975D01*
X177368520Y-93232975D02*
X177606615Y-93232975D01*
X176225663Y-93185356D02*
X176320901Y-93232975D01*
X176320901Y-93232975D02*
X176511377Y-93232975D01*
X176511377Y-93232975D02*
X176606615Y-93185356D01*
X176606615Y-93185356D02*
X176654234Y-93090117D01*
X176654234Y-93090117D02*
X176654234Y-92709165D01*
X176654234Y-92709165D02*
X176606615Y-92613927D01*
X176606615Y-92613927D02*
X176511377Y-92566308D01*
X176511377Y-92566308D02*
X176320901Y-92566308D01*
X176320901Y-92566308D02*
X176225663Y-92613927D01*
X176225663Y-92613927D02*
X176178044Y-92709165D01*
X176178044Y-92709165D02*
X176178044Y-92804403D01*
X176178044Y-92804403D02*
X176654234Y-92899641D01*
X175797091Y-93185356D02*
X175701853Y-93232975D01*
X175701853Y-93232975D02*
X175511377Y-93232975D01*
X175511377Y-93232975D02*
X175416139Y-93185356D01*
X175416139Y-93185356D02*
X175368520Y-93090117D01*
X175368520Y-93090117D02*
X175368520Y-93042498D01*
X175368520Y-93042498D02*
X175416139Y-92947260D01*
X175416139Y-92947260D02*
X175511377Y-92899641D01*
X175511377Y-92899641D02*
X175654234Y-92899641D01*
X175654234Y-92899641D02*
X175749472Y-92852022D01*
X175749472Y-92852022D02*
X175797091Y-92756784D01*
X175797091Y-92756784D02*
X175797091Y-92709165D01*
X175797091Y-92709165D02*
X175749472Y-92613927D01*
X175749472Y-92613927D02*
X175654234Y-92566308D01*
X175654234Y-92566308D02*
X175511377Y-92566308D01*
X175511377Y-92566308D02*
X175416139Y-92613927D01*
X174939948Y-93232975D02*
X174939948Y-92566308D01*
X174939948Y-92232975D02*
X174987567Y-92280594D01*
X174987567Y-92280594D02*
X174939948Y-92328213D01*
X174939948Y-92328213D02*
X174892329Y-92280594D01*
X174892329Y-92280594D02*
X174939948Y-92232975D01*
X174939948Y-92232975D02*
X174939948Y-92328213D01*
X174035187Y-92566308D02*
X174035187Y-93375832D01*
X174035187Y-93375832D02*
X174082806Y-93471070D01*
X174082806Y-93471070D02*
X174130425Y-93518689D01*
X174130425Y-93518689D02*
X174225663Y-93566308D01*
X174225663Y-93566308D02*
X174368520Y-93566308D01*
X174368520Y-93566308D02*
X174463758Y-93518689D01*
X174035187Y-93185356D02*
X174130425Y-93232975D01*
X174130425Y-93232975D02*
X174320901Y-93232975D01*
X174320901Y-93232975D02*
X174416139Y-93185356D01*
X174416139Y-93185356D02*
X174463758Y-93137736D01*
X174463758Y-93137736D02*
X174511377Y-93042498D01*
X174511377Y-93042498D02*
X174511377Y-92756784D01*
X174511377Y-92756784D02*
X174463758Y-92661546D01*
X174463758Y-92661546D02*
X174416139Y-92613927D01*
X174416139Y-92613927D02*
X174320901Y-92566308D01*
X174320901Y-92566308D02*
X174130425Y-92566308D01*
X174130425Y-92566308D02*
X174035187Y-92613927D01*
X173558996Y-92566308D02*
X173558996Y-93232975D01*
X173558996Y-92661546D02*
X173511377Y-92613927D01*
X173511377Y-92613927D02*
X173416139Y-92566308D01*
X173416139Y-92566308D02*
X173273282Y-92566308D01*
X173273282Y-92566308D02*
X173178044Y-92613927D01*
X173178044Y-92613927D02*
X173130425Y-92709165D01*
X173130425Y-92709165D02*
X173130425Y-93232975D01*
X172273282Y-93185356D02*
X172368520Y-93232975D01*
X172368520Y-93232975D02*
X172558996Y-93232975D01*
X172558996Y-93232975D02*
X172654234Y-93185356D01*
X172654234Y-93185356D02*
X172701853Y-93090117D01*
X172701853Y-93090117D02*
X172701853Y-92709165D01*
X172701853Y-92709165D02*
X172654234Y-92613927D01*
X172654234Y-92613927D02*
X172558996Y-92566308D01*
X172558996Y-92566308D02*
X172368520Y-92566308D01*
X172368520Y-92566308D02*
X172273282Y-92613927D01*
X172273282Y-92613927D02*
X172225663Y-92709165D01*
X172225663Y-92709165D02*
X172225663Y-92804403D01*
X172225663Y-92804403D02*
X172701853Y-92899641D01*
X171368520Y-93232975D02*
X171368520Y-92232975D01*
X171368520Y-93185356D02*
X171463758Y-93232975D01*
X171463758Y-93232975D02*
X171654234Y-93232975D01*
X171654234Y-93232975D02*
X171749472Y-93185356D01*
X171749472Y-93185356D02*
X171797091Y-93137736D01*
X171797091Y-93137736D02*
X171844710Y-93042498D01*
X171844710Y-93042498D02*
X171844710Y-92756784D01*
X171844710Y-92756784D02*
X171797091Y-92661546D01*
X171797091Y-92661546D02*
X171749472Y-92613927D01*
X171749472Y-92613927D02*
X171654234Y-92566308D01*
X171654234Y-92566308D02*
X171463758Y-92566308D01*
X171463758Y-92566308D02*
X171368520Y-92613927D01*
X170130424Y-93232975D02*
X170130424Y-92232975D01*
X170130424Y-92613927D02*
X170035186Y-92566308D01*
X170035186Y-92566308D02*
X169844710Y-92566308D01*
X169844710Y-92566308D02*
X169749472Y-92613927D01*
X169749472Y-92613927D02*
X169701853Y-92661546D01*
X169701853Y-92661546D02*
X169654234Y-92756784D01*
X169654234Y-92756784D02*
X169654234Y-93042498D01*
X169654234Y-93042498D02*
X169701853Y-93137736D01*
X169701853Y-93137736D02*
X169749472Y-93185356D01*
X169749472Y-93185356D02*
X169844710Y-93232975D01*
X169844710Y-93232975D02*
X170035186Y-93232975D01*
X170035186Y-93232975D02*
X170130424Y-93185356D01*
X169320900Y-92566308D02*
X169082805Y-93232975D01*
X168844710Y-92566308D02*
X169082805Y-93232975D01*
X169082805Y-93232975D02*
X169178043Y-93471070D01*
X169178043Y-93471070D02*
X169225662Y-93518689D01*
X169225662Y-93518689D02*
X169320900Y-93566308D01*
X177606615Y-94842919D02*
X177606615Y-93842919D01*
X177606615Y-93842919D02*
X177225663Y-93842919D01*
X177225663Y-93842919D02*
X177130425Y-93890538D01*
X177130425Y-93890538D02*
X177082806Y-93938157D01*
X177082806Y-93938157D02*
X177035187Y-94033395D01*
X177035187Y-94033395D02*
X177035187Y-94176252D01*
X177035187Y-94176252D02*
X177082806Y-94271490D01*
X177082806Y-94271490D02*
X177130425Y-94319109D01*
X177130425Y-94319109D02*
X177225663Y-94366728D01*
X177225663Y-94366728D02*
X177606615Y-94366728D01*
X176178044Y-94842919D02*
X176178044Y-94319109D01*
X176178044Y-94319109D02*
X176225663Y-94223871D01*
X176225663Y-94223871D02*
X176320901Y-94176252D01*
X176320901Y-94176252D02*
X176511377Y-94176252D01*
X176511377Y-94176252D02*
X176606615Y-94223871D01*
X176178044Y-94795300D02*
X176273282Y-94842919D01*
X176273282Y-94842919D02*
X176511377Y-94842919D01*
X176511377Y-94842919D02*
X176606615Y-94795300D01*
X176606615Y-94795300D02*
X176654234Y-94700061D01*
X176654234Y-94700061D02*
X176654234Y-94604823D01*
X176654234Y-94604823D02*
X176606615Y-94509585D01*
X176606615Y-94509585D02*
X176511377Y-94461966D01*
X176511377Y-94461966D02*
X176273282Y-94461966D01*
X176273282Y-94461966D02*
X176178044Y-94414347D01*
X175844710Y-94176252D02*
X175463758Y-94176252D01*
X175701853Y-93842919D02*
X175701853Y-94700061D01*
X175701853Y-94700061D02*
X175654234Y-94795300D01*
X175654234Y-94795300D02*
X175558996Y-94842919D01*
X175558996Y-94842919D02*
X175463758Y-94842919D01*
X175130424Y-94842919D02*
X175130424Y-94176252D01*
X175130424Y-94366728D02*
X175082805Y-94271490D01*
X175082805Y-94271490D02*
X175035186Y-94223871D01*
X175035186Y-94223871D02*
X174939948Y-94176252D01*
X174939948Y-94176252D02*
X174844710Y-94176252D01*
X174511376Y-94842919D02*
X174511376Y-94176252D01*
X174511376Y-93842919D02*
X174558995Y-93890538D01*
X174558995Y-93890538D02*
X174511376Y-93938157D01*
X174511376Y-93938157D02*
X174463757Y-93890538D01*
X174463757Y-93890538D02*
X174511376Y-93842919D01*
X174511376Y-93842919D02*
X174511376Y-93938157D01*
X173606615Y-94795300D02*
X173701853Y-94842919D01*
X173701853Y-94842919D02*
X173892329Y-94842919D01*
X173892329Y-94842919D02*
X173987567Y-94795300D01*
X173987567Y-94795300D02*
X174035186Y-94747680D01*
X174035186Y-94747680D02*
X174082805Y-94652442D01*
X174082805Y-94652442D02*
X174082805Y-94366728D01*
X174082805Y-94366728D02*
X174035186Y-94271490D01*
X174035186Y-94271490D02*
X173987567Y-94223871D01*
X173987567Y-94223871D02*
X173892329Y-94176252D01*
X173892329Y-94176252D02*
X173701853Y-94176252D01*
X173701853Y-94176252D02*
X173606615Y-94223871D01*
X173178043Y-94842919D02*
X173178043Y-93842919D01*
X173082805Y-94461966D02*
X172797091Y-94842919D01*
X172797091Y-94176252D02*
X173178043Y-94557204D01*
X171654233Y-94795300D02*
X171511376Y-94842919D01*
X171511376Y-94842919D02*
X171273281Y-94842919D01*
X171273281Y-94842919D02*
X171178043Y-94795300D01*
X171178043Y-94795300D02*
X171130424Y-94747680D01*
X171130424Y-94747680D02*
X171082805Y-94652442D01*
X171082805Y-94652442D02*
X171082805Y-94557204D01*
X171082805Y-94557204D02*
X171130424Y-94461966D01*
X171130424Y-94461966D02*
X171178043Y-94414347D01*
X171178043Y-94414347D02*
X171273281Y-94366728D01*
X171273281Y-94366728D02*
X171463757Y-94319109D01*
X171463757Y-94319109D02*
X171558995Y-94271490D01*
X171558995Y-94271490D02*
X171606614Y-94223871D01*
X171606614Y-94223871D02*
X171654233Y-94128633D01*
X171654233Y-94128633D02*
X171654233Y-94033395D01*
X171654233Y-94033395D02*
X171606614Y-93938157D01*
X171606614Y-93938157D02*
X171558995Y-93890538D01*
X171558995Y-93890538D02*
X171463757Y-93842919D01*
X171463757Y-93842919D02*
X171225662Y-93842919D01*
X171225662Y-93842919D02*
X171082805Y-93890538D01*
X170225662Y-94795300D02*
X170320900Y-94842919D01*
X170320900Y-94842919D02*
X170511376Y-94842919D01*
X170511376Y-94842919D02*
X170606614Y-94795300D01*
X170606614Y-94795300D02*
X170654233Y-94747680D01*
X170654233Y-94747680D02*
X170701852Y-94652442D01*
X170701852Y-94652442D02*
X170701852Y-94366728D01*
X170701852Y-94366728D02*
X170654233Y-94271490D01*
X170654233Y-94271490D02*
X170606614Y-94223871D01*
X170606614Y-94223871D02*
X170511376Y-94176252D01*
X170511376Y-94176252D02*
X170320900Y-94176252D01*
X170320900Y-94176252D02*
X170225662Y-94223871D01*
X169797090Y-94842919D02*
X169797090Y-93842919D01*
X169368519Y-94842919D02*
X169368519Y-94319109D01*
X169368519Y-94319109D02*
X169416138Y-94223871D01*
X169416138Y-94223871D02*
X169511376Y-94176252D01*
X169511376Y-94176252D02*
X169654233Y-94176252D01*
X169654233Y-94176252D02*
X169749471Y-94223871D01*
X169749471Y-94223871D02*
X169797090Y-94271490D01*
X168749471Y-94842919D02*
X168844709Y-94795300D01*
X168844709Y-94795300D02*
X168892328Y-94747680D01*
X168892328Y-94747680D02*
X168939947Y-94652442D01*
X168939947Y-94652442D02*
X168939947Y-94366728D01*
X168939947Y-94366728D02*
X168892328Y-94271490D01*
X168892328Y-94271490D02*
X168844709Y-94223871D01*
X168844709Y-94223871D02*
X168749471Y-94176252D01*
X168749471Y-94176252D02*
X168606614Y-94176252D01*
X168606614Y-94176252D02*
X168511376Y-94223871D01*
X168511376Y-94223871D02*
X168463757Y-94271490D01*
X168463757Y-94271490D02*
X168416138Y-94366728D01*
X168416138Y-94366728D02*
X168416138Y-94652442D01*
X168416138Y-94652442D02*
X168463757Y-94747680D01*
X168463757Y-94747680D02*
X168511376Y-94795300D01*
X168511376Y-94795300D02*
X168606614Y-94842919D01*
X168606614Y-94842919D02*
X168749471Y-94842919D01*
X167844709Y-94842919D02*
X167939947Y-94795300D01*
X167939947Y-94795300D02*
X167987566Y-94700061D01*
X167987566Y-94700061D02*
X167987566Y-93842919D01*
X167082804Y-94795300D02*
X167178042Y-94842919D01*
X167178042Y-94842919D02*
X167368518Y-94842919D01*
X167368518Y-94842919D02*
X167463756Y-94795300D01*
X167463756Y-94795300D02*
X167511375Y-94700061D01*
X167511375Y-94700061D02*
X167511375Y-94319109D01*
X167511375Y-94319109D02*
X167463756Y-94223871D01*
X167463756Y-94223871D02*
X167368518Y-94176252D01*
X167368518Y-94176252D02*
X167178042Y-94176252D01*
X167178042Y-94176252D02*
X167082804Y-94223871D01*
X167082804Y-94223871D02*
X167035185Y-94319109D01*
X167035185Y-94319109D02*
X167035185Y-94414347D01*
X167035185Y-94414347D02*
X167511375Y-94509585D01*
X166749470Y-94176252D02*
X166368518Y-94176252D01*
X166606613Y-94842919D02*
X166606613Y-93985776D01*
X166606613Y-93985776D02*
X166558994Y-93890538D01*
X166558994Y-93890538D02*
X166463756Y-93842919D01*
X166463756Y-93842919D02*
X166368518Y-93842919D01*
X166035184Y-94842919D02*
X166035184Y-94176252D01*
X166035184Y-93842919D02*
X166082803Y-93890538D01*
X166082803Y-93890538D02*
X166035184Y-93938157D01*
X166035184Y-93938157D02*
X165987565Y-93890538D01*
X165987565Y-93890538D02*
X166035184Y-93842919D01*
X166035184Y-93842919D02*
X166035184Y-93938157D01*
X165178042Y-94795300D02*
X165273280Y-94842919D01*
X165273280Y-94842919D02*
X165463756Y-94842919D01*
X165463756Y-94842919D02*
X165558994Y-94795300D01*
X165558994Y-94795300D02*
X165606613Y-94700061D01*
X165606613Y-94700061D02*
X165606613Y-94319109D01*
X165606613Y-94319109D02*
X165558994Y-94223871D01*
X165558994Y-94223871D02*
X165463756Y-94176252D01*
X165463756Y-94176252D02*
X165273280Y-94176252D01*
X165273280Y-94176252D02*
X165178042Y-94223871D01*
X165178042Y-94223871D02*
X165130423Y-94319109D01*
X165130423Y-94319109D02*
X165130423Y-94414347D01*
X165130423Y-94414347D02*
X165606613Y-94509585D01*
X164558994Y-94842919D02*
X164654232Y-94795300D01*
X164654232Y-94795300D02*
X164701851Y-94700061D01*
X164701851Y-94700061D02*
X164701851Y-93842919D01*
X163749470Y-94842919D02*
X163749470Y-93842919D01*
X163749470Y-94795300D02*
X163844708Y-94842919D01*
X163844708Y-94842919D02*
X164035184Y-94842919D01*
X164035184Y-94842919D02*
X164130422Y-94795300D01*
X164130422Y-94795300D02*
X164178041Y-94747680D01*
X164178041Y-94747680D02*
X164225660Y-94652442D01*
X164225660Y-94652442D02*
X164225660Y-94366728D01*
X164225660Y-94366728D02*
X164178041Y-94271490D01*
X164178041Y-94271490D02*
X164130422Y-94223871D01*
X164130422Y-94223871D02*
X164035184Y-94176252D01*
X164035184Y-94176252D02*
X163844708Y-94176252D01*
X163844708Y-94176252D02*
X163749470Y-94223871D01*
X176928044Y-105676252D02*
X176928044Y-106485776D01*
X176928044Y-106485776D02*
X176975663Y-106581014D01*
X176975663Y-106581014D02*
X177023282Y-106628633D01*
X177023282Y-106628633D02*
X177118520Y-106676252D01*
X177118520Y-106676252D02*
X177261377Y-106676252D01*
X177261377Y-106676252D02*
X177356615Y-106628633D01*
X176928044Y-106295300D02*
X177023282Y-106342919D01*
X177023282Y-106342919D02*
X177213758Y-106342919D01*
X177213758Y-106342919D02*
X177308996Y-106295300D01*
X177308996Y-106295300D02*
X177356615Y-106247680D01*
X177356615Y-106247680D02*
X177404234Y-106152442D01*
X177404234Y-106152442D02*
X177404234Y-105866728D01*
X177404234Y-105866728D02*
X177356615Y-105771490D01*
X177356615Y-105771490D02*
X177308996Y-105723871D01*
X177308996Y-105723871D02*
X177213758Y-105676252D01*
X177213758Y-105676252D02*
X177023282Y-105676252D01*
X177023282Y-105676252D02*
X176928044Y-105723871D01*
X176451853Y-106342919D02*
X176451853Y-105676252D01*
X176451853Y-105342919D02*
X176499472Y-105390538D01*
X176499472Y-105390538D02*
X176451853Y-105438157D01*
X176451853Y-105438157D02*
X176404234Y-105390538D01*
X176404234Y-105390538D02*
X176451853Y-105342919D01*
X176451853Y-105342919D02*
X176451853Y-105438157D01*
X176118520Y-105676252D02*
X175737568Y-105676252D01*
X175975663Y-105342919D02*
X175975663Y-106200061D01*
X175975663Y-106200061D02*
X175928044Y-106295300D01*
X175928044Y-106295300D02*
X175832806Y-106342919D01*
X175832806Y-106342919D02*
X175737568Y-106342919D01*
X175404234Y-106342919D02*
X175404234Y-105342919D01*
X174975663Y-106342919D02*
X174975663Y-105819109D01*
X174975663Y-105819109D02*
X175023282Y-105723871D01*
X175023282Y-105723871D02*
X175118520Y-105676252D01*
X175118520Y-105676252D02*
X175261377Y-105676252D01*
X175261377Y-105676252D02*
X175356615Y-105723871D01*
X175356615Y-105723871D02*
X175404234Y-105771490D01*
X174070901Y-105676252D02*
X174070901Y-106342919D01*
X174499472Y-105676252D02*
X174499472Y-106200061D01*
X174499472Y-106200061D02*
X174451853Y-106295300D01*
X174451853Y-106295300D02*
X174356615Y-106342919D01*
X174356615Y-106342919D02*
X174213758Y-106342919D01*
X174213758Y-106342919D02*
X174118520Y-106295300D01*
X174118520Y-106295300D02*
X174070901Y-106247680D01*
X173594710Y-106342919D02*
X173594710Y-105342919D01*
X173594710Y-105723871D02*
X173499472Y-105676252D01*
X173499472Y-105676252D02*
X173308996Y-105676252D01*
X173308996Y-105676252D02*
X173213758Y-105723871D01*
X173213758Y-105723871D02*
X173166139Y-105771490D01*
X173166139Y-105771490D02*
X173118520Y-105866728D01*
X173118520Y-105866728D02*
X173118520Y-106152442D01*
X173118520Y-106152442D02*
X173166139Y-106247680D01*
X173166139Y-106247680D02*
X173213758Y-106295300D01*
X173213758Y-106295300D02*
X173308996Y-106342919D01*
X173308996Y-106342919D02*
X173499472Y-106342919D01*
X173499472Y-106342919D02*
X173594710Y-106295300D01*
X172689948Y-106247680D02*
X172642329Y-106295300D01*
X172642329Y-106295300D02*
X172689948Y-106342919D01*
X172689948Y-106342919D02*
X172737567Y-106295300D01*
X172737567Y-106295300D02*
X172689948Y-106247680D01*
X172689948Y-106247680D02*
X172689948Y-106342919D01*
X171785187Y-106295300D02*
X171880425Y-106342919D01*
X171880425Y-106342919D02*
X172070901Y-106342919D01*
X172070901Y-106342919D02*
X172166139Y-106295300D01*
X172166139Y-106295300D02*
X172213758Y-106247680D01*
X172213758Y-106247680D02*
X172261377Y-106152442D01*
X172261377Y-106152442D02*
X172261377Y-105866728D01*
X172261377Y-105866728D02*
X172213758Y-105771490D01*
X172213758Y-105771490D02*
X172166139Y-105723871D01*
X172166139Y-105723871D02*
X172070901Y-105676252D01*
X172070901Y-105676252D02*
X171880425Y-105676252D01*
X171880425Y-105676252D02*
X171785187Y-105723871D01*
X171213758Y-106342919D02*
X171308996Y-106295300D01*
X171308996Y-106295300D02*
X171356615Y-106247680D01*
X171356615Y-106247680D02*
X171404234Y-106152442D01*
X171404234Y-106152442D02*
X171404234Y-105866728D01*
X171404234Y-105866728D02*
X171356615Y-105771490D01*
X171356615Y-105771490D02*
X171308996Y-105723871D01*
X171308996Y-105723871D02*
X171213758Y-105676252D01*
X171213758Y-105676252D02*
X171070901Y-105676252D01*
X171070901Y-105676252D02*
X170975663Y-105723871D01*
X170975663Y-105723871D02*
X170928044Y-105771490D01*
X170928044Y-105771490D02*
X170880425Y-105866728D01*
X170880425Y-105866728D02*
X170880425Y-106152442D01*
X170880425Y-106152442D02*
X170928044Y-106247680D01*
X170928044Y-106247680D02*
X170975663Y-106295300D01*
X170975663Y-106295300D02*
X171070901Y-106342919D01*
X171070901Y-106342919D02*
X171213758Y-106342919D01*
X170451853Y-106342919D02*
X170451853Y-105676252D01*
X170451853Y-105771490D02*
X170404234Y-105723871D01*
X170404234Y-105723871D02*
X170308996Y-105676252D01*
X170308996Y-105676252D02*
X170166139Y-105676252D01*
X170166139Y-105676252D02*
X170070901Y-105723871D01*
X170070901Y-105723871D02*
X170023282Y-105819109D01*
X170023282Y-105819109D02*
X170023282Y-106342919D01*
X170023282Y-105819109D02*
X169975663Y-105723871D01*
X169975663Y-105723871D02*
X169880425Y-105676252D01*
X169880425Y-105676252D02*
X169737568Y-105676252D01*
X169737568Y-105676252D02*
X169642329Y-105723871D01*
X169642329Y-105723871D02*
X169594710Y-105819109D01*
X169594710Y-105819109D02*
X169594710Y-106342919D01*
X168404235Y-105295300D02*
X169261377Y-106581014D01*
X168070901Y-106342919D02*
X168070901Y-105342919D01*
X168070901Y-105342919D02*
X167689949Y-105342919D01*
X167689949Y-105342919D02*
X167594711Y-105390538D01*
X167594711Y-105390538D02*
X167547092Y-105438157D01*
X167547092Y-105438157D02*
X167499473Y-105533395D01*
X167499473Y-105533395D02*
X167499473Y-105676252D01*
X167499473Y-105676252D02*
X167547092Y-105771490D01*
X167547092Y-105771490D02*
X167594711Y-105819109D01*
X167594711Y-105819109D02*
X167689949Y-105866728D01*
X167689949Y-105866728D02*
X168070901Y-105866728D01*
X166642330Y-106342919D02*
X166642330Y-105819109D01*
X166642330Y-105819109D02*
X166689949Y-105723871D01*
X166689949Y-105723871D02*
X166785187Y-105676252D01*
X166785187Y-105676252D02*
X166975663Y-105676252D01*
X166975663Y-105676252D02*
X167070901Y-105723871D01*
X166642330Y-106295300D02*
X166737568Y-106342919D01*
X166737568Y-106342919D02*
X166975663Y-106342919D01*
X166975663Y-106342919D02*
X167070901Y-106295300D01*
X167070901Y-106295300D02*
X167118520Y-106200061D01*
X167118520Y-106200061D02*
X167118520Y-106104823D01*
X167118520Y-106104823D02*
X167070901Y-106009585D01*
X167070901Y-106009585D02*
X166975663Y-105961966D01*
X166975663Y-105961966D02*
X166737568Y-105961966D01*
X166737568Y-105961966D02*
X166642330Y-105914347D01*
X166308996Y-105676252D02*
X165928044Y-105676252D01*
X166166139Y-105342919D02*
X166166139Y-106200061D01*
X166166139Y-106200061D02*
X166118520Y-106295300D01*
X166118520Y-106295300D02*
X166023282Y-106342919D01*
X166023282Y-106342919D02*
X165928044Y-106342919D01*
X165451853Y-106342919D02*
X165547091Y-106295300D01*
X165547091Y-106295300D02*
X165594710Y-106247680D01*
X165594710Y-106247680D02*
X165642329Y-106152442D01*
X165642329Y-106152442D02*
X165642329Y-105866728D01*
X165642329Y-105866728D02*
X165594710Y-105771490D01*
X165594710Y-105771490D02*
X165547091Y-105723871D01*
X165547091Y-105723871D02*
X165451853Y-105676252D01*
X165451853Y-105676252D02*
X165308996Y-105676252D01*
X165308996Y-105676252D02*
X165213758Y-105723871D01*
X165213758Y-105723871D02*
X165166139Y-105771490D01*
X165166139Y-105771490D02*
X165118520Y-105866728D01*
X165118520Y-105866728D02*
X165118520Y-106152442D01*
X165118520Y-106152442D02*
X165166139Y-106247680D01*
X165166139Y-106247680D02*
X165213758Y-106295300D01*
X165213758Y-106295300D02*
X165308996Y-106342919D01*
X165308996Y-106342919D02*
X165451853Y-106342919D01*
X164689948Y-106342919D02*
X164689948Y-105342919D01*
X164594710Y-105961966D02*
X164308996Y-106342919D01*
X164308996Y-105676252D02*
X164689948Y-106057204D01*
X163975662Y-105676252D02*
X163737567Y-106342919D01*
X163499472Y-105676252D02*
X163737567Y-106342919D01*
X163737567Y-106342919D02*
X163832805Y-106581014D01*
X163832805Y-106581014D02*
X163880424Y-106628633D01*
X163880424Y-106628633D02*
X163975662Y-106676252D01*
X162975662Y-106342919D02*
X163070900Y-106295300D01*
X163070900Y-106295300D02*
X163118519Y-106247680D01*
X163118519Y-106247680D02*
X163166138Y-106152442D01*
X163166138Y-106152442D02*
X163166138Y-105866728D01*
X163166138Y-105866728D02*
X163118519Y-105771490D01*
X163118519Y-105771490D02*
X163070900Y-105723871D01*
X163070900Y-105723871D02*
X162975662Y-105676252D01*
X162975662Y-105676252D02*
X162832805Y-105676252D01*
X162832805Y-105676252D02*
X162737567Y-105723871D01*
X162737567Y-105723871D02*
X162689948Y-105771490D01*
X162689948Y-105771490D02*
X162642329Y-105866728D01*
X162642329Y-105866728D02*
X162642329Y-106152442D01*
X162642329Y-106152442D02*
X162689948Y-106247680D01*
X162689948Y-106247680D02*
X162737567Y-106295300D01*
X162737567Y-106295300D02*
X162832805Y-106342919D01*
X162832805Y-106342919D02*
X162975662Y-106342919D01*
D11*
%TO.C,G\u002A\u002A\u002A*%
G36*
X169774542Y-100405998D02*
G01*
X169761503Y-100455124D01*
X169743163Y-100548823D01*
X169728641Y-100654205D01*
X169719096Y-100762236D01*
X169715690Y-100863881D01*
X169715811Y-100885026D01*
X169718448Y-100968596D01*
X169724104Y-101044343D01*
X169732215Y-101107601D01*
X169742219Y-101153702D01*
X169753554Y-101177982D01*
X169756745Y-101178698D01*
X169771513Y-101164980D01*
X169793885Y-101131028D01*
X169821791Y-101079820D01*
X169828585Y-101066542D01*
X169859419Y-101008579D01*
X169888270Y-100960221D01*
X169919332Y-100915850D01*
X169956802Y-100869851D01*
X170004873Y-100816604D01*
X170067742Y-100750495D01*
X170147702Y-100666457D01*
X170212029Y-100596006D01*
X170263807Y-100535022D01*
X170306377Y-100479112D01*
X170341763Y-100425873D01*
X170378106Y-100425873D01*
X170384731Y-100432498D01*
X170391356Y-100425873D01*
X170384731Y-100419248D01*
X170378106Y-100425873D01*
X170341763Y-100425873D01*
X170343084Y-100423886D01*
X170377270Y-100364953D01*
X170412278Y-100297920D01*
X170426279Y-100269502D01*
X170454383Y-100205781D01*
X170474804Y-100145227D01*
X170488638Y-100081925D01*
X170496981Y-100009959D01*
X170500931Y-99923416D01*
X170501586Y-99816379D01*
X170501450Y-99755877D01*
X170501783Y-99692153D01*
X170502593Y-99643015D01*
X170503812Y-99612434D01*
X170505367Y-99604381D01*
X170505916Y-99606478D01*
X170509313Y-99629452D01*
X170514181Y-99671220D01*
X170519917Y-99725693D01*
X170525919Y-99786783D01*
X170531584Y-99848403D01*
X170536307Y-99904463D01*
X170539488Y-99948877D01*
X170538474Y-99987754D01*
X170530645Y-100049271D01*
X170517484Y-100117239D01*
X170500999Y-100181556D01*
X170483196Y-100232121D01*
X170476305Y-100248933D01*
X170462922Y-100290688D01*
X170457606Y-100322340D01*
X170454854Y-100341996D01*
X170446719Y-100347834D01*
X170431287Y-100350635D01*
X170412725Y-100368641D01*
X170398660Y-100392641D01*
X170396367Y-100413193D01*
X170396561Y-100420277D01*
X170393979Y-100425873D01*
X170385144Y-100445018D01*
X170361437Y-100474882D01*
X170349202Y-100488253D01*
X170329072Y-100513887D01*
X170322363Y-100528559D01*
X170322123Y-100532400D01*
X170308467Y-100538497D01*
X170308292Y-100538499D01*
X170291712Y-100549670D01*
X170275185Y-100576091D01*
X170255999Y-100605803D01*
X170228852Y-100629576D01*
X170222544Y-100633588D01*
X170197993Y-100656965D01*
X170173614Y-100688507D01*
X170155682Y-100719331D01*
X170150469Y-100740557D01*
X170150016Y-100744286D01*
X170136296Y-100747182D01*
X170126923Y-100750036D01*
X170123599Y-100770369D01*
X170123946Y-100786273D01*
X170116005Y-100780005D01*
X170107240Y-100774245D01*
X170088450Y-100781879D01*
X170057698Y-100808639D01*
X170042549Y-100823843D01*
X170016514Y-100852591D01*
X170002515Y-100871878D01*
X170000399Y-100875806D01*
X169985148Y-100899941D01*
X169960003Y-100937299D01*
X169929163Y-100981599D01*
X169918185Y-100997521D01*
X169891843Y-101039664D01*
X169874963Y-101072822D01*
X169870796Y-101090911D01*
X169871256Y-101100104D01*
X169856154Y-101108241D01*
X169845687Y-101109964D01*
X169834862Y-101121491D01*
X169843086Y-101130205D01*
X169867986Y-101134741D01*
X169889778Y-101131214D01*
X169901111Y-101120544D01*
X169906237Y-101116453D01*
X169922382Y-101127619D01*
X169937485Y-101138146D01*
X169972069Y-101140662D01*
X170032152Y-101122366D01*
X170081116Y-101104940D01*
X170105822Y-101092286D01*
X170117844Y-101086344D01*
X170146568Y-101081741D01*
X170170224Y-101074471D01*
X170207780Y-101052826D01*
X170251000Y-101021886D01*
X170293250Y-100986807D01*
X170327901Y-100952744D01*
X170348321Y-100924855D01*
X170349886Y-100921642D01*
X170358797Y-100906223D01*
X170359106Y-100912131D01*
X170358314Y-100926254D01*
X170372156Y-100927275D01*
X170380908Y-100922885D01*
X170391356Y-100910574D01*
X170397279Y-100897999D01*
X170415054Y-100875554D01*
X170436616Y-100847565D01*
X170467248Y-100800844D01*
X170502188Y-100742764D01*
X170537611Y-100679692D01*
X170569694Y-100617996D01*
X170572413Y-100612272D01*
X170590027Y-100565344D01*
X170607223Y-100505042D01*
X170622770Y-100437818D01*
X170635439Y-100370120D01*
X170644001Y-100308400D01*
X170647227Y-100259107D01*
X170643887Y-100228692D01*
X170639022Y-100211547D01*
X170631038Y-100171604D01*
X170624050Y-100124438D01*
X170618599Y-100091257D01*
X170609812Y-100060230D01*
X170600983Y-100048251D01*
X170594638Y-100052372D01*
X170595344Y-100071439D01*
X170597987Y-100079555D01*
X170597044Y-100084834D01*
X170583512Y-100068906D01*
X170580683Y-100064715D01*
X170570637Y-100038547D01*
X170564824Y-100005793D01*
X170563675Y-99974555D01*
X170567625Y-99952935D01*
X170577106Y-99949033D01*
X170596603Y-99969564D01*
X170619907Y-100012365D01*
X170641427Y-100069069D01*
X170658678Y-100132973D01*
X170669176Y-100197372D01*
X170675633Y-100301143D01*
X170671134Y-100398262D01*
X170653587Y-100491232D01*
X170621459Y-100588028D01*
X170573218Y-100696621D01*
X170548591Y-100745953D01*
X170517757Y-100800745D01*
X170485143Y-100847670D01*
X170444696Y-100895167D01*
X170390365Y-100951681D01*
X170387386Y-100954681D01*
X170342108Y-100998989D01*
X170302850Y-101035164D01*
X170273728Y-101059550D01*
X170258857Y-101068491D01*
X170258413Y-101068501D01*
X170237326Y-101076597D01*
X170209139Y-101095254D01*
X170175217Y-101115873D01*
X170113899Y-101140488D01*
X170040271Y-101160851D01*
X169962329Y-101174841D01*
X169888071Y-101180339D01*
X169877085Y-101180442D01*
X169830067Y-101181881D01*
X169802738Y-101185881D01*
X169789336Y-101193955D01*
X169784098Y-101207615D01*
X169781366Y-101220115D01*
X169769417Y-101244773D01*
X169754599Y-101243887D01*
X169739098Y-101216999D01*
X169737372Y-101212542D01*
X169724613Y-101185526D01*
X169715146Y-101174490D01*
X169707824Y-101183384D01*
X169693545Y-101210947D01*
X169676179Y-101250677D01*
X169661197Y-101285224D01*
X169639185Y-101330273D01*
X169620742Y-101362034D01*
X169620130Y-101362920D01*
X169603324Y-101391035D01*
X169596364Y-101410021D01*
X169596355Y-101410358D01*
X169588400Y-101430124D01*
X169567891Y-101465801D01*
X169538206Y-101512389D01*
X169502723Y-101564883D01*
X169464821Y-101618282D01*
X169427878Y-101667583D01*
X169395272Y-101707783D01*
X169364934Y-101745214D01*
X169341271Y-101783206D01*
X169337466Y-101807157D01*
X169348908Y-101826755D01*
X169373637Y-101859302D01*
X169405754Y-101896608D01*
X169433671Y-101928927D01*
X169490301Y-102011835D01*
X169498984Y-102033714D01*
X169521400Y-102090201D01*
X169521694Y-102091404D01*
X169529378Y-102109789D01*
X169545374Y-102123177D01*
X169575599Y-102134842D01*
X169625966Y-102148055D01*
X169652003Y-102154579D01*
X169729533Y-102176009D01*
X169814214Y-102201711D01*
X169819255Y-102203354D01*
X169847003Y-102212397D01*
X169887660Y-102225647D01*
X169899486Y-102229501D01*
X169978787Y-102257195D01*
X170003792Y-102266713D01*
X170040941Y-102280854D01*
X170045557Y-102282611D01*
X170093234Y-102303564D01*
X170117520Y-102314272D01*
X170128169Y-102317735D01*
X170177394Y-102333743D01*
X170235018Y-102345268D01*
X170255917Y-102348025D01*
X170305896Y-102359104D01*
X170342374Y-102367190D01*
X170423912Y-102396658D01*
X170433239Y-102401596D01*
X170493347Y-102433419D01*
X170517397Y-102453103D01*
X170543497Y-102474465D01*
X170558693Y-102492852D01*
X170559881Y-102494289D01*
X170581598Y-102527851D01*
X170590104Y-102552387D01*
X170593036Y-102563542D01*
X170609557Y-102581164D01*
X170643820Y-102602659D01*
X170699416Y-102630594D01*
X170741641Y-102651413D01*
X170848248Y-102714210D01*
X170882135Y-102734171D01*
X171005803Y-102830649D01*
X171114094Y-102942766D01*
X171137657Y-102975145D01*
X171208461Y-103072439D01*
X171290355Y-103221586D01*
X171351972Y-103369854D01*
X171361226Y-103392122D01*
X171422525Y-103585967D01*
X171430799Y-103617132D01*
X171453104Y-103711301D01*
X171461581Y-103751590D01*
X171470843Y-103795612D01*
X171476309Y-103821590D01*
X171499173Y-103941034D01*
X171520454Y-104062666D01*
X171538912Y-104179518D01*
X171553304Y-104284626D01*
X171562391Y-104371021D01*
X171569598Y-104460458D01*
X170543231Y-104460458D01*
X170495882Y-104460455D01*
X170307905Y-104460354D01*
X170144496Y-104460096D01*
X170004089Y-104459652D01*
X169885115Y-104458996D01*
X169786007Y-104458100D01*
X169705198Y-104456940D01*
X169641122Y-104455486D01*
X169592210Y-104453713D01*
X169556896Y-104451594D01*
X169533611Y-104449101D01*
X169520790Y-104446209D01*
X169516865Y-104442890D01*
X169517998Y-104429031D01*
X169522218Y-104392873D01*
X169528830Y-104341618D01*
X169537059Y-104281465D01*
X169541249Y-104251323D01*
X169548146Y-104196605D01*
X169550823Y-104158903D01*
X169549110Y-104131782D01*
X169542838Y-104108806D01*
X169531837Y-104083541D01*
X169531282Y-104082358D01*
X169502961Y-104012388D01*
X169482420Y-103937778D01*
X169468789Y-103853152D01*
X169464044Y-103790655D01*
X169499242Y-103790655D01*
X169503451Y-103797965D01*
X169508443Y-103798788D01*
X169511188Y-103809680D01*
X169509432Y-103821352D01*
X169511390Y-103853359D01*
X169517728Y-103895940D01*
X169521546Y-103915166D01*
X169533110Y-103962328D01*
X169545627Y-104001921D01*
X169557292Y-104029400D01*
X169566303Y-104040221D01*
X169570856Y-104029837D01*
X169575604Y-103981735D01*
X169585015Y-103925620D01*
X169600779Y-103859655D01*
X169608547Y-103826282D01*
X169613263Y-103795612D01*
X169611669Y-103783186D01*
X169607019Y-103782357D01*
X169578269Y-103775880D01*
X169553642Y-103766108D01*
X169537790Y-103762844D01*
X169509634Y-103776803D01*
X169499242Y-103790655D01*
X169464044Y-103790655D01*
X169461195Y-103753133D01*
X169461164Y-103751590D01*
X169490365Y-103751590D01*
X169496990Y-103758215D01*
X169503615Y-103751590D01*
X169496990Y-103744965D01*
X169490365Y-103751590D01*
X169461164Y-103751590D01*
X169459910Y-103689135D01*
X169489369Y-103689135D01*
X169551852Y-103710425D01*
X169552754Y-103710733D01*
X169597179Y-103725097D01*
X169622826Y-103730414D01*
X169635613Y-103726995D01*
X169641457Y-103715153D01*
X169642175Y-103712519D01*
X169662331Y-103639176D01*
X169677977Y-103584689D01*
X169691327Y-103542502D01*
X169704596Y-103506058D01*
X169719998Y-103468801D01*
X169739749Y-103424175D01*
X169749478Y-103400289D01*
X169758236Y-103369854D01*
X169757181Y-103355218D01*
X169747001Y-103350186D01*
X169712863Y-103337388D01*
X169667538Y-103322929D01*
X169620607Y-103309774D01*
X169581652Y-103300889D01*
X169565967Y-103298338D01*
X169544570Y-103298346D01*
X169530533Y-103307943D01*
X169521643Y-103331346D01*
X169515682Y-103372773D01*
X169510435Y-103436439D01*
X169505769Y-103497460D01*
X169500569Y-103562020D01*
X169496093Y-103614364D01*
X169489369Y-103689135D01*
X169459910Y-103689135D01*
X169458769Y-103632341D01*
X169459712Y-103558427D01*
X169471263Y-103388771D01*
X169496915Y-103233947D01*
X169498430Y-103228543D01*
X169540326Y-103228543D01*
X169547132Y-103240587D01*
X169565547Y-103250661D01*
X169600268Y-103261583D01*
X169655988Y-103276168D01*
X169683996Y-103283285D01*
X169732873Y-103295413D01*
X169768623Y-103303891D01*
X169784984Y-103307211D01*
X169794613Y-103297850D01*
X169812280Y-103270555D01*
X169833632Y-103231533D01*
X169860667Y-103182938D01*
X169896830Y-103124154D01*
X169933223Y-103069910D01*
X169941051Y-103058690D01*
X169966197Y-103019245D01*
X169981519Y-102989485D01*
X169983949Y-102975145D01*
X169968077Y-102966417D01*
X169932455Y-102952427D01*
X169885538Y-102936617D01*
X169834994Y-102921551D01*
X169788487Y-102909793D01*
X169781597Y-102908268D01*
X169736804Y-102898153D01*
X169699529Y-102889459D01*
X169695312Y-102888486D01*
X169672863Y-102887240D01*
X169657529Y-102899845D01*
X169641600Y-102931957D01*
X169637425Y-102941603D01*
X169620537Y-102979453D01*
X169607700Y-103006579D01*
X169600848Y-103020993D01*
X169581841Y-103067885D01*
X169563232Y-103121396D01*
X169548449Y-103171236D01*
X169540918Y-103207115D01*
X169540436Y-103211710D01*
X169540326Y-103228543D01*
X169498430Y-103228543D01*
X169537886Y-103087833D01*
X169595390Y-102944305D01*
X169601444Y-102931665D01*
X169635985Y-102869528D01*
X169656767Y-102836827D01*
X169711998Y-102836827D01*
X169724272Y-102851849D01*
X169755362Y-102859039D01*
X169766613Y-102860371D01*
X169786587Y-102863579D01*
X169809920Y-102869124D01*
X169843925Y-102878860D01*
X169895915Y-102894639D01*
X169900041Y-102895894D01*
X169949345Y-102909762D01*
X169990571Y-102919468D01*
X170015163Y-102922979D01*
X170022357Y-102920644D01*
X170047671Y-102903703D01*
X170082992Y-102874461D01*
X170123252Y-102837790D01*
X170163386Y-102798559D01*
X170198326Y-102761638D01*
X170223005Y-102731899D01*
X170232358Y-102714210D01*
X170231936Y-102712139D01*
X170216577Y-102700162D01*
X170185983Y-102690726D01*
X170179636Y-102689442D01*
X170151173Y-102680809D01*
X170139609Y-102672097D01*
X170136011Y-102668359D01*
X170113322Y-102660853D01*
X170076672Y-102654543D01*
X170034380Y-102646491D01*
X169984454Y-102630537D01*
X169943618Y-102611011D01*
X169920469Y-102591390D01*
X169908368Y-102591551D01*
X169883721Y-102608201D01*
X169851010Y-102637692D01*
X169814452Y-102675887D01*
X169778266Y-102718649D01*
X169746668Y-102761842D01*
X169742542Y-102768110D01*
X169718201Y-102810179D01*
X169711998Y-102836827D01*
X169656767Y-102836827D01*
X169681579Y-102797783D01*
X169732707Y-102724432D01*
X169783850Y-102657476D01*
X169829488Y-102604918D01*
X169838362Y-102595256D01*
X169862388Y-102562796D01*
X169874098Y-102536406D01*
X169872034Y-102520923D01*
X169854737Y-102521186D01*
X169844455Y-102522841D01*
X169834862Y-102513041D01*
X169833211Y-102506786D01*
X169818299Y-102503180D01*
X169817446Y-102503447D01*
X169795301Y-102501429D01*
X169771839Y-102492852D01*
X169914361Y-102492852D01*
X169920986Y-102499477D01*
X169927611Y-102492852D01*
X169920986Y-102486227D01*
X169914361Y-102492852D01*
X169771839Y-102492852D01*
X169765775Y-102490635D01*
X169739916Y-102476060D01*
X169728772Y-102462700D01*
X169723768Y-102453103D01*
X169914361Y-102453103D01*
X169920986Y-102459728D01*
X169927611Y-102453103D01*
X169920986Y-102446478D01*
X169914361Y-102453103D01*
X169723768Y-102453103D01*
X169722959Y-102451552D01*
X169699567Y-102432222D01*
X169666742Y-102413346D01*
X169650367Y-102406728D01*
X169914361Y-102406728D01*
X169914513Y-102409727D01*
X169920204Y-102419978D01*
X169922329Y-102419368D01*
X169934236Y-102406728D01*
X169936306Y-102401596D01*
X169928393Y-102393478D01*
X169924547Y-102393988D01*
X169914361Y-102406728D01*
X169650367Y-102406728D01*
X169633727Y-102400003D01*
X169609767Y-102397277D01*
X169594765Y-102398992D01*
X169590503Y-102392243D01*
X169598688Y-102385717D01*
X169623646Y-102380229D01*
X169644643Y-102375698D01*
X169644728Y-102374407D01*
X170049401Y-102374407D01*
X170052218Y-102378896D01*
X170073359Y-102366979D01*
X170082679Y-102359104D01*
X170077454Y-102353932D01*
X170072835Y-102354381D01*
X170053485Y-102366979D01*
X170049401Y-102374407D01*
X169644728Y-102374407D01*
X169645670Y-102360105D01*
X169624408Y-102335631D01*
X169850455Y-102335631D01*
X169861361Y-102340479D01*
X169868376Y-102339523D01*
X169870195Y-102331646D01*
X169868253Y-102330060D01*
X169852528Y-102331646D01*
X169850455Y-102335631D01*
X169624408Y-102335631D01*
X169622864Y-102333854D01*
X169608281Y-102321261D01*
X169606318Y-102320604D01*
X169901111Y-102320604D01*
X169907736Y-102327229D01*
X169914361Y-102320604D01*
X169907736Y-102313979D01*
X169901111Y-102320604D01*
X169606318Y-102320604D01*
X169598267Y-102317909D01*
X169596364Y-102332582D01*
X169593936Y-102345673D01*
X169584720Y-102347705D01*
X169574172Y-102334147D01*
X169568327Y-102309885D01*
X169568148Y-102306777D01*
X169566278Y-102296057D01*
X169934167Y-102296057D01*
X169954111Y-102313979D01*
X169963834Y-102320604D01*
X169978675Y-102330717D01*
X169981959Y-102331646D01*
X170008460Y-102339142D01*
X170028250Y-102325182D01*
X170031479Y-102317735D01*
X170022305Y-102319402D01*
X170008656Y-102320892D01*
X169986187Y-102308199D01*
X169970275Y-102296381D01*
X169943227Y-102287774D01*
X169935463Y-102288607D01*
X169934167Y-102296057D01*
X169566278Y-102296057D01*
X169565622Y-102292299D01*
X169560865Y-102303347D01*
X169559946Y-102320634D01*
X169568710Y-102351572D01*
X169570363Y-102354749D01*
X169574604Y-102374250D01*
X169557769Y-102383766D01*
X169550331Y-102386971D01*
X169537730Y-102402615D01*
X169527362Y-102434575D01*
X169517257Y-102487915D01*
X169501641Y-102573910D01*
X169475787Y-102692028D01*
X169445193Y-102812397D01*
X169411823Y-102927876D01*
X169377642Y-103031323D01*
X169344614Y-103115596D01*
X169341204Y-103123418D01*
X169327335Y-103155546D01*
X169307507Y-103201708D01*
X169284806Y-103254720D01*
X169273903Y-103279790D01*
X169252103Y-103327407D01*
X169234278Y-103363105D01*
X169223493Y-103380594D01*
X169212660Y-103383725D01*
X169194600Y-103371938D01*
X169179007Y-103348236D01*
X169172368Y-103320272D01*
X169171712Y-103315683D01*
X169161907Y-103288629D01*
X169142797Y-103247845D01*
X169117538Y-103200243D01*
X169113532Y-103193071D01*
X169082783Y-103137062D01*
X169053447Y-103082196D01*
X169031383Y-103039410D01*
X169018530Y-103015178D01*
X169001085Y-102987546D01*
X168990151Y-102977011D01*
X168982385Y-102981823D01*
X168961243Y-103002260D01*
X168933871Y-103033182D01*
X168907202Y-103063678D01*
X168866433Y-103107943D01*
X168816719Y-103160415D01*
X168761453Y-103217661D01*
X168704028Y-103276247D01*
X168647836Y-103332738D01*
X168596269Y-103383700D01*
X168552721Y-103425700D01*
X168520584Y-103455303D01*
X168503250Y-103469074D01*
X168502361Y-103466248D01*
X168516864Y-103447648D01*
X168545521Y-103415287D01*
X168585944Y-103371848D01*
X168635749Y-103320015D01*
X168675544Y-103279118D01*
X168726815Y-103226305D01*
X168770650Y-103181017D01*
X168803357Y-103147067D01*
X168821247Y-103128270D01*
X168853797Y-103093242D01*
X168903204Y-103039168D01*
X168937022Y-102998970D01*
X168956793Y-102968954D01*
X168964061Y-102945423D01*
X168960370Y-102924682D01*
X168947262Y-102903035D01*
X168926282Y-102876788D01*
X168904501Y-102851428D01*
X168880677Y-102826941D01*
X168867326Y-102817474D01*
X168865791Y-102817989D01*
X168850745Y-102831952D01*
X168825804Y-102861120D01*
X168795483Y-102900286D01*
X168791561Y-102905544D01*
X168744725Y-102965515D01*
X168689771Y-103031751D01*
X168629228Y-103101609D01*
X168565626Y-103172443D01*
X168553680Y-103185327D01*
X168501494Y-103241609D01*
X168439362Y-103306462D01*
X168386640Y-103359452D01*
X168381759Y-103364358D01*
X168331214Y-103412653D01*
X168290257Y-103448702D01*
X168261418Y-103469860D01*
X168247226Y-103473483D01*
X168246432Y-103471292D01*
X168255371Y-103455725D01*
X168278520Y-103433483D01*
X168286444Y-103426863D01*
X168306393Y-103408233D01*
X168311127Y-103400095D01*
X168289202Y-103397122D01*
X168249481Y-103394382D01*
X168202761Y-103392839D01*
X168155733Y-103392520D01*
X168115092Y-103393451D01*
X168087530Y-103395659D01*
X168079742Y-103399172D01*
X168095191Y-103408242D01*
X168125629Y-103417417D01*
X168143419Y-103421022D01*
X168143321Y-103423505D01*
X168118053Y-103425164D01*
X168105004Y-103425277D01*
X168083988Y-103419733D01*
X168067554Y-103401315D01*
X168048896Y-103364003D01*
X168041357Y-103346010D01*
X168107153Y-103346010D01*
X168124589Y-103360163D01*
X168141161Y-103368026D01*
X168154570Y-103371374D01*
X168154636Y-103371337D01*
X168169531Y-103369388D01*
X168203522Y-103366797D01*
X168249417Y-103364115D01*
X168340081Y-103359452D01*
X168330739Y-103277274D01*
X168326124Y-103238341D01*
X168325159Y-103231011D01*
X168360160Y-103231011D01*
X168361798Y-103267364D01*
X168363229Y-103279788D01*
X168369195Y-103309208D01*
X168375953Y-103320969D01*
X168376866Y-103320796D01*
X168392259Y-103309765D01*
X168418442Y-103285933D01*
X168449354Y-103255435D01*
X168478937Y-103224410D01*
X168501130Y-103198995D01*
X168509875Y-103185327D01*
X168504978Y-103182263D01*
X168481600Y-103181256D01*
X168446879Y-103183926D01*
X168409722Y-103189187D01*
X168379033Y-103195953D01*
X168363718Y-103203140D01*
X168362378Y-103206483D01*
X168360160Y-103231011D01*
X168325159Y-103231011D01*
X168321892Y-103206199D01*
X168319574Y-103193110D01*
X168310613Y-103191745D01*
X168281581Y-103189265D01*
X168239737Y-103186486D01*
X168161723Y-103181846D01*
X168161049Y-103184118D01*
X168145989Y-103234845D01*
X168143343Y-103243468D01*
X168128608Y-103285133D01*
X168114523Y-103317100D01*
X168109887Y-103326326D01*
X168107153Y-103346010D01*
X168041357Y-103346010D01*
X168020664Y-103296620D01*
X167977769Y-103175365D01*
X167964302Y-103129146D01*
X167995639Y-103129146D01*
X167997817Y-103148060D01*
X168007042Y-103184014D01*
X168021665Y-103230385D01*
X168024616Y-103238927D01*
X168041883Y-103283797D01*
X168057396Y-103316515D01*
X168068103Y-103330502D01*
X168068968Y-103330546D01*
X168078539Y-103318259D01*
X168091587Y-103289427D01*
X168105352Y-103252096D01*
X168117072Y-103214311D01*
X168123987Y-103184118D01*
X168123335Y-103169561D01*
X168105908Y-103160529D01*
X168074568Y-103148392D01*
X168039545Y-103136877D01*
X168010266Y-103129062D01*
X167996158Y-103128027D01*
X167995639Y-103129146D01*
X167964302Y-103129146D01*
X167939121Y-103042722D01*
X167930712Y-103010748D01*
X167916562Y-102958144D01*
X167906737Y-102924832D01*
X167899701Y-102906444D01*
X167893917Y-102898613D01*
X167887849Y-102896973D01*
X167875310Y-102906303D01*
X167851953Y-102931509D01*
X167823060Y-102967024D01*
X167769017Y-103037074D01*
X167801311Y-103141744D01*
X167806374Y-103158479D01*
X167819155Y-103204474D01*
X167826735Y-103237885D01*
X167827614Y-103252404D01*
X167827265Y-103252676D01*
X167819139Y-103245034D01*
X167808167Y-103222571D01*
X167798524Y-103195254D01*
X167794382Y-103173048D01*
X167794154Y-103170577D01*
X167786989Y-103147150D01*
X167772900Y-103114080D01*
X167751417Y-103068810D01*
X167695312Y-103120526D01*
X167658700Y-103152441D01*
X167601033Y-103192727D01*
X167553888Y-103210726D01*
X167544316Y-103209809D01*
X167535384Y-103197783D01*
X167528939Y-103169013D01*
X167523366Y-103118625D01*
X167516374Y-103041874D01*
X167503672Y-102906764D01*
X167492679Y-102796367D01*
X167483267Y-102709538D01*
X167475309Y-102645128D01*
X167468676Y-102601990D01*
X167463240Y-102578977D01*
X167455141Y-102552408D01*
X167447189Y-102513267D01*
X167446937Y-102511382D01*
X167446821Y-102511068D01*
X167982081Y-102511068D01*
X167988024Y-102542410D01*
X168006451Y-102575754D01*
X168022418Y-102596836D01*
X168070333Y-102666691D01*
X168117678Y-102743956D01*
X168158977Y-102819383D01*
X168188758Y-102883724D01*
X168207865Y-102929396D01*
X168227483Y-102972144D01*
X168242122Y-102999660D01*
X168251967Y-103013994D01*
X168268063Y-103027104D01*
X168282887Y-103017609D01*
X168301284Y-102984250D01*
X168301528Y-102983741D01*
X168324840Y-102943461D01*
X168359801Y-102892210D01*
X168400161Y-102838338D01*
X168439670Y-102790189D01*
X168472081Y-102756113D01*
X168476420Y-102752331D01*
X168506198Y-102728978D01*
X168548618Y-102698026D01*
X168595999Y-102665117D01*
X168623485Y-102646373D01*
X168747390Y-102557266D01*
X168848361Y-102475839D01*
X168927935Y-102400664D01*
X168987652Y-102330314D01*
X169018233Y-102280854D01*
X169901111Y-102280854D01*
X169907736Y-102287479D01*
X169914361Y-102280854D01*
X169907736Y-102274230D01*
X169901111Y-102280854D01*
X169018233Y-102280854D01*
X169029050Y-102263360D01*
X169029954Y-102261558D01*
X169827879Y-102261558D01*
X169828856Y-102269338D01*
X169847330Y-102274230D01*
X169865496Y-102272991D01*
X169873207Y-102266713D01*
X169855161Y-102256351D01*
X169845116Y-102254340D01*
X169827879Y-102261558D01*
X169029954Y-102261558D01*
X169031264Y-102258945D01*
X169046953Y-102229632D01*
X169731206Y-102229632D01*
X169742113Y-102234480D01*
X169749127Y-102233524D01*
X169750946Y-102225647D01*
X169749004Y-102224061D01*
X169733279Y-102225647D01*
X169731206Y-102229632D01*
X169046953Y-102229632D01*
X169055106Y-102214399D01*
X169076072Y-102179933D01*
X169546026Y-102179933D01*
X169550594Y-102198153D01*
X169559490Y-102210719D01*
X169585077Y-102225583D01*
X169602138Y-102227200D01*
X169605063Y-102216382D01*
X169678207Y-102216382D01*
X169689113Y-102221230D01*
X169696128Y-102220274D01*
X169697946Y-102212397D01*
X169696004Y-102210811D01*
X169680280Y-102212397D01*
X169678207Y-102216382D01*
X169605063Y-102216382D01*
X169605245Y-102215707D01*
X169608497Y-102204157D01*
X169634011Y-102203203D01*
X169643042Y-102203354D01*
X169637297Y-102198191D01*
X169610562Y-102188041D01*
X169578874Y-102178075D01*
X169553974Y-102173490D01*
X169546026Y-102179933D01*
X169076072Y-102179933D01*
X169076447Y-102179316D01*
X169090902Y-102160956D01*
X169095078Y-102155843D01*
X169104950Y-102131422D01*
X169113330Y-102097030D01*
X169118713Y-102061512D01*
X169119594Y-102033714D01*
X169114467Y-102022482D01*
X169099066Y-102030207D01*
X169078833Y-102050107D01*
X169062857Y-102072584D01*
X169059279Y-102087979D01*
X169058683Y-102093568D01*
X169041883Y-102093097D01*
X169041582Y-102093023D01*
X169017014Y-102097269D01*
X168976757Y-102115442D01*
X168925929Y-102145241D01*
X168839301Y-102197747D01*
X168664413Y-102286809D01*
X168476347Y-102360815D01*
X168271464Y-102421104D01*
X168046129Y-102469014D01*
X168012581Y-102476755D01*
X167990494Y-102489324D01*
X167982259Y-102509520D01*
X167982081Y-102511068D01*
X167446821Y-102511068D01*
X167440378Y-102493613D01*
X167424004Y-102480495D01*
X167393649Y-102470624D01*
X167345144Y-102462594D01*
X167274324Y-102455002D01*
X167198138Y-102447836D01*
X167198138Y-102491542D01*
X167202030Y-102521309D01*
X167214100Y-102572078D01*
X167232466Y-102635990D01*
X167255211Y-102707070D01*
X167280415Y-102779347D01*
X167306160Y-102846847D01*
X167330527Y-102903598D01*
X167352138Y-102949904D01*
X167381928Y-103013688D01*
X167409677Y-103073061D01*
X167412710Y-103079617D01*
X167431662Y-103124367D01*
X167443781Y-103159737D01*
X167446562Y-103178565D01*
X167446403Y-103178953D01*
X167437875Y-103174302D01*
X167420446Y-103150729D01*
X167396762Y-103112841D01*
X167369468Y-103065242D01*
X167341211Y-103012536D01*
X167314635Y-102959328D01*
X167292386Y-102910223D01*
X167278031Y-102877714D01*
X167261063Y-102843146D01*
X167249765Y-102824762D01*
X167246271Y-102820288D01*
X167237887Y-102794805D01*
X167236838Y-102787576D01*
X167227750Y-102758656D01*
X167212368Y-102721268D01*
X167207447Y-102709817D01*
X167189836Y-102659053D01*
X167178593Y-102611830D01*
X167178234Y-102609530D01*
X167168423Y-102563314D01*
X167152836Y-102537456D01*
X167124750Y-102526073D01*
X167077445Y-102523280D01*
X167065068Y-102523496D01*
X167015727Y-102530002D01*
X166971333Y-102543572D01*
X166937219Y-102561578D01*
X166918715Y-102581388D01*
X166921153Y-102600372D01*
X166927952Y-102610679D01*
X166926286Y-102618726D01*
X166916490Y-102614021D01*
X166897878Y-102595539D01*
X166893565Y-102590286D01*
X166884931Y-102584325D01*
X166882296Y-102596929D01*
X166884207Y-102631976D01*
X166885099Y-102641547D01*
X166885241Y-102643073D01*
X166892981Y-102693894D01*
X166903607Y-102737975D01*
X166937998Y-102846742D01*
X166942328Y-102860435D01*
X166976166Y-102969386D01*
X167002259Y-103055792D01*
X167020418Y-103119012D01*
X167030455Y-103158410D01*
X167032180Y-103173346D01*
X167027456Y-103170270D01*
X167014795Y-103149248D01*
X166998448Y-103114331D01*
X166990008Y-103094698D01*
X166966495Y-103040824D01*
X166945288Y-102993179D01*
X166937895Y-102976247D01*
X166924996Y-102942938D01*
X166919890Y-102923618D01*
X166919590Y-102920407D01*
X166909618Y-102910223D01*
X166905179Y-102917087D01*
X166896533Y-102945197D01*
X166886076Y-102989991D01*
X166875184Y-103046034D01*
X166867868Y-103087082D01*
X166856932Y-103147234D01*
X166849655Y-103183721D01*
X166845424Y-103198146D01*
X166843622Y-103192112D01*
X166843635Y-103167220D01*
X166844847Y-103125074D01*
X166847934Y-103028553D01*
X166728226Y-103032325D01*
X166608518Y-103036097D01*
X166593874Y-103155346D01*
X166589676Y-103186903D01*
X166583770Y-103221748D01*
X166579263Y-103236574D01*
X166576890Y-103228220D01*
X166576297Y-103221736D01*
X166570015Y-103194315D01*
X166559676Y-103166456D01*
X166548413Y-103144546D01*
X166539358Y-103134972D01*
X166535644Y-103144120D01*
X166527831Y-103148990D01*
X166495312Y-103153573D01*
X166438768Y-103156138D01*
X166359560Y-103156590D01*
X166329720Y-103156433D01*
X166263431Y-103156892D01*
X166215622Y-103159196D01*
X166180422Y-103164030D01*
X166151963Y-103172080D01*
X166124374Y-103184030D01*
X166055166Y-103216359D01*
X165998629Y-103239400D01*
X165959343Y-103250695D01*
X165958192Y-103250932D01*
X165931105Y-103264896D01*
X165903031Y-103290317D01*
X165893526Y-103300499D01*
X165876891Y-103310970D01*
X165873556Y-103300365D01*
X165885701Y-103271102D01*
X165894003Y-103253120D01*
X165909116Y-103215554D01*
X165925870Y-103170290D01*
X165927896Y-103164743D01*
X165950243Y-103112683D01*
X165980489Y-103052087D01*
X166008175Y-103002972D01*
X166611978Y-103002972D01*
X166649998Y-103000419D01*
X166673549Y-102998915D01*
X166719375Y-102996142D01*
X166770345Y-102993175D01*
X166852673Y-102988483D01*
X166860675Y-102939416D01*
X166861157Y-102936463D01*
X166868266Y-102893427D01*
X166874368Y-102857224D01*
X166875219Y-102846742D01*
X166871843Y-102808078D01*
X166861912Y-102764475D01*
X166843765Y-102704850D01*
X166743169Y-102705490D01*
X166733793Y-102705575D01*
X166686538Y-102706850D01*
X166651912Y-102709174D01*
X166636851Y-102712115D01*
X166634431Y-102722065D01*
X166630444Y-102753906D01*
X166625956Y-102801964D01*
X166621554Y-102860536D01*
X166611978Y-103002972D01*
X166008175Y-103002972D01*
X166012694Y-102994955D01*
X166023677Y-102976745D01*
X166048340Y-102934874D01*
X166065477Y-102904329D01*
X166071899Y-102890725D01*
X166073579Y-102885546D01*
X166091165Y-102860212D01*
X166127856Y-102816639D01*
X166183613Y-102754873D01*
X166272285Y-102672514D01*
X166309205Y-102648681D01*
X166754941Y-102648681D01*
X166762647Y-102653769D01*
X166793251Y-102655897D01*
X166799688Y-102656070D01*
X166830393Y-102652829D01*
X166836963Y-102641547D01*
X166826608Y-102627533D01*
X166800479Y-102622460D01*
X166768826Y-102636005D01*
X166766528Y-102637699D01*
X166754941Y-102648681D01*
X166309205Y-102648681D01*
X166388847Y-102597269D01*
X166520712Y-102543563D01*
X166540202Y-102537283D01*
X166595679Y-102516661D01*
X166642611Y-102495458D01*
X166672472Y-102477393D01*
X166676936Y-102473810D01*
X166706416Y-102454394D01*
X166728160Y-102446478D01*
X166738415Y-102440599D01*
X166741756Y-102419129D01*
X166738685Y-102376916D01*
X166735197Y-102350286D01*
X166728744Y-102316067D01*
X166722747Y-102299319D01*
X166722710Y-102299284D01*
X166707322Y-102292228D01*
X166671946Y-102279083D01*
X166621810Y-102261715D01*
X166562144Y-102241991D01*
X166382408Y-102181162D01*
X166133069Y-102087754D01*
X166108651Y-102078521D01*
X166073588Y-102066811D01*
X166053523Y-102062232D01*
X166050329Y-102061950D01*
X166023068Y-102053198D01*
X165982131Y-102035006D01*
X165934838Y-102011203D01*
X165888511Y-101985614D01*
X165850470Y-101962064D01*
X165828035Y-101944381D01*
X165804737Y-101925821D01*
X165777285Y-101916483D01*
X165771658Y-101915649D01*
X165742463Y-101901383D01*
X165700949Y-101872224D01*
X165651390Y-101831794D01*
X165598061Y-101783717D01*
X165545237Y-101731614D01*
X165497193Y-101679109D01*
X165481025Y-101657794D01*
X165461020Y-101614512D01*
X165449858Y-101556329D01*
X165447480Y-101527826D01*
X165493620Y-101527826D01*
X165494618Y-101564285D01*
X165501599Y-101584386D01*
X165512066Y-101584762D01*
X165523523Y-101562049D01*
X165528212Y-101547523D01*
X165543987Y-101507236D01*
X165558212Y-101488325D01*
X165573368Y-101487059D01*
X165579490Y-101488558D01*
X165588943Y-101480158D01*
X165590334Y-101450360D01*
X165590280Y-101449119D01*
X165591795Y-101432597D01*
X165624234Y-101432597D01*
X165625820Y-101448321D01*
X165629805Y-101450394D01*
X165634653Y-101439488D01*
X165633697Y-101432473D01*
X165625820Y-101430655D01*
X165624234Y-101432597D01*
X165591795Y-101432597D01*
X165593067Y-101418723D01*
X165603515Y-101409234D01*
X165604961Y-101409356D01*
X165617956Y-101398674D01*
X165620671Y-101392156D01*
X165683675Y-101392156D01*
X165693863Y-101437951D01*
X165694897Y-101439488D01*
X165710805Y-101463144D01*
X165748588Y-101506442D01*
X165798522Y-101555872D01*
X165855075Y-101606312D01*
X165912712Y-101652642D01*
X165965900Y-101689739D01*
X165972966Y-101694174D01*
X166015213Y-101721057D01*
X166048192Y-101742631D01*
X166065274Y-101754573D01*
X166065649Y-101754872D01*
X166084487Y-101766371D01*
X166119514Y-101785343D01*
X166163452Y-101807842D01*
X166187709Y-101819660D01*
X166240854Y-101842384D01*
X166273063Y-101850323D01*
X166283897Y-101843345D01*
X166281654Y-101837394D01*
X166268837Y-101813910D01*
X166248446Y-101780409D01*
X166240811Y-101768050D01*
X166196330Y-101686136D01*
X166152458Y-101590725D01*
X166113804Y-101492479D01*
X166084974Y-101402061D01*
X166074151Y-101362969D01*
X166061131Y-101323352D01*
X166048228Y-101299226D01*
X166031814Y-101284490D01*
X166008262Y-101273042D01*
X165971497Y-101261773D01*
X165919223Y-101250859D01*
X165863228Y-101242831D01*
X165827499Y-101239143D01*
X165790466Y-101237005D01*
X165767436Y-101240407D01*
X165750979Y-101250912D01*
X165733669Y-101270082D01*
X165722510Y-101284421D01*
X165693783Y-101338621D01*
X165683675Y-101392156D01*
X165620671Y-101392156D01*
X165627797Y-101375044D01*
X165631063Y-101350400D01*
X165624329Y-101336672D01*
X165618396Y-101327950D01*
X165617989Y-101303857D01*
X165624574Y-101276950D01*
X165636235Y-101259637D01*
X165640358Y-101258033D01*
X165647903Y-101266994D01*
X165648497Y-101269115D01*
X165660444Y-101266516D01*
X165682907Y-101249104D01*
X165688870Y-101243385D01*
X165708529Y-101216249D01*
X165707356Y-101192256D01*
X165704028Y-101184788D01*
X165696807Y-101175558D01*
X165691397Y-101190318D01*
X165686035Y-101201459D01*
X165670260Y-101207088D01*
X165661507Y-101209040D01*
X165640000Y-101226819D01*
X165614778Y-101257510D01*
X165595262Y-101285614D01*
X165579919Y-101311790D01*
X165572898Y-101334207D01*
X165569932Y-101362885D01*
X165566523Y-101374445D01*
X165551841Y-101381619D01*
X165545511Y-101380406D01*
X165545216Y-101383139D01*
X165548122Y-101385623D01*
X165554440Y-101407385D01*
X165553029Y-101426238D01*
X165552122Y-101438357D01*
X165541701Y-101465988D01*
X165539934Y-101468639D01*
X165528080Y-101479200D01*
X165515607Y-101465988D01*
X165512270Y-101460900D01*
X165505346Y-101452445D01*
X165501150Y-101456855D01*
X165497956Y-101478638D01*
X165494039Y-101522299D01*
X165493620Y-101527826D01*
X165447480Y-101527826D01*
X165446891Y-101520770D01*
X165447135Y-101486870D01*
X165451507Y-101471158D01*
X165456878Y-101464843D01*
X165462405Y-101441507D01*
X165466261Y-101419347D01*
X165518235Y-101419347D01*
X165519821Y-101435071D01*
X165523806Y-101437144D01*
X165528654Y-101426238D01*
X165527698Y-101419223D01*
X165519821Y-101417405D01*
X165518235Y-101419347D01*
X165466261Y-101419347D01*
X165466301Y-101419118D01*
X165485348Y-101373278D01*
X165516934Y-101318144D01*
X165557340Y-101259422D01*
X165602848Y-101202820D01*
X165636451Y-101167865D01*
X166045399Y-101167865D01*
X166052024Y-101174490D01*
X166058649Y-101167865D01*
X166052024Y-101161241D01*
X166045399Y-101167865D01*
X165636451Y-101167865D01*
X165649739Y-101154042D01*
X165650533Y-101153391D01*
X165728826Y-101153391D01*
X165737214Y-101155106D01*
X165760057Y-101148387D01*
X165783125Y-101135258D01*
X165793651Y-101121918D01*
X165793559Y-101120116D01*
X165783002Y-101109094D01*
X165761939Y-101112276D01*
X165740386Y-101128436D01*
X165731705Y-101140914D01*
X165728826Y-101153391D01*
X165650533Y-101153391D01*
X165689463Y-101121472D01*
X165743075Y-101083720D01*
X165754805Y-101076534D01*
X165820151Y-101076534D01*
X165823823Y-101081470D01*
X165839010Y-101079627D01*
X165853182Y-101068643D01*
X165854392Y-101062510D01*
X165840714Y-101063436D01*
X165830544Y-101068024D01*
X165820151Y-101076534D01*
X165754805Y-101076534D01*
X165796964Y-101050707D01*
X165806385Y-101045392D01*
X165847043Y-101020586D01*
X165875613Y-101000080D01*
X165886401Y-100987873D01*
X165886397Y-100987729D01*
X165874654Y-100975420D01*
X165845158Y-100958464D01*
X165805275Y-100940232D01*
X165762372Y-100924098D01*
X165723814Y-100913434D01*
X165697155Y-100905613D01*
X165680569Y-100895501D01*
X165683288Y-100893815D01*
X165704066Y-100896496D01*
X165739151Y-100904229D01*
X165781793Y-100915235D01*
X165825245Y-100927734D01*
X165862758Y-100939946D01*
X165887582Y-100950092D01*
X165910522Y-100964800D01*
X165952034Y-100997551D01*
X165999209Y-101039622D01*
X166022325Y-101062510D01*
X166045094Y-101085054D01*
X166063120Y-101103178D01*
X166084342Y-101121918D01*
X166088820Y-101125872D01*
X166103712Y-101134741D01*
X166108132Y-101127932D01*
X166110060Y-101100647D01*
X166108037Y-101058285D01*
X166102745Y-101007099D01*
X166094866Y-100953341D01*
X166085084Y-100903263D01*
X166074079Y-100863118D01*
X166069153Y-100849287D01*
X166041531Y-100782754D01*
X166007720Y-100714416D01*
X165970485Y-100648638D01*
X165932596Y-100589779D01*
X165896818Y-100542203D01*
X165865919Y-100510270D01*
X165842667Y-100498344D01*
X165837849Y-100495136D01*
X165849963Y-100484436D01*
X165858841Y-100478476D01*
X165869437Y-100464127D01*
X165871201Y-100441476D01*
X165864048Y-100404992D01*
X165847894Y-100349144D01*
X165791140Y-100157438D01*
X165738240Y-99960308D01*
X165696225Y-99779324D01*
X165664291Y-99610635D01*
X165641632Y-99450392D01*
X165627444Y-99294742D01*
X165625204Y-99273134D01*
X165669079Y-99273134D01*
X165669421Y-99303154D01*
X165671319Y-99369162D01*
X165674422Y-99428752D01*
X165678266Y-99471882D01*
X165679542Y-99481958D01*
X165685604Y-99531942D01*
X165692865Y-99594127D01*
X165700022Y-99657405D01*
X165703200Y-99683161D01*
X165711276Y-99734360D01*
X165722889Y-99793382D01*
X165738753Y-99863142D01*
X165759580Y-99946558D01*
X165786083Y-100046545D01*
X165818974Y-100166021D01*
X165858966Y-100307902D01*
X165880461Y-100380191D01*
X165908336Y-100461560D01*
X165935976Y-100526175D01*
X165965536Y-100579525D01*
X165995722Y-100628738D01*
X166025809Y-100680131D01*
X166048104Y-100720682D01*
X166058120Y-100738963D01*
X166076030Y-100766255D01*
X166087789Y-100776994D01*
X166094762Y-100785205D01*
X166098398Y-100810119D01*
X166101119Y-100831892D01*
X166109373Y-100843244D01*
X166112493Y-100844605D01*
X166122841Y-100863856D01*
X166133277Y-100900637D01*
X166142430Y-100948232D01*
X166148927Y-100999926D01*
X166151398Y-101049004D01*
X166149844Y-101086372D01*
X166139894Y-101140407D01*
X166125741Y-101167865D01*
X166121889Y-101175337D01*
X166097165Y-101187740D01*
X166095011Y-101187784D01*
X166076125Y-101194910D01*
X166067683Y-101216000D01*
X166067697Y-101216249D01*
X166069800Y-101253602D01*
X166082590Y-101310263D01*
X166106167Y-101388531D01*
X166106939Y-101390919D01*
X166148871Y-101507675D01*
X166197105Y-101620759D01*
X166248180Y-101722666D01*
X166298638Y-101805892D01*
X166307403Y-101817986D01*
X166328323Y-101843345D01*
X166344282Y-101862691D01*
X166394036Y-101917449D01*
X166451633Y-101977239D01*
X166512044Y-102037042D01*
X166570237Y-102091839D01*
X166621183Y-102136609D01*
X166659850Y-102166333D01*
X166708328Y-102196927D01*
X166848968Y-102271388D01*
X167005403Y-102336607D01*
X167170295Y-102389747D01*
X167336307Y-102427971D01*
X167360022Y-102431799D01*
X167435559Y-102440327D01*
X167527228Y-102446953D01*
X167627953Y-102451491D01*
X167730657Y-102453753D01*
X167828264Y-102453552D01*
X167913697Y-102450700D01*
X167979880Y-102445011D01*
X168071745Y-102431914D01*
X168209432Y-102407609D01*
X168331192Y-102379294D01*
X168443625Y-102345554D01*
X168477088Y-102333788D01*
X168557568Y-102302253D01*
X168643478Y-102265007D01*
X168728737Y-102224966D01*
X168807265Y-102185046D01*
X168872982Y-102148163D01*
X168919807Y-102117231D01*
X168931000Y-102108801D01*
X168976322Y-102075952D01*
X169021178Y-102044895D01*
X169040873Y-102030967D01*
X169099463Y-101983979D01*
X169165384Y-101925143D01*
X169231999Y-101860776D01*
X169292673Y-101797196D01*
X169340768Y-101740716D01*
X169389991Y-101674019D01*
X169473795Y-101545608D01*
X169557071Y-101400318D01*
X169636417Y-101243868D01*
X169644836Y-101226037D01*
X169667042Y-101175504D01*
X169679060Y-101138516D01*
X169682859Y-101107513D01*
X169680409Y-101074932D01*
X169677594Y-101057127D01*
X169670592Y-101027254D01*
X169664125Y-101015413D01*
X169661652Y-101009674D01*
X169658142Y-100982654D01*
X169655233Y-100938528D01*
X169653382Y-100882914D01*
X169653088Y-100848210D01*
X169654481Y-100797088D01*
X169658010Y-100762934D01*
X169663319Y-100750495D01*
X169668820Y-100742664D01*
X169673902Y-100714777D01*
X169675863Y-100673645D01*
X169677170Y-100640267D01*
X169682340Y-100602820D01*
X169690097Y-100582562D01*
X169699504Y-100567546D01*
X169708324Y-100536850D01*
X169712676Y-100508957D01*
X169720590Y-100468935D01*
X169722797Y-100459171D01*
X169733066Y-100411050D01*
X169737267Y-100382841D01*
X169735812Y-100369567D01*
X169729115Y-100366248D01*
X169722660Y-100368778D01*
X169715613Y-100386905D01*
X169713839Y-100396400D01*
X169703156Y-100399863D01*
X169697308Y-100399406D01*
X169674739Y-100409873D01*
X169645095Y-100432206D01*
X169631465Y-100443687D01*
X169603485Y-100464145D01*
X169586362Y-100472247D01*
X169583298Y-100472533D01*
X169558395Y-100480054D01*
X169522239Y-100494735D01*
X169483849Y-100512465D01*
X169452241Y-100529131D01*
X169436434Y-100540620D01*
X169415455Y-100554743D01*
X169373803Y-100566912D01*
X169318268Y-100575190D01*
X169255267Y-100578246D01*
X169243069Y-100578150D01*
X169196515Y-100574623D01*
X169175804Y-100565908D01*
X169180787Y-100551849D01*
X169211314Y-100532288D01*
X169243426Y-100511208D01*
X169267625Y-100487474D01*
X169282423Y-100472016D01*
X169313954Y-100453650D01*
X169337332Y-100440822D01*
X169375402Y-100408007D01*
X169418273Y-100361885D01*
X169461315Y-100307939D01*
X169499896Y-100251654D01*
X169529387Y-100198513D01*
X169538728Y-100177878D01*
X169566472Y-100096839D01*
X169579546Y-100011009D01*
X169580643Y-99990608D01*
X169580249Y-99936118D01*
X169576291Y-99878048D01*
X169569591Y-99822411D01*
X169560968Y-99775223D01*
X169551244Y-99742499D01*
X169541239Y-99730255D01*
X169535463Y-99726926D01*
X169530115Y-99707510D01*
X169529491Y-99699307D01*
X169520390Y-99661692D01*
X169503444Y-99614154D01*
X169482523Y-99566732D01*
X169461495Y-99529461D01*
X169460590Y-99528136D01*
X169444157Y-99501598D01*
X169437366Y-99485831D01*
X169434278Y-99479234D01*
X169418740Y-99455303D01*
X169393830Y-99419903D01*
X169363748Y-99378834D01*
X169332694Y-99337894D01*
X169304867Y-99302881D01*
X169300273Y-99297486D01*
X169276770Y-99271663D01*
X169242743Y-99235685D01*
X169202306Y-99193742D01*
X169159575Y-99150026D01*
X169118664Y-99108729D01*
X169083690Y-99074041D01*
X169058766Y-99050155D01*
X169048009Y-99041261D01*
X169041011Y-99036994D01*
X169019073Y-99018948D01*
X168988692Y-98991574D01*
X168966312Y-98972030D01*
X168907310Y-98926730D01*
X168833094Y-98875607D01*
X168749298Y-98822639D01*
X168733463Y-98812254D01*
X168700620Y-98789433D01*
X168661721Y-98761529D01*
X168634858Y-98742707D01*
X168580047Y-98707096D01*
X168529750Y-98677332D01*
X168502258Y-98661852D01*
X168466522Y-98640444D01*
X168444902Y-98625818D01*
X168432218Y-98618778D01*
X168401546Y-98614837D01*
X168387635Y-98614429D01*
X168380394Y-98602744D01*
X168375822Y-98592806D01*
X168353275Y-98573511D01*
X168317752Y-98552174D01*
X168294871Y-98539891D01*
X168243029Y-98509789D01*
X168198740Y-98481453D01*
X168181346Y-98469999D01*
X168149705Y-98452081D01*
X168130124Y-98445017D01*
X168115834Y-98440400D01*
X168092188Y-98422934D01*
X168067754Y-98408271D01*
X168031618Y-98400851D01*
X168004620Y-98397434D01*
X167993130Y-98389027D01*
X167994116Y-98385174D01*
X168006380Y-98385393D01*
X168011162Y-98387796D01*
X168019630Y-98385430D01*
X168016434Y-98381351D01*
X167995593Y-98368194D01*
X167961756Y-98351677D01*
X167944590Y-98343579D01*
X167909286Y-98323637D01*
X167887966Y-98306900D01*
X167866736Y-98291588D01*
X167833100Y-98279167D01*
X167807499Y-98269064D01*
X167802938Y-98256394D01*
X167805440Y-98250833D01*
X167798113Y-98250588D01*
X167790716Y-98250484D01*
X167763637Y-98240514D01*
X167723100Y-98220486D01*
X167674702Y-98193011D01*
X167645421Y-98175512D01*
X167602966Y-98150552D01*
X167572869Y-98133398D01*
X167560280Y-98127020D01*
X167551031Y-98123387D01*
X167523479Y-98104835D01*
X167483522Y-98073568D01*
X167435278Y-98032984D01*
X167382864Y-97986477D01*
X167330400Y-97937445D01*
X167296506Y-97904694D01*
X167248546Y-97858560D01*
X167214386Y-97828247D01*
X167190152Y-97812616D01*
X167171968Y-97810530D01*
X167155959Y-97820849D01*
X167138250Y-97842435D01*
X167114967Y-97874150D01*
X167109337Y-97881540D01*
X167080257Y-97916471D01*
X167057351Y-97938856D01*
X167045164Y-97944137D01*
X167040741Y-97943408D01*
X167043501Y-97958773D01*
X167046339Y-97971605D01*
X167040600Y-97975550D01*
X167026684Y-97980723D01*
X167000848Y-98001342D01*
X166968793Y-98032939D01*
X166946329Y-98055453D01*
X166899829Y-98097977D01*
X166844770Y-98145066D01*
X166788820Y-98190028D01*
X166745229Y-98224812D01*
X166707833Y-98256900D01*
X166683970Y-98280108D01*
X166677489Y-98290948D01*
X166678340Y-98295503D01*
X166663260Y-98299269D01*
X166655220Y-98299934D01*
X166627883Y-98308956D01*
X166602808Y-98324336D01*
X166587451Y-98340695D01*
X166589268Y-98352654D01*
X166590208Y-98359403D01*
X166569555Y-98362206D01*
X166542319Y-98367236D01*
X166511828Y-98384565D01*
X166498269Y-98396227D01*
X166465552Y-98421687D01*
X166420946Y-98454881D01*
X166370021Y-98491606D01*
X166330388Y-98520051D01*
X166284265Y-98553966D01*
X166248905Y-98580911D01*
X166229786Y-98596776D01*
X166214755Y-98608843D01*
X166194971Y-98617266D01*
X166183904Y-98621101D01*
X166163418Y-98638623D01*
X166150742Y-98651175D01*
X166123779Y-98668435D01*
X166122399Y-98668987D01*
X166087981Y-98689665D01*
X166040923Y-98726982D01*
X165985015Y-98777139D01*
X165924047Y-98836339D01*
X165861808Y-98900786D01*
X165802088Y-98966683D01*
X165748678Y-99030232D01*
X165705367Y-99087636D01*
X165704545Y-99088817D01*
X165687817Y-99114847D01*
X165677281Y-99139269D01*
X165671562Y-99169108D01*
X165669286Y-99211388D01*
X165669079Y-99273134D01*
X165625204Y-99273134D01*
X165623032Y-99252183D01*
X165616086Y-99216992D01*
X165608407Y-99200417D01*
X165605634Y-99193983D01*
X165613430Y-99169344D01*
X165635286Y-99130745D01*
X165668647Y-99081662D01*
X165710958Y-99025569D01*
X165759666Y-98965940D01*
X165812215Y-98906251D01*
X165866052Y-98849975D01*
X165877496Y-98838601D01*
X165915124Y-98801749D01*
X165950606Y-98768323D01*
X165986599Y-98736261D01*
X166025759Y-98703504D01*
X166070743Y-98667992D01*
X166124209Y-98627663D01*
X166188813Y-98580459D01*
X166267211Y-98524319D01*
X166362061Y-98457183D01*
X166476020Y-98376991D01*
X166518548Y-98346970D01*
X166596936Y-98290951D01*
X166670590Y-98237487D01*
X166735246Y-98189710D01*
X166786642Y-98150755D01*
X166820516Y-98123755D01*
X166879100Y-98071688D01*
X166950988Y-98001906D01*
X167020476Y-97928887D01*
X167081400Y-97859143D01*
X167127596Y-97799190D01*
X167175899Y-97729733D01*
X167222909Y-97784653D01*
X167237386Y-97801084D01*
X167280489Y-97846762D01*
X167322015Y-97887235D01*
X167345835Y-97909102D01*
X167391494Y-97951250D01*
X167435186Y-97991808D01*
X167452911Y-98007613D01*
X167519101Y-98058464D01*
X167605925Y-98115158D01*
X167714860Y-98178619D01*
X167847381Y-98249769D01*
X167855773Y-98254138D01*
X167913241Y-98284308D01*
X167961873Y-98310262D01*
X167996763Y-98329358D01*
X168013005Y-98338954D01*
X168015557Y-98340652D01*
X168037618Y-98353588D01*
X168076966Y-98375723D01*
X168128953Y-98404463D01*
X168188931Y-98437212D01*
X168194210Y-98440080D01*
X168260138Y-98476315D01*
X168320245Y-98510397D01*
X168379157Y-98545164D01*
X168441500Y-98583453D01*
X168511900Y-98628100D01*
X168594982Y-98681943D01*
X168695373Y-98747819D01*
X168708092Y-98756240D01*
X168766465Y-98795727D01*
X168829949Y-98839765D01*
X168894038Y-98885111D01*
X168954230Y-98928525D01*
X169006019Y-98966765D01*
X169044900Y-98996591D01*
X169066369Y-99014762D01*
X169068694Y-99016980D01*
X169086629Y-99033578D01*
X169117405Y-99061806D01*
X169156023Y-99097075D01*
X169194952Y-99134145D01*
X169272737Y-99216695D01*
X169348378Y-99307080D01*
X169417211Y-99399240D01*
X169474569Y-99487111D01*
X169515788Y-99564631D01*
X169521432Y-99577302D01*
X169573563Y-99709886D01*
X169605949Y-99829133D01*
X169618729Y-99938866D01*
X169612043Y-100042908D01*
X169586032Y-100145081D01*
X169540835Y-100249209D01*
X169518429Y-100290629D01*
X169473105Y-100359905D01*
X169419675Y-100420746D01*
X169350166Y-100482931D01*
X169335353Y-100495545D01*
X169310145Y-100521413D01*
X169306926Y-100534536D01*
X169324847Y-100535034D01*
X169363062Y-100523028D01*
X169420725Y-100498639D01*
X169496990Y-100461988D01*
X169554732Y-100431978D01*
X169638896Y-100382336D01*
X169705497Y-100333571D01*
X169759723Y-100282133D01*
X169810457Y-100227125D01*
X169801582Y-100286749D01*
X169799795Y-100297831D01*
X169788399Y-100353240D01*
X169780624Y-100382841D01*
X169774542Y-100405998D01*
G37*
G36*
X173412326Y-96178508D02*
G01*
X173412326Y-96225664D01*
X173412326Y-96252164D01*
X173412326Y-98875638D01*
X173412325Y-98924176D01*
X173412258Y-99198013D01*
X173412095Y-99464551D01*
X173411841Y-99722590D01*
X173411500Y-99970931D01*
X173411077Y-100208372D01*
X173410576Y-100433715D01*
X173410003Y-100645759D01*
X173409361Y-100843303D01*
X173408656Y-101025149D01*
X173407891Y-101190095D01*
X173407072Y-101336942D01*
X173406203Y-101464489D01*
X173405288Y-101571537D01*
X173404332Y-101656886D01*
X173403341Y-101719335D01*
X173402317Y-101757685D01*
X173401267Y-101770735D01*
X173393653Y-101767469D01*
X173372588Y-101749463D01*
X173348179Y-101723081D01*
X173327988Y-101696805D01*
X173319577Y-101679117D01*
X173319297Y-101677127D01*
X173308988Y-101657126D01*
X173288430Y-101629315D01*
X173284236Y-101623918D01*
X173260012Y-101583643D01*
X173230613Y-101523266D01*
X173197759Y-101447254D01*
X173163171Y-101360073D01*
X173128567Y-101266190D01*
X173095668Y-101170072D01*
X173066194Y-101076183D01*
X173041864Y-100988992D01*
X173038335Y-100975962D01*
X173022994Y-100927602D01*
X173007309Y-100887364D01*
X172991716Y-100846620D01*
X172979518Y-100802492D01*
X172971159Y-100773987D01*
X172952895Y-100727390D01*
X172929130Y-100674514D01*
X172903569Y-100623128D01*
X172879921Y-100581004D01*
X172861892Y-100555913D01*
X172850263Y-100537752D01*
X172842582Y-100504426D01*
X172839397Y-100483557D01*
X172829332Y-100472247D01*
X172823601Y-100470389D01*
X172816082Y-100453477D01*
X172815157Y-100445527D01*
X172805261Y-100430289D01*
X172800534Y-100426371D01*
X172781724Y-100405208D01*
X172753487Y-100370259D01*
X172719914Y-100326499D01*
X172703244Y-100304922D01*
X172658579Y-100252110D01*
X172612833Y-100203874D01*
X172570308Y-100164326D01*
X172535305Y-100137580D01*
X172512124Y-100127751D01*
X172508282Y-100127256D01*
X172498085Y-100114841D01*
X172494667Y-100104858D01*
X172470347Y-100085945D01*
X172426584Y-100068947D01*
X172368030Y-100055450D01*
X172299337Y-100047041D01*
X172293957Y-100046633D01*
X172226653Y-100040250D01*
X172157474Y-100031812D01*
X172100589Y-100023031D01*
X172088306Y-100020688D01*
X172036315Y-100008991D01*
X171982085Y-99994563D01*
X171931219Y-99979183D01*
X171889321Y-99964626D01*
X171861992Y-99952671D01*
X171854835Y-99945092D01*
X171866518Y-99945135D01*
X171896805Y-99952464D01*
X171937961Y-99965840D01*
X171964467Y-99974714D01*
X172082044Y-100002844D01*
X172209611Y-100018043D01*
X172335889Y-100018810D01*
X172420972Y-100008317D01*
X172509414Y-99982357D01*
X172597738Y-99938758D01*
X172692585Y-99874841D01*
X172722068Y-99850751D01*
X172781704Y-99791758D01*
X172840802Y-99721880D01*
X172894260Y-99647894D01*
X172936971Y-99576576D01*
X172963833Y-99514704D01*
X172982893Y-99431756D01*
X172994038Y-99332531D01*
X172995713Y-99231512D01*
X172987174Y-99140635D01*
X172977103Y-99091108D01*
X172962988Y-99037924D01*
X172947755Y-98992341D01*
X172933476Y-98960492D01*
X172922225Y-98948512D01*
X172921066Y-98949199D01*
X172915326Y-98966543D01*
X172909287Y-99002501D01*
X172904082Y-99050703D01*
X172886228Y-99151481D01*
X172844444Y-99258728D01*
X172782559Y-99354001D01*
X172703240Y-99435483D01*
X172609154Y-99501355D01*
X172502967Y-99549802D01*
X172387348Y-99579005D01*
X172264962Y-99587146D01*
X172138477Y-99572410D01*
X172133173Y-99571241D01*
X172069725Y-99551442D01*
X171993818Y-99519798D01*
X171913296Y-99480144D01*
X171836003Y-99436315D01*
X171769783Y-99392146D01*
X171715366Y-99348359D01*
X171646456Y-99286607D01*
X171574514Y-99216955D01*
X171506505Y-99146169D01*
X171449394Y-99081011D01*
X171444008Y-99074312D01*
X171412149Y-99031527D01*
X171372166Y-98974179D01*
X171328634Y-98908948D01*
X171286126Y-98842513D01*
X171270876Y-98818157D01*
X171234217Y-98760134D01*
X171202644Y-98710877D01*
X171179111Y-98674976D01*
X171166576Y-98657015D01*
X171155753Y-98641020D01*
X171135499Y-98606481D01*
X171112727Y-98564266D01*
X171094708Y-98530467D01*
X171073754Y-98493615D01*
X171059544Y-98471517D01*
X171054055Y-98463156D01*
X171036466Y-98433143D01*
X171010478Y-98386893D01*
X170978596Y-98328887D01*
X170943324Y-98263606D01*
X170836615Y-98071060D01*
X170697966Y-97840435D01*
X170560234Y-97633375D01*
X170424314Y-97451277D01*
X170423715Y-97450527D01*
X170385413Y-97405625D01*
X170334487Y-97350156D01*
X170275973Y-97289185D01*
X170214905Y-97227776D01*
X170156320Y-97170995D01*
X170105251Y-97123907D01*
X170066734Y-97091576D01*
X170060721Y-97086960D01*
X170034448Y-97065811D01*
X170020360Y-97052834D01*
X170013251Y-97046798D01*
X169987769Y-97027956D01*
X169948737Y-97000310D01*
X169901111Y-96967411D01*
X169873840Y-96948740D01*
X169817672Y-96910069D01*
X169766531Y-96874603D01*
X169728863Y-96848189D01*
X169718991Y-96841396D01*
X169670015Y-96810621D01*
X169604491Y-96772476D01*
X169528170Y-96730169D01*
X169446802Y-96686907D01*
X169366137Y-96645897D01*
X169365901Y-96645780D01*
X169240023Y-96590764D01*
X169094908Y-96539777D01*
X168937728Y-96494870D01*
X168775659Y-96458093D01*
X168615874Y-96431495D01*
X168610312Y-96430776D01*
X168547951Y-96424678D01*
X168471303Y-96419824D01*
X168386184Y-96416308D01*
X168298412Y-96414225D01*
X168213802Y-96413669D01*
X168138173Y-96414734D01*
X168077341Y-96417516D01*
X168037123Y-96422107D01*
X167981742Y-96433052D01*
X168023873Y-96383324D01*
X168030684Y-96375356D01*
X168103899Y-96296038D01*
X168148801Y-96252164D01*
X172140339Y-96252164D01*
X172146964Y-96258789D01*
X172153589Y-96252164D01*
X172146964Y-96245539D01*
X172140339Y-96252164D01*
X168148801Y-96252164D01*
X168188544Y-96213331D01*
X168189871Y-96212148D01*
X171798673Y-96212148D01*
X171800259Y-96227872D01*
X171804244Y-96229945D01*
X171806790Y-96224217D01*
X171824424Y-96224217D01*
X171827587Y-96241950D01*
X171832110Y-96241745D01*
X171834390Y-96225664D01*
X171954841Y-96225664D01*
X171961466Y-96232289D01*
X171968091Y-96225664D01*
X171961466Y-96219039D01*
X171955945Y-96224560D01*
X171954841Y-96225664D01*
X171834390Y-96225664D01*
X171834546Y-96224560D01*
X171832424Y-96211536D01*
X171826541Y-96216555D01*
X171825855Y-96219039D01*
X171824424Y-96224217D01*
X171806790Y-96224217D01*
X171809092Y-96219039D01*
X171808136Y-96212025D01*
X171800259Y-96210206D01*
X171798673Y-96212148D01*
X168189871Y-96212148D01*
X168218411Y-96186696D01*
X171862092Y-96186696D01*
X171862436Y-96188019D01*
X171875342Y-96192539D01*
X171878973Y-96192000D01*
X171888591Y-96178508D01*
X171887551Y-96173715D01*
X171875342Y-96172665D01*
X171871376Y-96175384D01*
X171862092Y-96186696D01*
X168218411Y-96186696D01*
X168249002Y-96159415D01*
X172021090Y-96159415D01*
X172027715Y-96166040D01*
X172034340Y-96159415D01*
X172027715Y-96152790D01*
X172021090Y-96159415D01*
X168249002Y-96159415D01*
X168275723Y-96135586D01*
X168356535Y-96071153D01*
X168461569Y-95993791D01*
X168229420Y-95993791D01*
X167997271Y-95993791D01*
X167919014Y-96046793D01*
X167881021Y-96075003D01*
X167828792Y-96117752D01*
X167771361Y-96167741D01*
X167715726Y-96219041D01*
X167707062Y-96227282D01*
X167660584Y-96270690D01*
X167621445Y-96305953D01*
X167593536Y-96329631D01*
X167580748Y-96338288D01*
X167577282Y-96335254D01*
X167575468Y-96313576D01*
X167579664Y-96276849D01*
X167588897Y-96231989D01*
X167602193Y-96185914D01*
X167604353Y-96179382D01*
X167618412Y-96130975D01*
X167628737Y-96086540D01*
X167629189Y-96084125D01*
X167637004Y-96045796D01*
X167643890Y-96016979D01*
X167645440Y-96008247D01*
X167637545Y-95996775D01*
X167609222Y-95993791D01*
X167574467Y-96000078D01*
X167543601Y-96016979D01*
X167531643Y-96031603D01*
X167508983Y-96067118D01*
X167482657Y-96113939D01*
X167456137Y-96165266D01*
X167432895Y-96214302D01*
X167416404Y-96254248D01*
X167410136Y-96278305D01*
X167405719Y-96293419D01*
X167386948Y-96291487D01*
X167380863Y-96289045D01*
X167350572Y-96277813D01*
X167305296Y-96261658D01*
X167252341Y-96243201D01*
X167244605Y-96240527D01*
X167161178Y-96210727D01*
X167079038Y-96179829D01*
X167004152Y-96150187D01*
X166942489Y-96124159D01*
X166900016Y-96104100D01*
X166891367Y-96099524D01*
X166836365Y-96069780D01*
X166786323Y-96041728D01*
X166747420Y-96018890D01*
X166725833Y-96004789D01*
X166715092Y-96001407D01*
X166681483Y-95997848D01*
X166632157Y-95996141D01*
X166573459Y-95996625D01*
X166436270Y-96000416D01*
X166568808Y-96115742D01*
X166611839Y-96151724D01*
X166712072Y-96227913D01*
X166824955Y-96305620D01*
X166942472Y-96379451D01*
X167056606Y-96444010D01*
X167080455Y-96457318D01*
X167107935Y-96475060D01*
X167118638Y-96485648D01*
X167108668Y-96489954D01*
X167078739Y-96493705D01*
X167035827Y-96495576D01*
X166988135Y-96496895D01*
X166930689Y-96500890D01*
X166869783Y-96508365D01*
X166797992Y-96520270D01*
X166707892Y-96537555D01*
X166673901Y-96544689D01*
X166467534Y-96603687D01*
X166267913Y-96688202D01*
X166075353Y-96798059D01*
X165890165Y-96933083D01*
X165712662Y-97093100D01*
X165659325Y-97147238D01*
X165564696Y-97251500D01*
X165485018Y-97353420D01*
X165415431Y-97460112D01*
X165351077Y-97578692D01*
X165287097Y-97716274D01*
X165286379Y-97717937D01*
X165272315Y-97755223D01*
X165255204Y-97806797D01*
X165238586Y-97862023D01*
X165221944Y-97919927D01*
X165201847Y-97988609D01*
X165184267Y-98047521D01*
X165171325Y-98091252D01*
X165155827Y-98145997D01*
X165144447Y-98188855D01*
X165142140Y-98197662D01*
X165127303Y-98243563D01*
X165111151Y-98281604D01*
X165097612Y-98315076D01*
X165091490Y-98346306D01*
X165089713Y-98363243D01*
X165080863Y-98386055D01*
X165078161Y-98390040D01*
X165066146Y-98415475D01*
X165052694Y-98451642D01*
X165043743Y-98476560D01*
X165019181Y-98535807D01*
X164988359Y-98602537D01*
X164969378Y-98640584D01*
X164954530Y-98670346D01*
X164920948Y-98732830D01*
X164890864Y-98783584D01*
X164867531Y-98816203D01*
X164855283Y-98830555D01*
X164834808Y-98857271D01*
X164826623Y-98872353D01*
X164824339Y-98877897D01*
X164804899Y-98897652D01*
X164770409Y-98924238D01*
X164726698Y-98953822D01*
X164679595Y-98982575D01*
X164634930Y-99006665D01*
X164598532Y-99022261D01*
X164565978Y-99031568D01*
X164462527Y-99043926D01*
X164356364Y-99033001D01*
X164254094Y-98999235D01*
X164205430Y-98973513D01*
X164163056Y-98945182D01*
X164136176Y-98920392D01*
X164132232Y-98915380D01*
X164110267Y-98891837D01*
X164095086Y-98882263D01*
X164088925Y-98889382D01*
X164089013Y-98915688D01*
X164096385Y-98955782D01*
X164109382Y-99003712D01*
X164126346Y-99053526D01*
X164145617Y-99099273D01*
X164165536Y-99135000D01*
X164203921Y-99177472D01*
X164272670Y-99223932D01*
X164360797Y-99261055D01*
X164464828Y-99287448D01*
X164581288Y-99301720D01*
X164617878Y-99303857D01*
X164668100Y-99304020D01*
X164703630Y-99296197D01*
X164731385Y-99276607D01*
X164758283Y-99241471D01*
X164791240Y-99187010D01*
X164805422Y-99164182D01*
X164820416Y-99144398D01*
X164826286Y-99143190D01*
X164826001Y-99148550D01*
X164816840Y-99177759D01*
X164794037Y-99217234D01*
X164756572Y-99268209D01*
X164703429Y-99331918D01*
X164677595Y-99360651D01*
X164633590Y-99409595D01*
X164546037Y-99502473D01*
X164439752Y-99611786D01*
X164372963Y-99680880D01*
X164246566Y-99820006D01*
X164139526Y-99950977D01*
X164094484Y-100013893D01*
X164049277Y-100077040D01*
X163973249Y-100201441D01*
X163952962Y-100238221D01*
X163909135Y-100324013D01*
X163878507Y-100397198D01*
X163865552Y-100441809D01*
X163859103Y-100464017D01*
X163857850Y-100472247D01*
X163853697Y-100499529D01*
X163848952Y-100530707D01*
X163846078Y-100603508D01*
X163846429Y-100635324D01*
X163850212Y-100703849D01*
X163859459Y-100766697D01*
X163875799Y-100827601D01*
X163900858Y-100890292D01*
X163936265Y-100958503D01*
X163983646Y-101035966D01*
X164044629Y-101126411D01*
X164116516Y-101227490D01*
X164120842Y-101233572D01*
X164148840Y-101273864D01*
X164155465Y-101283398D01*
X164198201Y-101355283D01*
X164227737Y-101424472D01*
X164246264Y-101498172D01*
X164255975Y-101583587D01*
X164259062Y-101687923D01*
X164259761Y-101729426D01*
X164262196Y-101778126D01*
X164265912Y-101811409D01*
X164270445Y-101823734D01*
X164271984Y-101823590D01*
X164291618Y-101810135D01*
X164319147Y-101778136D01*
X164324621Y-101770319D01*
X164362666Y-101770319D01*
X164363270Y-101775300D01*
X164375281Y-101783508D01*
X164396453Y-101772968D01*
X164411392Y-101762996D01*
X164461278Y-101745236D01*
X164537060Y-101731149D01*
X164638857Y-101720717D01*
X164766787Y-101713920D01*
X164846286Y-101711110D01*
X164850519Y-101585236D01*
X164850620Y-101524250D01*
X164846274Y-101451855D01*
X164837911Y-101385976D01*
X164826413Y-101333263D01*
X164812665Y-101300364D01*
X164810706Y-101296844D01*
X164802067Y-101271050D01*
X164793798Y-101234145D01*
X164791549Y-101222965D01*
X164782073Y-101190517D01*
X164772459Y-101173902D01*
X164770641Y-101171905D01*
X164761746Y-101150277D01*
X164750677Y-101111151D01*
X164739406Y-101061248D01*
X164738092Y-101054797D01*
X164725278Y-100996449D01*
X164711946Y-100942136D01*
X164700781Y-100902868D01*
X164686110Y-100840301D01*
X164676155Y-100755121D01*
X164672666Y-100659908D01*
X164675921Y-100562878D01*
X164686198Y-100472247D01*
X164692807Y-100433469D01*
X164713983Y-100325010D01*
X164736954Y-100227425D01*
X164759947Y-100148499D01*
X164760193Y-100147759D01*
X164767399Y-100118987D01*
X164766909Y-100103582D01*
X164765271Y-100102705D01*
X164748264Y-100109916D01*
X164718757Y-100133672D01*
X164679998Y-100170431D01*
X164635234Y-100216648D01*
X164587714Y-100268781D01*
X164540684Y-100323288D01*
X164497394Y-100376626D01*
X164461090Y-100425252D01*
X164435020Y-100465622D01*
X164426035Y-100481693D01*
X164406600Y-100520894D01*
X164395674Y-100556022D01*
X164390812Y-100597259D01*
X164389566Y-100654787D01*
X164389563Y-100655869D01*
X164392544Y-100731030D01*
X164403644Y-100798414D01*
X164425382Y-100873410D01*
X164432249Y-100893777D01*
X164448779Y-100940377D01*
X164461954Y-100974190D01*
X164469405Y-100988992D01*
X164478177Y-101002688D01*
X164490234Y-101039610D01*
X164501757Y-101092670D01*
X164512190Y-101156597D01*
X164520975Y-101226121D01*
X164527553Y-101295973D01*
X164531367Y-101360880D01*
X164531860Y-101415575D01*
X164528473Y-101454784D01*
X164520649Y-101473240D01*
X164517072Y-101476182D01*
X164514677Y-101491901D01*
X164515003Y-101500849D01*
X164501643Y-101519108D01*
X164489079Y-101531959D01*
X164484229Y-101555832D01*
X164505102Y-101581545D01*
X164515681Y-101590428D01*
X164520832Y-101597358D01*
X164505304Y-101593436D01*
X164494108Y-101593259D01*
X164474004Y-101605242D01*
X164461228Y-101624855D01*
X164463980Y-101642385D01*
X164464721Y-101643825D01*
X164457831Y-101659159D01*
X164437014Y-101682083D01*
X164433200Y-101685702D01*
X164411338Y-101710396D01*
X164402415Y-101727774D01*
X164400097Y-101735031D01*
X164382540Y-101749026D01*
X164373254Y-101754184D01*
X164362666Y-101770319D01*
X164324621Y-101770319D01*
X164351218Y-101732342D01*
X164384474Y-101677501D01*
X164415561Y-101618361D01*
X164446570Y-101546702D01*
X164483214Y-101417654D01*
X164494830Y-101287993D01*
X164494595Y-101278795D01*
X164487630Y-101218411D01*
X164472344Y-101142176D01*
X164450532Y-101057215D01*
X164423987Y-100970653D01*
X164394504Y-100889618D01*
X164387164Y-100870854D01*
X164371773Y-100825119D01*
X164362755Y-100781857D01*
X164358527Y-100731427D01*
X164357508Y-100664187D01*
X164358006Y-100609345D01*
X164360625Y-100562282D01*
X164366890Y-100526866D01*
X164378327Y-100495057D01*
X164396461Y-100458814D01*
X164399028Y-100454192D01*
X164428846Y-100410691D01*
X164476132Y-100352695D01*
X164538684Y-100282785D01*
X164614301Y-100203541D01*
X164615204Y-100202620D01*
X164672239Y-100143264D01*
X164723480Y-100087790D01*
X164765672Y-100039893D01*
X164795560Y-100003267D01*
X164809887Y-99981606D01*
X164818818Y-99962585D01*
X164831364Y-99944588D01*
X164837266Y-99947335D01*
X164833465Y-99972065D01*
X164833173Y-99973157D01*
X164824097Y-100007642D01*
X164813582Y-100048251D01*
X164810059Y-100061896D01*
X164798922Y-100104658D01*
X164784338Y-100160363D01*
X164768533Y-100220500D01*
X164735189Y-100364748D01*
X164714018Y-100505077D01*
X164707162Y-100636137D01*
X164707725Y-100671782D01*
X164713263Y-100761618D01*
X164723781Y-100850812D01*
X164738121Y-100930759D01*
X164755127Y-100992854D01*
X164758105Y-101001403D01*
X164774170Y-101053033D01*
X164786854Y-101101616D01*
X164787258Y-101103395D01*
X164798136Y-101143694D01*
X164814643Y-101197102D01*
X164833370Y-101252563D01*
X164843736Y-101282972D01*
X164883186Y-101438452D01*
X164891254Y-101524250D01*
X164897211Y-101587591D01*
X164885596Y-101731770D01*
X164848129Y-101872370D01*
X164784595Y-102010772D01*
X164694781Y-102148356D01*
X164666378Y-102187907D01*
X164631030Y-102240262D01*
X164595157Y-102295972D01*
X164561858Y-102349995D01*
X164534234Y-102397286D01*
X164515386Y-102432803D01*
X164508414Y-102451502D01*
X164507829Y-102457061D01*
X164496277Y-102480265D01*
X164494263Y-102482888D01*
X164484354Y-102507491D01*
X164476308Y-102543587D01*
X164475233Y-102550140D01*
X164466621Y-102588951D01*
X164457095Y-102616461D01*
X164449981Y-102637983D01*
X164443444Y-102682723D01*
X164440272Y-102740199D01*
X164440202Y-102804814D01*
X164442968Y-102870967D01*
X164448306Y-102933060D01*
X164455950Y-102985494D01*
X164465635Y-103022669D01*
X164477096Y-103038987D01*
X164478569Y-103039267D01*
X164492916Y-103029064D01*
X164506671Y-103002276D01*
X164530790Y-102952205D01*
X164574670Y-102887036D01*
X164638249Y-102807769D01*
X164722020Y-102713794D01*
X164826474Y-102604497D01*
X164834730Y-102596067D01*
X164892714Y-102535934D01*
X164944753Y-102480427D01*
X164987645Y-102433072D01*
X165018189Y-102397394D01*
X165033183Y-102376916D01*
X165050511Y-102348374D01*
X165060143Y-102344047D01*
X165062368Y-102364454D01*
X165057512Y-102410041D01*
X165051598Y-102452920D01*
X165046713Y-102493001D01*
X165042715Y-102533834D01*
X165039055Y-102581846D01*
X165035182Y-102643468D01*
X165030547Y-102725127D01*
X165028973Y-102754425D01*
X165026360Y-102817486D01*
X165026480Y-102862561D01*
X165029806Y-102895798D01*
X165036811Y-102923343D01*
X165047968Y-102951340D01*
X165054478Y-102965505D01*
X165097937Y-103041715D01*
X165158568Y-103122630D01*
X165239367Y-103212332D01*
X165255757Y-103229536D01*
X165287554Y-103264133D01*
X165308560Y-103288787D01*
X165314878Y-103299025D01*
X165314026Y-103299500D01*
X165305041Y-103302838D01*
X165284648Y-103309140D01*
X165249315Y-103319442D01*
X165195513Y-103334776D01*
X165119711Y-103356177D01*
X165093456Y-103364365D01*
X165044554Y-103383056D01*
X165007088Y-103401531D01*
X165002593Y-103404203D01*
X164969635Y-103420312D01*
X164945279Y-103426919D01*
X164942892Y-103427169D01*
X164918503Y-103435172D01*
X164877620Y-103452388D01*
X164825950Y-103476028D01*
X164769200Y-103503302D01*
X164713076Y-103531421D01*
X164663284Y-103557597D01*
X164625531Y-103579041D01*
X164605523Y-103592964D01*
X164604716Y-103593775D01*
X164593680Y-103608708D01*
X164603529Y-103613048D01*
X164606354Y-103613731D01*
X164598759Y-103620122D01*
X164572665Y-103630910D01*
X164550428Y-103637339D01*
X164502753Y-103641813D01*
X164440167Y-103636321D01*
X164414562Y-103633388D01*
X164336979Y-103634464D01*
X164275313Y-103651938D01*
X164232525Y-103685117D01*
X164224712Y-103693223D01*
X164192301Y-103716277D01*
X164151874Y-103736416D01*
X164116418Y-103748756D01*
X164085364Y-103752187D01*
X164055801Y-103744088D01*
X164022895Y-103735291D01*
X164000376Y-103743238D01*
X163989799Y-103749620D01*
X163973745Y-103749124D01*
X163970412Y-103748775D01*
X163958455Y-103763042D01*
X163944104Y-103793165D01*
X163923106Y-103831457D01*
X163877997Y-103870477D01*
X163869661Y-103875215D01*
X163843297Y-103894381D01*
X163832671Y-103909440D01*
X163832641Y-103910029D01*
X163820764Y-103925179D01*
X163793879Y-103941165D01*
X163783534Y-103946218D01*
X163745072Y-103969291D01*
X163705933Y-103997399D01*
X163690064Y-104009617D01*
X163662311Y-104028871D01*
X163646958Y-104036462D01*
X163635758Y-104046333D01*
X163622904Y-104073578D01*
X163612682Y-104108785D01*
X163608534Y-104142461D01*
X163608069Y-104153918D01*
X163605739Y-104188335D01*
X163601963Y-104237023D01*
X163597321Y-104293199D01*
X163592391Y-104350081D01*
X163587753Y-104400888D01*
X163583986Y-104438837D01*
X163581668Y-104457146D01*
X163570108Y-104458774D01*
X163538808Y-104459992D01*
X163494799Y-104460458D01*
X163408675Y-104460458D01*
X163408675Y-103202107D01*
X163408675Y-101943757D01*
X163498112Y-101945823D01*
X163505714Y-101945923D01*
X163561373Y-101942828D01*
X163629412Y-101932763D01*
X163712916Y-101915089D01*
X163814973Y-101889163D01*
X163938670Y-101854346D01*
X163966962Y-101846741D01*
X164020222Y-101834967D01*
X164063940Y-101828209D01*
X164066341Y-101827975D01*
X164116923Y-101820572D01*
X164165587Y-101810034D01*
X164214840Y-101796772D01*
X164219819Y-101694317D01*
X164220580Y-101592847D01*
X164211734Y-101506879D01*
X164193321Y-101442786D01*
X164165624Y-101402092D01*
X164159305Y-101396396D01*
X164144866Y-101381493D01*
X164147355Y-101379687D01*
X164156857Y-101381824D01*
X164163586Y-101371997D01*
X164158984Y-101352844D01*
X164143739Y-101333237D01*
X164138715Y-101329171D01*
X164128540Y-101324627D01*
X164132970Y-101341552D01*
X164135167Y-101347621D01*
X164136357Y-101359279D01*
X164122117Y-101350166D01*
X164108714Y-101342558D01*
X164091491Y-101343541D01*
X164086873Y-101342933D01*
X164089942Y-101324650D01*
X164092553Y-101315194D01*
X164090436Y-101301334D01*
X164069478Y-101303592D01*
X164063895Y-101304959D01*
X164047061Y-101304665D01*
X164048643Y-101289244D01*
X164051085Y-101277086D01*
X164048710Y-101273864D01*
X164071168Y-101273864D01*
X164077793Y-101280489D01*
X164084418Y-101273864D01*
X164077793Y-101267239D01*
X164071168Y-101273864D01*
X164048710Y-101273864D01*
X164043826Y-101267239D01*
X164031325Y-101261908D01*
X164019350Y-101239767D01*
X164017924Y-101220599D01*
X164047500Y-101220599D01*
X164049085Y-101236323D01*
X164053071Y-101238396D01*
X164057919Y-101227490D01*
X164056962Y-101220475D01*
X164049085Y-101218657D01*
X164047500Y-101220599D01*
X164017924Y-101220599D01*
X164017183Y-101210635D01*
X164027125Y-101185743D01*
X164028304Y-101184362D01*
X164036404Y-101162682D01*
X164024051Y-101150372D01*
X163996793Y-101153358D01*
X163983452Y-101154524D01*
X163984034Y-101137925D01*
X163985525Y-101124968D01*
X163977643Y-101094215D01*
X163959987Y-101063803D01*
X163938125Y-101042143D01*
X163917629Y-101037648D01*
X163913423Y-101039142D01*
X163901592Y-101037764D01*
X163904909Y-101017496D01*
X163907848Y-100999411D01*
X163899813Y-100988992D01*
X163892206Y-100992493D01*
X163884624Y-101012179D01*
X163882673Y-101023974D01*
X163876747Y-101018359D01*
X163875199Y-101008400D01*
X163884012Y-100984366D01*
X163888717Y-100973704D01*
X163884574Y-100947490D01*
X163865160Y-100905488D01*
X163855674Y-100885911D01*
X163835728Y-100832656D01*
X163824016Y-100783795D01*
X163821048Y-100765685D01*
X163813264Y-100735799D01*
X163805522Y-100723995D01*
X163800349Y-100712637D01*
X163796340Y-100681518D01*
X163794562Y-100637568D01*
X163792707Y-100594641D01*
X163787625Y-100553012D01*
X163780563Y-100528256D01*
X163772119Y-100517452D01*
X163766824Y-100521934D01*
X163764390Y-100529073D01*
X163747287Y-100537611D01*
X163724884Y-100535629D01*
X163710432Y-100522901D01*
X163705169Y-100515582D01*
X163686140Y-100519386D01*
X163677357Y-100524716D01*
X163657027Y-100532982D01*
X163627298Y-100536840D01*
X163621291Y-100539525D01*
X163611083Y-100560165D01*
X163607195Y-100593134D01*
X163610165Y-100628854D01*
X163620529Y-100657745D01*
X163623913Y-100677977D01*
X163604416Y-100699558D01*
X163597808Y-100704817D01*
X163584097Y-100722808D01*
X163591211Y-100740300D01*
X163596084Y-100755237D01*
X163592854Y-100788626D01*
X163580827Y-100829037D01*
X163574804Y-100842462D01*
X163563267Y-100868178D01*
X163543440Y-100897752D01*
X163524611Y-100909467D01*
X163512255Y-100906338D01*
X163501424Y-100889202D01*
X163497841Y-100877029D01*
X163478237Y-100860034D01*
X163462430Y-100850651D01*
X163501424Y-100850651D01*
X163501769Y-100851973D01*
X163514674Y-100856494D01*
X163518306Y-100855954D01*
X163527924Y-100842462D01*
X163526883Y-100837669D01*
X163514674Y-100836619D01*
X163510709Y-100839338D01*
X163501424Y-100850651D01*
X163462430Y-100850651D01*
X163458439Y-100848282D01*
X163432303Y-100824013D01*
X163429994Y-100820517D01*
X163427383Y-100813854D01*
X163425003Y-100803499D01*
X163422842Y-100788314D01*
X163420890Y-100767156D01*
X163419136Y-100738886D01*
X163417568Y-100702364D01*
X163416177Y-100656448D01*
X163414951Y-100599999D01*
X163413880Y-100531876D01*
X163413415Y-100491340D01*
X163514674Y-100491340D01*
X163516296Y-100501212D01*
X163527924Y-100511997D01*
X163531067Y-100511640D01*
X163541174Y-100499529D01*
X163540668Y-100495812D01*
X163527924Y-100478872D01*
X163521097Y-100477626D01*
X163514674Y-100491340D01*
X163413415Y-100491340D01*
X163413117Y-100465356D01*
X163782502Y-100465356D01*
X163784088Y-100481081D01*
X163788073Y-100483153D01*
X163792921Y-100472247D01*
X163791965Y-100465233D01*
X163784088Y-100463414D01*
X163782502Y-100465356D01*
X163413117Y-100465356D01*
X163412952Y-100450938D01*
X163412874Y-100441573D01*
X163721112Y-100441573D01*
X163739922Y-100443655D01*
X163758149Y-100441809D01*
X163756484Y-100436972D01*
X163750486Y-100435222D01*
X163723359Y-100436972D01*
X163721112Y-100441573D01*
X163412874Y-100441573D01*
X163412157Y-100356046D01*
X163411484Y-100246058D01*
X163410921Y-100119834D01*
X163410660Y-100038738D01*
X163925552Y-100038738D01*
X163935840Y-100050722D01*
X163959521Y-100066233D01*
X163992775Y-100064881D01*
X164023857Y-100038445D01*
X164026073Y-100035444D01*
X164041168Y-100013893D01*
X164040429Y-100008514D01*
X164023857Y-100014662D01*
X164002244Y-100021664D01*
X163965169Y-100028532D01*
X163955940Y-100029394D01*
X163930598Y-100032880D01*
X163925552Y-100038738D01*
X163410660Y-100038738D01*
X163410459Y-99976235D01*
X163410086Y-99814118D01*
X163409792Y-99632345D01*
X163409565Y-99429774D01*
X163409395Y-99205265D01*
X163409359Y-99133610D01*
X163690851Y-99133610D01*
X163696663Y-99164726D01*
X163704168Y-99175397D01*
X163729362Y-99201627D01*
X163766405Y-99235718D01*
X163810094Y-99273348D01*
X163855222Y-99310193D01*
X163896585Y-99341932D01*
X163928979Y-99364241D01*
X163947199Y-99372798D01*
X163957524Y-99378534D01*
X163984128Y-99399688D01*
X164022257Y-99432915D01*
X164067998Y-99474500D01*
X164117439Y-99520732D01*
X164166665Y-99567896D01*
X164211765Y-99612278D01*
X164248823Y-99650167D01*
X164273928Y-99677847D01*
X164283166Y-99691606D01*
X164283324Y-99693738D01*
X164293311Y-99703755D01*
X164304156Y-99697242D01*
X164330406Y-99674573D01*
X164367618Y-99639329D01*
X164412074Y-99595352D01*
X164460057Y-99546485D01*
X164507848Y-99496570D01*
X164551729Y-99449451D01*
X164587982Y-99408970D01*
X164612890Y-99378968D01*
X164622734Y-99363290D01*
X164623056Y-99360651D01*
X164619370Y-99347070D01*
X164601076Y-99340070D01*
X164562248Y-99337087D01*
X164543444Y-99335974D01*
X164454555Y-99321022D01*
X164362311Y-99292119D01*
X164274170Y-99252500D01*
X164197591Y-99205397D01*
X164140034Y-99154045D01*
X164136681Y-99150324D01*
X164113649Y-99131147D01*
X164097435Y-99127530D01*
X164091896Y-99128867D01*
X164091921Y-99116625D01*
X164087906Y-99101305D01*
X164063780Y-99089617D01*
X164024936Y-99083198D01*
X163977269Y-99082506D01*
X163926674Y-99087997D01*
X163879045Y-99100128D01*
X163872209Y-99102357D01*
X163821737Y-99111993D01*
X163773046Y-99112608D01*
X163747831Y-99110650D01*
X163707863Y-99115615D01*
X163690851Y-99133610D01*
X163409359Y-99133610D01*
X163409270Y-98957677D01*
X163409208Y-98766803D01*
X164654851Y-98766803D01*
X164657928Y-98790060D01*
X164664657Y-98811071D01*
X164675352Y-98835888D01*
X164681343Y-98849693D01*
X164694220Y-98882287D01*
X164699732Y-98901034D01*
X164699927Y-98903001D01*
X164711237Y-98916886D01*
X164736019Y-98912252D01*
X164769914Y-98889798D01*
X164790720Y-98868651D01*
X164823341Y-98828824D01*
X164859402Y-98780146D01*
X164893762Y-98729886D01*
X164921283Y-98685315D01*
X164936825Y-98653703D01*
X164939059Y-98640584D01*
X164931844Y-98630515D01*
X164931076Y-98630444D01*
X164912694Y-98622151D01*
X164879875Y-98602761D01*
X164839171Y-98576120D01*
X164804611Y-98554326D01*
X164754685Y-98529658D01*
X164716760Y-98519808D01*
X164674038Y-98517892D01*
X164664285Y-98623890D01*
X164658385Y-98689340D01*
X164655109Y-98735247D01*
X164654851Y-98766803D01*
X163409208Y-98766803D01*
X163409181Y-98685871D01*
X163409116Y-98388705D01*
X163408675Y-95980542D01*
X168410501Y-95980542D01*
X173412326Y-95980542D01*
X173412326Y-96159415D01*
X173412326Y-96178508D01*
G37*
G36*
X168333210Y-103616883D02*
G01*
X168335283Y-103620868D01*
X168324377Y-103625716D01*
X168317362Y-103624760D01*
X168315543Y-103616883D01*
X168317485Y-103615297D01*
X168333210Y-103616883D01*
G37*
G36*
X167966630Y-103546217D02*
G01*
X167965674Y-103553231D01*
X167957797Y-103555050D01*
X167956211Y-103553108D01*
X167957797Y-103537384D01*
X167961782Y-103535311D01*
X167966630Y-103546217D01*
G37*
G36*
X168436149Y-103523601D02*
G01*
X168429541Y-103535966D01*
X168419685Y-103539943D01*
X168418266Y-103533556D01*
X168428731Y-103516184D01*
X168430476Y-103514472D01*
X168440183Y-103508122D01*
X168436149Y-103523601D01*
G37*
G36*
X168470125Y-103499842D02*
G01*
X168463500Y-103506467D01*
X168456875Y-103499842D01*
X168463500Y-103493218D01*
X168470125Y-103499842D01*
G37*
G36*
X168213961Y-103418135D02*
G01*
X168216034Y-103422120D01*
X168205128Y-103426968D01*
X168198113Y-103426012D01*
X168196295Y-103418135D01*
X168198237Y-103416549D01*
X168213961Y-103418135D01*
G37*
G36*
X165555154Y-103407093D02*
G01*
X165548529Y-103413718D01*
X165541904Y-103407093D01*
X165548529Y-103400468D01*
X165555154Y-103407093D01*
G37*
G36*
X165363796Y-103348065D02*
G01*
X165376281Y-103360719D01*
X165378749Y-103365410D01*
X165377845Y-103373969D01*
X165375515Y-103373373D01*
X165363031Y-103360719D01*
X165360563Y-103356028D01*
X165361467Y-103347469D01*
X165363796Y-103348065D01*
G37*
G36*
X167873881Y-103354094D02*
G01*
X167867256Y-103360719D01*
X167860631Y-103354094D01*
X167867256Y-103347469D01*
X167873881Y-103354094D01*
G37*
G36*
X167847381Y-103281220D02*
G01*
X167853628Y-103292570D01*
X167860225Y-103314344D01*
X167857880Y-103318325D01*
X167847381Y-103307719D01*
X167841134Y-103296369D01*
X167834537Y-103274595D01*
X167836882Y-103270614D01*
X167847381Y-103281220D01*
G37*
G36*
X167489635Y-103241470D02*
G01*
X167488679Y-103248484D01*
X167480802Y-103250303D01*
X167479216Y-103248361D01*
X167480802Y-103232637D01*
X167484787Y-103230564D01*
X167489635Y-103241470D01*
G37*
G36*
X165475655Y-103214970D02*
G01*
X165474698Y-103221985D01*
X165466821Y-103223804D01*
X165465236Y-103221862D01*
X165466821Y-103206137D01*
X165470807Y-103204064D01*
X165475655Y-103214970D01*
G37*
G36*
X167476385Y-103195095D02*
G01*
X167469760Y-103201720D01*
X167463135Y-103195095D01*
X167469760Y-103188471D01*
X167476385Y-103195095D01*
G37*
G36*
X167052389Y-103195095D02*
G01*
X167045764Y-103201720D01*
X167039139Y-103195095D01*
X167045764Y-103188471D01*
X167052389Y-103195095D01*
G37*
G36*
X165462405Y-103168596D02*
G01*
X165455780Y-103175221D01*
X165449155Y-103168596D01*
X165455780Y-103161971D01*
X165462405Y-103168596D01*
G37*
G36*
X166986140Y-102877099D02*
G01*
X166979515Y-102883724D01*
X166972890Y-102877099D01*
X166979515Y-102870474D01*
X166986140Y-102877099D01*
G37*
G36*
X172955206Y-102297659D02*
G01*
X172967363Y-102306643D01*
X173074392Y-102385245D01*
X173162743Y-102449102D01*
X173234419Y-102499630D01*
X173291424Y-102538243D01*
X173335764Y-102566357D01*
X173411575Y-102612101D01*
X173411361Y-102718100D01*
X173411134Y-102760487D01*
X173409870Y-102794639D01*
X173406449Y-102809053D01*
X173399724Y-102807544D01*
X173388549Y-102793924D01*
X173388149Y-102793389D01*
X173368455Y-102767246D01*
X173339116Y-102728459D01*
X173306328Y-102685220D01*
X173272949Y-102640519D01*
X173238949Y-102593663D01*
X173213578Y-102557301D01*
X173187198Y-102521858D01*
X173138058Y-102465985D01*
X173084344Y-102413366D01*
X173035376Y-102373604D01*
X173024596Y-102365788D01*
X172987260Y-102335904D01*
X172949667Y-102302788D01*
X172902207Y-102258472D01*
X172955206Y-102297659D01*
G37*
G36*
X167050297Y-102790974D02*
G01*
X167048450Y-102809201D01*
X167043614Y-102807537D01*
X167041864Y-102801539D01*
X167043614Y-102774412D01*
X167048215Y-102772165D01*
X167050297Y-102790974D01*
G37*
G36*
X166926584Y-102668356D02*
G01*
X166934945Y-102688288D01*
X166936749Y-102718100D01*
X166942491Y-102688288D01*
X166943370Y-102684136D01*
X166954756Y-102660099D01*
X166968935Y-102658373D01*
X166981025Y-102676363D01*
X166986140Y-102711475D01*
X166986445Y-102723346D01*
X166990628Y-102752717D01*
X166998149Y-102764475D01*
X167003972Y-102769846D01*
X167003229Y-102790974D01*
X166996965Y-102806447D01*
X166984594Y-102817474D01*
X166977797Y-102812515D01*
X166972890Y-102790974D01*
X166970405Y-102775572D01*
X166959640Y-102764475D01*
X166953545Y-102762232D01*
X166946390Y-102744600D01*
X166944895Y-102735457D01*
X166933140Y-102724725D01*
X166927045Y-102722483D01*
X166919890Y-102704850D01*
X166918396Y-102695707D01*
X166906641Y-102684976D01*
X166903473Y-102684590D01*
X166893391Y-102671726D01*
X166896816Y-102660739D01*
X166910695Y-102657905D01*
X166926584Y-102668356D01*
G37*
G36*
X163440140Y-101484156D02*
G01*
X163448425Y-101505737D01*
X163444736Y-101521191D01*
X163428550Y-101532237D01*
X163416960Y-101527318D01*
X163408675Y-101505737D01*
X163412364Y-101490284D01*
X163428550Y-101479237D01*
X163440140Y-101484156D01*
G37*
G36*
X164119751Y-101377655D02*
G01*
X164121824Y-101381640D01*
X164110918Y-101386488D01*
X164103904Y-101385532D01*
X164102085Y-101377655D01*
X164104027Y-101376069D01*
X164119751Y-101377655D01*
G37*
G36*
X164013752Y-101271656D02*
G01*
X164015825Y-101275641D01*
X164004919Y-101280489D01*
X163997905Y-101279533D01*
X163996086Y-101271656D01*
X163998028Y-101270070D01*
X164013752Y-101271656D01*
G37*
G36*
X164031419Y-101167865D02*
G01*
X164024794Y-101174490D01*
X164018169Y-101167865D01*
X164024794Y-101161241D01*
X164031419Y-101167865D01*
G37*
G36*
X170020360Y-101054460D02*
G01*
X170019851Y-101058306D01*
X170007110Y-101068491D01*
X170004111Y-101068340D01*
X169993860Y-101062648D01*
X169994470Y-101060523D01*
X170007110Y-101048617D01*
X170012243Y-101046546D01*
X170020360Y-101054460D01*
G37*
G36*
X163938670Y-101061866D02*
G01*
X163932045Y-101068491D01*
X163925420Y-101061866D01*
X163932045Y-101055242D01*
X163938670Y-101061866D01*
G37*
G36*
X163898920Y-101061866D02*
G01*
X163892295Y-101068491D01*
X163885670Y-101061866D01*
X163892295Y-101055242D01*
X163898920Y-101061866D01*
G37*
G36*
X165508823Y-100824192D02*
G01*
X165536620Y-100836300D01*
X165571526Y-100850246D01*
X165604059Y-100856412D01*
X165622711Y-100858779D01*
X165640393Y-100868312D01*
X165640545Y-100871097D01*
X165625555Y-100873093D01*
X165593084Y-100867859D01*
X165559253Y-100858958D01*
X165521133Y-100845260D01*
X165496860Y-100832052D01*
X165492423Y-100822058D01*
X165492916Y-100821705D01*
X165508823Y-100824192D01*
G37*
G36*
X163812503Y-100832522D02*
G01*
X163819421Y-100850651D01*
X163817514Y-100860115D01*
X163806171Y-100863118D01*
X163802552Y-100860406D01*
X163792921Y-100842462D01*
X163793300Y-100839504D01*
X163806171Y-100829994D01*
X163812503Y-100832522D01*
G37*
G36*
X165378000Y-100765951D02*
G01*
X165408859Y-100780137D01*
X165442166Y-100799580D01*
X165456854Y-100810851D01*
X165458302Y-100816744D01*
X165457040Y-100816702D01*
X165432149Y-100809978D01*
X165398601Y-100795516D01*
X165367651Y-100778720D01*
X165350554Y-100764996D01*
X165349642Y-100763173D01*
X165356093Y-100759478D01*
X165378000Y-100765951D01*
G37*
G36*
X170470855Y-100757119D02*
G01*
X170464231Y-100763744D01*
X170457606Y-100757119D01*
X170464231Y-100750495D01*
X170470855Y-100757119D01*
G37*
G36*
X165256986Y-100391728D02*
G01*
X165257914Y-100426393D01*
X165257882Y-100485497D01*
X165257929Y-100535780D01*
X165259726Y-100585648D01*
X165264459Y-100620625D01*
X165273161Y-100647374D01*
X165286863Y-100672559D01*
X165294138Y-100684543D01*
X165310235Y-100713659D01*
X165316656Y-100729653D01*
X165315183Y-100734855D01*
X165304483Y-100731203D01*
X165287552Y-100712078D01*
X165269333Y-100682411D01*
X165258489Y-100653068D01*
X165247366Y-100596815D01*
X165241266Y-100530608D01*
X165240945Y-100463864D01*
X165247156Y-100405998D01*
X165251140Y-100387510D01*
X165254820Y-100379451D01*
X165256986Y-100391728D01*
G37*
G36*
X170219108Y-100677620D02*
G01*
X170212483Y-100684245D01*
X170205858Y-100677620D01*
X170212483Y-100670995D01*
X170219108Y-100677620D01*
G37*
G36*
X170590104Y-100545122D02*
G01*
X170583479Y-100551747D01*
X170576854Y-100545122D01*
X170583479Y-100538497D01*
X170590104Y-100545122D01*
G37*
G36*
X170599691Y-100159917D02*
G01*
X170594669Y-100189124D01*
X170591542Y-100200221D01*
X170584747Y-100213890D01*
X170579654Y-100203163D01*
X170578319Y-100191348D01*
X170580934Y-100165566D01*
X170588394Y-100146555D01*
X170597686Y-100144166D01*
X170599691Y-100159917D01*
G37*
G36*
X171822342Y-99922378D02*
G01*
X171815717Y-99929003D01*
X171809092Y-99922378D01*
X171815717Y-99915753D01*
X171822342Y-99922378D01*
G37*
G36*
X171742843Y-99890317D02*
G01*
X171766638Y-99902229D01*
X171781488Y-99910923D01*
X171785165Y-99917457D01*
X171773704Y-99915514D01*
X171754403Y-99907144D01*
X171735438Y-99895147D01*
X171720925Y-99883171D01*
X171720843Y-99880343D01*
X171742843Y-99890317D01*
G37*
G36*
X171568003Y-99764445D02*
G01*
X171577626Y-99774195D01*
X171604356Y-99796094D01*
X171640156Y-99822620D01*
X171667627Y-99842540D01*
X171693216Y-99862273D01*
X171703093Y-99871624D01*
X171701735Y-99875335D01*
X171688813Y-99872913D01*
X171660467Y-99855254D01*
X171614544Y-99821132D01*
X171613345Y-99820206D01*
X171579168Y-99791902D01*
X171556826Y-99769787D01*
X171551103Y-99758579D01*
X171554652Y-99756694D01*
X171568003Y-99764445D01*
G37*
G36*
X170495263Y-99544756D02*
G01*
X170493416Y-99562983D01*
X170488580Y-99561319D01*
X170486830Y-99555321D01*
X170488580Y-99528194D01*
X170493181Y-99525947D01*
X170495263Y-99544756D01*
G37*
G36*
X170484105Y-99491757D02*
G01*
X170483149Y-99498771D01*
X170475272Y-99500590D01*
X170473686Y-99498648D01*
X170475272Y-99482924D01*
X170479257Y-99480851D01*
X170484105Y-99491757D01*
G37*
G36*
X165475655Y-99452007D02*
G01*
X165474698Y-99459022D01*
X165466821Y-99460841D01*
X165465236Y-99458899D01*
X165466821Y-99443174D01*
X165470807Y-99441101D01*
X165475655Y-99452007D01*
G37*
G36*
X165496795Y-99410211D02*
G01*
X165495034Y-99412908D01*
X165481943Y-99425110D01*
X165475655Y-99419665D01*
X165476839Y-99416684D01*
X165490952Y-99404368D01*
X165498356Y-99401144D01*
X165496795Y-99410211D01*
G37*
G36*
X165538908Y-99298986D02*
G01*
X165537504Y-99315667D01*
X165527182Y-99344536D01*
X165514470Y-99369212D01*
X165504936Y-99378307D01*
X165504504Y-99365412D01*
X165515404Y-99332759D01*
X165517171Y-99328608D01*
X165529914Y-99304792D01*
X165538510Y-99298448D01*
X165538908Y-99298986D01*
G37*
G36*
X165586380Y-99222879D02*
G01*
X165579217Y-99246690D01*
X165567193Y-99268025D01*
X165558417Y-99274189D01*
X165556227Y-99268943D01*
X165559430Y-99247433D01*
X165569933Y-99224312D01*
X165582262Y-99213510D01*
X165586380Y-99222879D01*
G37*
G36*
X167196807Y-97326507D02*
G01*
X167196869Y-97338159D01*
X167194274Y-97371958D01*
X167188476Y-97390272D01*
X167185787Y-97392665D01*
X167176413Y-97391148D01*
X167175501Y-97367556D01*
X167183260Y-97324514D01*
X167195476Y-97272404D01*
X167196807Y-97326507D01*
G37*
G36*
X167209295Y-97239279D02*
G01*
X167207448Y-97257506D01*
X167202612Y-97255841D01*
X167200862Y-97249844D01*
X167202612Y-97222717D01*
X167207213Y-97220469D01*
X167209295Y-97239279D01*
G37*
G36*
X167245534Y-97086906D02*
G01*
X167237818Y-97112069D01*
X167228678Y-97149842D01*
X167221827Y-97174950D01*
X167214882Y-97186280D01*
X167211778Y-97177864D01*
X167214435Y-97152951D01*
X167221642Y-97120896D01*
X167231190Y-97091273D01*
X167240868Y-97073656D01*
X167249332Y-97069668D01*
X167245534Y-97086906D01*
G37*
G36*
X167263341Y-97019552D02*
G01*
X167262404Y-97032991D01*
X167256382Y-97036943D01*
X167253756Y-97032255D01*
X167255336Y-97011547D01*
X167260105Y-97005414D01*
X167263341Y-97019552D01*
G37*
G36*
X167276591Y-96966553D02*
G01*
X167275654Y-96979991D01*
X167269632Y-96983943D01*
X167267006Y-96979255D01*
X167268586Y-96958547D01*
X167273355Y-96952415D01*
X167276591Y-96966553D01*
G37*
G36*
X167336601Y-96821908D02*
G01*
X167331100Y-96838722D01*
X167320186Y-96874566D01*
X167314379Y-96887531D01*
X167307600Y-96885298D01*
X167307457Y-96884823D01*
X167310464Y-96862947D01*
X167324015Y-96832640D01*
X167327575Y-96826654D01*
X167337260Y-96813659D01*
X167336601Y-96821908D01*
G37*
G36*
X167388031Y-96709581D02*
G01*
X167387950Y-96722629D01*
X167377011Y-96749034D01*
X167375045Y-96752792D01*
X167360187Y-96778332D01*
X167351322Y-96788784D01*
X167350995Y-96788684D01*
X167352344Y-96776153D01*
X167361192Y-96749034D01*
X167361938Y-96747090D01*
X167375343Y-96720324D01*
X167386881Y-96709284D01*
X167388031Y-96709581D01*
G37*
G36*
X167131888Y-101874499D02*
G01*
X167135909Y-101893849D01*
X167151687Y-101911662D01*
X167160714Y-101916851D01*
X167165083Y-101929620D01*
X167163636Y-101939600D01*
X167179851Y-101954831D01*
X167219442Y-101971078D01*
X167283910Y-101989094D01*
X167383703Y-102004026D01*
X167506635Y-102002456D01*
X167647906Y-101982870D01*
X167675433Y-101977924D01*
X167714791Y-101971853D01*
X167738774Y-101969483D01*
X167744419Y-101969613D01*
X167755054Y-101973152D01*
X167743497Y-101980521D01*
X167712809Y-101990379D01*
X167666051Y-102001382D01*
X167634224Y-102007244D01*
X167545360Y-102017373D01*
X167453194Y-102020255D01*
X167363582Y-102016292D01*
X167282379Y-102005884D01*
X167215441Y-101989432D01*
X167168624Y-101967336D01*
X167146817Y-101948581D01*
X167121819Y-101914884D01*
X167111123Y-101882464D01*
X167118146Y-101858676D01*
X167128245Y-101855027D01*
X167131888Y-101874499D01*
G37*
G36*
X167925319Y-101746063D02*
G01*
X167950725Y-101763281D01*
X167967437Y-101794743D01*
X167969711Y-101831204D01*
X167967862Y-101838066D01*
X167944796Y-101873632D01*
X167901053Y-101911714D01*
X167840670Y-101948638D01*
X167839278Y-101949357D01*
X167806136Y-101963186D01*
X167781132Y-101968356D01*
X167778946Y-101964879D01*
X167794348Y-101953204D01*
X167826128Y-101936323D01*
X167856262Y-101920993D01*
X167903185Y-101889728D01*
X167931572Y-101855714D01*
X167946521Y-101813762D01*
X167950072Y-101791186D01*
X167945296Y-101770808D01*
X167924628Y-101758290D01*
X167921199Y-101756888D01*
X167906166Y-101748293D01*
X167916192Y-101745075D01*
X167925319Y-101746063D01*
G37*
G36*
X167576970Y-101790410D02*
G01*
X167601582Y-101792813D01*
X167602259Y-101797139D01*
X167596208Y-101799334D01*
X167561615Y-101806287D01*
X167519447Y-101809553D01*
X167488491Y-101810701D01*
X167468681Y-101817213D01*
X167465836Y-101835651D01*
X167475244Y-101872754D01*
X167475682Y-101874285D01*
X167481638Y-101902462D01*
X167473431Y-101914790D01*
X167445431Y-101920233D01*
X167443887Y-101920423D01*
X167409151Y-101923445D01*
X167368923Y-101925289D01*
X167329597Y-101925940D01*
X167297565Y-101925386D01*
X167279218Y-101923610D01*
X167280949Y-101920599D01*
X167283688Y-101919752D01*
X167299388Y-101903519D01*
X167304137Y-101867297D01*
X167304137Y-101820053D01*
X167222221Y-101827481D01*
X167183954Y-101829893D01*
X167159935Y-101828606D01*
X167159171Y-101823250D01*
X167180443Y-101815254D01*
X167220519Y-101807979D01*
X167280670Y-101801765D01*
X167363037Y-101796393D01*
X167469760Y-101791647D01*
X167530925Y-101790036D01*
X167576970Y-101790410D01*
G37*
G36*
X167251137Y-101923108D02*
G01*
X167244512Y-101929733D01*
X167237887Y-101923108D01*
X167244512Y-101916483D01*
X167251137Y-101923108D01*
G37*
G36*
X167827506Y-101760973D02*
G01*
X167781132Y-101770735D01*
X167777854Y-101771399D01*
X167730563Y-101777915D01*
X167681758Y-101780716D01*
X167628758Y-101780937D01*
X167681758Y-101769974D01*
X167686873Y-101768962D01*
X167735878Y-101762220D01*
X167781132Y-101759992D01*
X167827506Y-101760973D01*
G37*
G36*
X167856215Y-101748651D02*
G01*
X167858287Y-101752637D01*
X167847381Y-101757485D01*
X167840367Y-101756528D01*
X167838548Y-101748651D01*
X167840490Y-101747066D01*
X167856215Y-101748651D01*
G37*
G36*
X167318834Y-100811973D02*
G01*
X167343930Y-100829419D01*
X167377011Y-100858261D01*
X167308474Y-100850432D01*
X167289029Y-100848494D01*
X167207179Y-100848751D01*
X167142921Y-100865465D01*
X167093075Y-100899359D01*
X167062393Y-100944026D01*
X167052859Y-100996852D01*
X167065540Y-101051205D01*
X167099329Y-101102535D01*
X167153121Y-101146294D01*
X167173664Y-101159392D01*
X167200347Y-101179076D01*
X167210969Y-101191053D01*
X167210698Y-101195601D01*
X167204107Y-101200033D01*
X167184918Y-101193847D01*
X167147923Y-101175780D01*
X167082757Y-101131326D01*
X167039707Y-101076433D01*
X167020841Y-101013548D01*
X167027148Y-100944567D01*
X167045047Y-100901604D01*
X167075898Y-100858942D01*
X167112124Y-100828384D01*
X167147431Y-100816629D01*
X167159831Y-100816221D01*
X167198998Y-100813311D01*
X167244556Y-100808545D01*
X167248727Y-100808054D01*
X167290749Y-100805618D01*
X167318834Y-100811973D01*
G37*
G36*
X167354936Y-100663363D02*
G01*
X167363241Y-100664252D01*
X167409711Y-100671322D01*
X167453183Y-100682953D01*
X167499972Y-100701600D01*
X167556392Y-100729716D01*
X167628758Y-100769756D01*
X167666652Y-100789709D01*
X167708037Y-100806297D01*
X167754562Y-100818150D01*
X167813345Y-100827027D01*
X167891504Y-100834687D01*
X167899735Y-100835038D01*
X167947369Y-100830308D01*
X168006513Y-100817295D01*
X168067086Y-100798569D01*
X168119004Y-100776699D01*
X168123326Y-100774741D01*
X168161833Y-100765813D01*
X168215522Y-100761754D01*
X168275031Y-100762880D01*
X168331002Y-100769511D01*
X168331857Y-100769672D01*
X168371557Y-100779987D01*
X168424087Y-100797167D01*
X168478319Y-100817582D01*
X168478681Y-100817729D01*
X168553338Y-100845094D01*
X168613578Y-100859520D01*
X168667360Y-100862206D01*
X168722644Y-100854349D01*
X168733436Y-100852020D01*
X168805767Y-100837419D01*
X168857771Y-100829552D01*
X168894095Y-100828202D01*
X168919390Y-100833147D01*
X168938305Y-100844170D01*
X168952227Y-100856190D01*
X168954943Y-100864774D01*
X168939011Y-100870189D01*
X168900602Y-100875629D01*
X168882077Y-100878271D01*
X168830044Y-100887780D01*
X168786721Y-100898281D01*
X168773599Y-100901489D01*
X168720145Y-100907402D01*
X168654870Y-100907632D01*
X168587299Y-100902754D01*
X168526959Y-100893343D01*
X168483375Y-100879973D01*
X168483298Y-100879936D01*
X168433699Y-100859110D01*
X168375485Y-100838543D01*
X168316913Y-100820744D01*
X168266242Y-100808225D01*
X168231729Y-100803494D01*
X168219091Y-100804789D01*
X168180890Y-100812955D01*
X168129336Y-100826969D01*
X168071919Y-100844892D01*
X168026255Y-100859670D01*
X167976060Y-100873469D01*
X167933100Y-100880374D01*
X167887108Y-100881830D01*
X167827819Y-100879285D01*
X167807485Y-100877906D01*
X167747108Y-100870507D01*
X167691870Y-100856852D01*
X167635212Y-100834497D01*
X167570574Y-100800996D01*
X167491397Y-100753906D01*
X167473823Y-100744915D01*
X167421383Y-100728095D01*
X167358487Y-100717506D01*
X167350142Y-100716734D01*
X167262388Y-100718710D01*
X167183353Y-100742042D01*
X167105389Y-100788887D01*
X167092865Y-100797993D01*
X167066011Y-100816105D01*
X167052078Y-100823326D01*
X167051620Y-100823378D01*
X167037113Y-100832612D01*
X167013438Y-100852905D01*
X166965976Y-100894044D01*
X166910779Y-100930508D01*
X166857637Y-100949909D01*
X166799925Y-100955429D01*
X166769527Y-100953998D01*
X166728117Y-100947539D01*
X166703151Y-100937556D01*
X166677040Y-100922330D01*
X166635780Y-100910402D01*
X166591167Y-100905967D01*
X166550394Y-100909023D01*
X166520656Y-100919568D01*
X166509144Y-100937600D01*
X166508269Y-100941446D01*
X166493625Y-100949243D01*
X166481350Y-100952365D01*
X166457188Y-100967388D01*
X166431971Y-100983641D01*
X166396521Y-100999467D01*
X166382148Y-101004021D01*
X166331773Y-101013177D01*
X166288154Y-101011703D01*
X166260047Y-100999592D01*
X166252908Y-100991875D01*
X166245666Y-100975020D01*
X166260933Y-100966309D01*
X166300459Y-100964208D01*
X166325179Y-100964002D01*
X166357982Y-100960146D01*
X166390010Y-100949520D01*
X166428771Y-100929335D01*
X166481771Y-100896798D01*
X166519743Y-100875495D01*
X166581075Y-100856178D01*
X166643259Y-100858813D01*
X166713922Y-100882945D01*
X166757618Y-100901135D01*
X166799896Y-100912455D01*
X166837471Y-100911277D01*
X166876318Y-100896162D01*
X166922414Y-100865666D01*
X166981736Y-100818349D01*
X166997612Y-100805338D01*
X167080223Y-100742992D01*
X167152539Y-100699582D01*
X167219281Y-100673148D01*
X167285173Y-100661729D01*
X167354936Y-100663363D01*
G37*
G36*
X167476385Y-100929368D02*
G01*
X167469760Y-100935993D01*
X167463135Y-100929368D01*
X167469760Y-100922743D01*
X167476385Y-100929368D01*
G37*
G36*
X166734392Y-100863118D02*
G01*
X166727767Y-100869743D01*
X166721142Y-100863118D01*
X166727767Y-100856494D01*
X166734392Y-100863118D01*
G37*
G36*
X166753354Y-100687415D02*
G01*
X166836622Y-100680731D01*
X166876558Y-100678886D01*
X166907888Y-100680354D01*
X166919890Y-100685079D01*
X166914450Y-100689657D01*
X166889203Y-100695981D01*
X166850329Y-100700115D01*
X166843608Y-100700476D01*
X166799463Y-100702316D01*
X166737692Y-100704355D01*
X166665543Y-100706371D01*
X166590267Y-100708140D01*
X166534020Y-100709184D01*
X166475801Y-100709535D01*
X166437732Y-100708303D01*
X166416129Y-100705158D01*
X166407305Y-100699770D01*
X166407576Y-100691811D01*
X166408891Y-100685219D01*
X166406316Y-100654933D01*
X166396015Y-100616563D01*
X166393444Y-100608954D01*
X166390942Y-100596628D01*
X166470750Y-100596628D01*
X166482785Y-100624790D01*
X166492865Y-100630996D01*
X166524926Y-100639055D01*
X166568236Y-100644085D01*
X166613485Y-100645552D01*
X166651363Y-100642922D01*
X166672560Y-100635662D01*
X166675645Y-100632318D01*
X166681245Y-100612370D01*
X166661820Y-100596975D01*
X166618456Y-100587110D01*
X166601595Y-100584897D01*
X166555058Y-100577675D01*
X166519247Y-100570661D01*
X166507973Y-100568886D01*
X166480662Y-100575743D01*
X166470750Y-100596628D01*
X166390942Y-100596628D01*
X166378421Y-100534957D01*
X166378405Y-100459156D01*
X166392194Y-100388116D01*
X166418588Y-100328401D01*
X166456385Y-100286578D01*
X166476060Y-100275259D01*
X166531926Y-100261133D01*
X166591216Y-100265273D01*
X166642859Y-100287615D01*
X166657440Y-100299991D01*
X166689144Y-100335562D01*
X166717779Y-100377052D01*
X166729419Y-100397707D01*
X166742629Y-100427572D01*
X166750059Y-100459751D01*
X166753266Y-100502299D01*
X166753811Y-100563269D01*
X166753630Y-100612370D01*
X166753354Y-100687415D01*
G37*
G36*
X166226689Y-100650673D02*
G01*
X166259272Y-100663320D01*
X166301345Y-100677958D01*
X166345557Y-100684245D01*
X166349883Y-100684300D01*
X166378280Y-100688046D01*
X166389896Y-100695867D01*
X166388751Y-100698508D01*
X166371057Y-100702928D01*
X166337980Y-100701617D01*
X166297302Y-100695616D01*
X166256805Y-100685967D01*
X166224272Y-100673709D01*
X166218671Y-100670711D01*
X166199973Y-100656559D01*
X166200924Y-100647934D01*
X166202666Y-100647503D01*
X166226689Y-100650673D01*
G37*
G36*
X168377614Y-100570559D02*
G01*
X168373112Y-100593177D01*
X168369054Y-100626092D01*
X168370728Y-100642264D01*
X168379929Y-100644024D01*
X168409876Y-100642816D01*
X168452953Y-100638299D01*
X168501659Y-100631545D01*
X168548492Y-100623626D01*
X168585952Y-100615612D01*
X168606537Y-100608576D01*
X168614950Y-100603914D01*
X168641668Y-100592246D01*
X168672526Y-100580959D01*
X168698014Y-100573381D01*
X168708623Y-100572842D01*
X168700808Y-100581877D01*
X168672628Y-100597033D01*
X168629607Y-100614336D01*
X168577766Y-100631414D01*
X168523125Y-100645896D01*
X168452658Y-100658209D01*
X168370344Y-100666303D01*
X168281259Y-100670295D01*
X168190135Y-100670379D01*
X168101705Y-100666749D01*
X168020702Y-100659602D01*
X167951859Y-100649130D01*
X167899908Y-100635531D01*
X167869582Y-100618997D01*
X167870954Y-100615671D01*
X167890867Y-100617905D01*
X167926121Y-100626846D01*
X167953950Y-100634123D01*
X167987040Y-100639892D01*
X168003374Y-100638668D01*
X168004718Y-100631470D01*
X167999603Y-100605001D01*
X167986966Y-100567835D01*
X167974631Y-100532714D01*
X167973121Y-100524843D01*
X168059379Y-100524843D01*
X168068892Y-100545161D01*
X168101106Y-100563700D01*
X168134585Y-100572751D01*
X168184877Y-100577688D01*
X168228686Y-100572810D01*
X168259643Y-100559096D01*
X168271377Y-100537525D01*
X168270186Y-100527351D01*
X168257633Y-100515201D01*
X168225865Y-100511997D01*
X168184135Y-100508156D01*
X168144616Y-100498410D01*
X168137753Y-100496009D01*
X168098538Y-100490831D01*
X168070250Y-100501114D01*
X168059379Y-100524843D01*
X167973121Y-100524843D01*
X167957662Y-100444283D01*
X167961545Y-100361847D01*
X167985763Y-100289461D01*
X168029802Y-100231176D01*
X168068470Y-100202422D01*
X168117072Y-100188628D01*
X168174989Y-100196515D01*
X168225293Y-100216744D01*
X168288335Y-100263729D01*
X168337691Y-100327407D01*
X168370757Y-100402973D01*
X168384932Y-100485625D01*
X168380460Y-100537525D01*
X168377614Y-100570559D01*
G37*
G36*
X169490365Y-100531872D02*
G01*
X169483740Y-100538497D01*
X169477115Y-100531872D01*
X169483740Y-100525247D01*
X169490365Y-100531872D01*
G37*
G36*
X166518919Y-99886283D02*
G01*
X166624712Y-99909052D01*
X166721007Y-99944222D01*
X166741608Y-99954020D01*
X166801685Y-99986123D01*
X166849820Y-100017197D01*
X166881795Y-100044299D01*
X166893391Y-100064485D01*
X166893065Y-100066278D01*
X166882213Y-100065178D01*
X166860763Y-100048718D01*
X166827250Y-100020655D01*
X166786769Y-99994488D01*
X166733436Y-99966948D01*
X166661111Y-99934523D01*
X166640666Y-99927099D01*
X166584948Y-99912969D01*
X166517055Y-99900937D01*
X166446512Y-99892550D01*
X166382846Y-99889353D01*
X166296076Y-99897649D01*
X166208026Y-99923254D01*
X166129676Y-99963429D01*
X166066382Y-100015387D01*
X166023495Y-100076343D01*
X166016952Y-100089768D01*
X166002870Y-100116784D01*
X165995712Y-100127599D01*
X165993598Y-100120456D01*
X165992400Y-100096491D01*
X165992517Y-100093741D01*
X166004790Y-100060604D01*
X166033308Y-100020060D01*
X166072459Y-99978186D01*
X166116634Y-99941058D01*
X166160222Y-99914751D01*
X166212989Y-99895970D01*
X166306214Y-99879382D01*
X166410471Y-99876273D01*
X166518919Y-99886283D01*
G37*
G36*
X168355208Y-99729184D02*
G01*
X168372754Y-99731790D01*
X168483197Y-99755467D01*
X168584567Y-99789394D01*
X168671132Y-99831324D01*
X168737161Y-99879009D01*
X168746299Y-99887495D01*
X168766515Y-99907012D01*
X168771582Y-99914285D01*
X168759813Y-99908645D01*
X168729521Y-99889424D01*
X168679016Y-99855951D01*
X168644334Y-99835776D01*
X168593305Y-99810462D01*
X168539892Y-99787307D01*
X168531644Y-99784051D01*
X168496583Y-99771214D01*
X168464212Y-99762267D01*
X168428693Y-99756490D01*
X168384190Y-99753165D01*
X168324864Y-99751575D01*
X168244877Y-99750999D01*
X168206932Y-99750907D01*
X168137726Y-99751259D01*
X168086769Y-99752970D01*
X168048341Y-99756753D01*
X168016726Y-99763322D01*
X167986204Y-99773390D01*
X167951057Y-99787672D01*
X167883931Y-99822017D01*
X167805303Y-99880992D01*
X167746174Y-99949816D01*
X167728245Y-99972033D01*
X167712962Y-99982002D01*
X167710529Y-99976045D01*
X167720688Y-99955570D01*
X167741551Y-99925864D01*
X167769094Y-99892553D01*
X167799296Y-99861262D01*
X167820860Y-99842639D01*
X167903212Y-99791499D01*
X168002849Y-99753389D01*
X168114744Y-99729504D01*
X168233872Y-99721038D01*
X168355208Y-99729184D01*
G37*
G36*
X166650197Y-99193269D02*
G01*
X166654536Y-99218504D01*
X166651710Y-99242547D01*
X166641643Y-99253259D01*
X166636077Y-99254963D01*
X166628393Y-99271561D01*
X166623105Y-99285710D01*
X166598312Y-99311847D01*
X166558544Y-99340396D01*
X166509715Y-99367305D01*
X166457743Y-99388518D01*
X166415881Y-99399870D01*
X166352607Y-99412135D01*
X166291361Y-99419678D01*
X166197272Y-99428334D01*
X166082376Y-99443408D01*
X165982738Y-99461876D01*
X165902098Y-99483016D01*
X165844191Y-99506106D01*
X165796653Y-99529671D01*
X165763344Y-99541707D01*
X165745776Y-99540312D01*
X165740652Y-99526125D01*
X165746150Y-99516397D01*
X165767487Y-99494253D01*
X165798423Y-99467012D01*
X165831971Y-99440430D01*
X165861141Y-99420260D01*
X165878944Y-99412258D01*
X165893945Y-99407686D01*
X165921975Y-99396688D01*
X165954808Y-99385522D01*
X165992400Y-99377476D01*
X165997744Y-99376809D01*
X166035570Y-99370148D01*
X166078524Y-99360502D01*
X166097838Y-99355730D01*
X166158378Y-99341366D01*
X166227886Y-99325443D01*
X166294795Y-99310589D01*
X166347537Y-99299428D01*
X166361637Y-99295522D01*
X166401858Y-99280410D01*
X166453677Y-99257861D01*
X166509403Y-99231120D01*
X166543096Y-99214772D01*
X166589653Y-99194435D01*
X166624259Y-99182144D01*
X166641198Y-99180110D01*
X166650197Y-99193269D01*
G37*
G36*
X167565461Y-99171415D02*
G01*
X167608449Y-99188360D01*
X167634045Y-99201094D01*
X167681854Y-99220258D01*
X167728074Y-99234458D01*
X167761771Y-99240009D01*
X167781710Y-99243560D01*
X167797694Y-99256572D01*
X167803371Y-99260843D01*
X167822393Y-99265084D01*
X167856823Y-99268444D01*
X167908879Y-99271027D01*
X167980779Y-99272937D01*
X168074740Y-99274278D01*
X168192981Y-99275156D01*
X168283742Y-99275681D01*
X168377746Y-99276504D01*
X168451061Y-99277703D01*
X168506935Y-99279495D01*
X168548617Y-99282098D01*
X168579357Y-99285729D01*
X168602405Y-99290606D01*
X168621010Y-99296946D01*
X168638421Y-99304968D01*
X168655554Y-99313205D01*
X168688625Y-99327218D01*
X168708080Y-99332759D01*
X168717915Y-99334900D01*
X168746054Y-99346726D01*
X168781639Y-99365052D01*
X168816800Y-99385461D01*
X168843667Y-99403536D01*
X168854371Y-99414861D01*
X168854157Y-99417376D01*
X168847565Y-99423868D01*
X168828604Y-99423540D01*
X168793017Y-99415869D01*
X168736551Y-99400330D01*
X168649769Y-99381327D01*
X168532614Y-99368326D01*
X168404076Y-99365288D01*
X168271377Y-99372641D01*
X168186602Y-99380468D01*
X168054251Y-99390824D01*
X167943466Y-99396171D01*
X167851313Y-99396043D01*
X167774853Y-99389973D01*
X167711150Y-99377495D01*
X167657267Y-99358143D01*
X167610267Y-99331451D01*
X167567213Y-99296953D01*
X167525169Y-99254182D01*
X167515033Y-99242794D01*
X167491783Y-99213088D01*
X167484632Y-99193723D01*
X167490917Y-99178840D01*
X167495522Y-99174614D01*
X167524821Y-99166590D01*
X167565461Y-99171415D01*
G37*
G36*
X167489635Y-99259884D02*
G01*
X167483010Y-99266509D01*
X167476385Y-99259884D01*
X167483010Y-99253259D01*
X167489635Y-99259884D01*
G37*
G36*
X169132619Y-99153885D02*
G01*
X169125994Y-99160510D01*
X169119369Y-99153885D01*
X169125994Y-99147260D01*
X169132619Y-99153885D01*
G37*
G36*
X168979195Y-99015802D02*
G01*
X168980245Y-99028012D01*
X168977526Y-99031977D01*
X168966213Y-99041261D01*
X168964891Y-99040917D01*
X168960370Y-99028012D01*
X168960910Y-99024380D01*
X168974402Y-99014762D01*
X168979195Y-99015802D01*
G37*
G36*
X165873151Y-98928637D02*
G01*
X165866526Y-98935262D01*
X165859901Y-98928637D01*
X165866526Y-98922013D01*
X165873151Y-98928637D01*
G37*
G36*
X168549624Y-98729889D02*
G01*
X168542999Y-98736514D01*
X168536374Y-98729889D01*
X168542999Y-98723265D01*
X168549624Y-98729889D01*
G37*
G36*
X168364126Y-98623890D02*
G01*
X168357501Y-98630515D01*
X168350876Y-98623890D01*
X168357501Y-98617266D01*
X168364126Y-98623890D01*
G37*
G36*
X166310396Y-98597391D02*
G01*
X166303771Y-98604016D01*
X166297147Y-98597391D01*
X166303771Y-98590766D01*
X166310396Y-98597391D01*
G37*
G36*
X167414886Y-98055260D02*
G01*
X167426016Y-98061209D01*
X167436635Y-98075438D01*
X167436214Y-98081233D01*
X167428558Y-98085469D01*
X167409884Y-98067093D01*
X167406682Y-98063168D01*
X167400582Y-98051863D01*
X167414886Y-98055260D01*
G37*
G36*
X166959640Y-98080646D02*
G01*
X166953015Y-98087271D01*
X166946390Y-98080646D01*
X166953015Y-98074021D01*
X166959640Y-98080646D01*
G37*
G36*
X167171638Y-97867866D02*
G01*
X167170016Y-97877738D01*
X167158388Y-97888523D01*
X167155244Y-97888166D01*
X167145138Y-97876055D01*
X167145644Y-97872337D01*
X167158388Y-97855398D01*
X167165214Y-97854152D01*
X167171638Y-97867866D01*
G37*
G36*
X164468665Y-101697860D02*
G01*
X164462040Y-101704485D01*
X164455415Y-101697860D01*
X164462040Y-101691235D01*
X164468665Y-101697860D01*
G37*
G36*
X164508414Y-101684610D02*
G01*
X164501789Y-101691235D01*
X164495164Y-101684610D01*
X164501789Y-101677985D01*
X164508414Y-101684610D01*
G37*
%TD*%
M02*
