M48
; DRILL file {KiCad 9.0.6} date 2025-11-06T17:37:35+1100
; FORMAT={-:-/ absolute / inch / decimal}
; #@! TF.CreationDate,2025-11-06T17:37:35+11:00
; #@! TF.GenerationSoftware,Kicad,Pcbnew,9.0.6
; #@! TF.FileFunction,Plated,1,2,PTH
FMAT,2
INCH
; #@! TA.AperFunction,Plated,PTH,ViaDrill
T1C0.0118
; #@! TA.AperFunction,Plated,PTH,ComponentDrill
T2C0.0315
%
G90
G05
T1
X4.9473Y-3.7784
X5.2032Y-3.739
X5.2327Y-3.8965
X5.2524Y-4.1721
X5.2819Y-3.8571
X5.4Y-3.8571
X5.5083Y-3.6898
X5.5378Y-3.8276
X5.5575Y-4.1359
X5.587Y-3.9949
X5.7544Y-4.2016
X5.8007Y-3.9486
X5.8725Y-3.6967
X5.8725Y-3.8669
X5.902Y-3.7882
X6.1185Y-3.6967
X6.1481Y-4.1622
X6.1677Y-3.8276
X6.2465Y-3.9851
X6.3449Y-3.9851
X6.3646Y-3.8768
X6.5189Y-4.0407
T2
X5.2517Y-3.7661
X5.2517Y-4.0661
X5.3517Y-3.7661
X5.3517Y-4.0661
X5.4517Y-3.7661
X5.4517Y-4.0661
X5.5517Y-3.7661
X5.5517Y-4.0661
X5.6517Y-3.7661
X5.6517Y-4.0661
X5.7517Y-3.7661
X5.7517Y-4.0661
X5.8517Y-3.7661
X5.8517Y-4.0661
X5.9517Y-3.7661
X5.9517Y-4.0661
X6.0717Y-3.7661
X6.0717Y-4.0661
X6.1717Y-3.7661
X6.1717Y-4.0661
X6.2717Y-3.7661
X6.2717Y-4.0661
X6.3717Y-3.7661
X6.3717Y-4.0661
M30
