%TF.GenerationSoftware,KiCad,Pcbnew,7.0.11+dfsg-1build4*%
%TF.CreationDate,2025-10-24T22:04:28+11:00*%
%TF.ProjectId,usb-ic,7573622d-6963-42e6-9b69-6361645f7063,rev?*%
%TF.SameCoordinates,Original*%
%TF.FileFunction,Soldermask,Top*%
%TF.FilePolarity,Negative*%
%FSLAX46Y46*%
G04 Gerber Fmt 4.6, Leading zero omitted, Abs format (unit mm)*
G04 Created by KiCad (PCBNEW 7.0.11+dfsg-1build4) date 2025-10-24 22:04:28*
%MOMM*%
%LPD*%
G01*
G04 APERTURE LIST*
G04 Aperture macros list*
%AMRoundRect*
0 Rectangle with rounded corners*
0 $1 Rounding radius*
0 $2 $3 $4 $5 $6 $7 $8 $9 X,Y pos of 4 corners*
0 Add a 4 corners polygon primitive as box body*
4,1,4,$2,$3,$4,$5,$6,$7,$8,$9,$2,$3,0*
0 Add four circle primitives for the rounded corners*
1,1,$1+$1,$2,$3*
1,1,$1+$1,$4,$5*
1,1,$1+$1,$6,$7*
1,1,$1+$1,$8,$9*
0 Add four rect primitives between the rounded corners*
20,1,$1+$1,$2,$3,$4,$5,0*
20,1,$1+$1,$4,$5,$6,$7,0*
20,1,$1+$1,$6,$7,$8,$9,0*
20,1,$1+$1,$8,$9,$2,$3,0*%
G04 Aperture macros list end*
%ADD10RoundRect,0.250000X-0.475000X0.337500X-0.475000X-0.337500X0.475000X-0.337500X0.475000X0.337500X0*%
%ADD11RoundRect,0.250001X-0.462499X-1.074999X0.462499X-1.074999X0.462499X1.074999X-0.462499X1.074999X0*%
%ADD12RoundRect,0.200000X-0.800000X0.200000X-0.800000X-0.200000X0.800000X-0.200000X0.800000X0.200000X0*%
%ADD13RoundRect,0.250000X-0.450000X0.350000X-0.450000X-0.350000X0.450000X-0.350000X0.450000X0.350000X0*%
%ADD14RoundRect,0.250001X-1.074999X0.462499X-1.074999X-0.462499X1.074999X-0.462499X1.074999X0.462499X0*%
%ADD15R,1.600000X1.600000*%
%ADD16O,1.600000X1.600000*%
%ADD17RoundRect,0.250000X0.450000X-0.350000X0.450000X0.350000X-0.450000X0.350000X-0.450000X-0.350000X0*%
%ADD18RoundRect,0.500000X-3.000000X-0.500000X3.000000X-0.500000X3.000000X0.500000X-3.000000X0.500000X0*%
%ADD19RoundRect,0.375000X-2.625000X-0.375000X2.625000X-0.375000X2.625000X0.375000X-2.625000X0.375000X0*%
G04 APERTURE END LIST*
D10*
%TO.C,C1*%
X188712000Y-104605000D03*
X188712000Y-106680000D03*
%TD*%
D11*
%TO.C,D9*%
X185239000Y-98806000D03*
X188214000Y-98806000D03*
%TD*%
D12*
%TO.C,SW1*%
X173228000Y-103564000D03*
X173228000Y-107764000D03*
%TD*%
D11*
%TO.C,D4*%
X149098000Y-112522000D03*
X152073000Y-112522000D03*
%TD*%
%TO.C,D8*%
X172466000Y-98806000D03*
X175441000Y-98806000D03*
%TD*%
%TO.C,D1*%
X185239000Y-112522000D03*
X188214000Y-112522000D03*
%TD*%
D13*
%TO.C,R11*%
X190246000Y-97822000D03*
X190246000Y-99822000D03*
%TD*%
D11*
%TO.C,D3*%
X160020000Y-112522000D03*
X162995000Y-112522000D03*
%TD*%
%TO.C,D2*%
X172539000Y-112522000D03*
X175514000Y-112522000D03*
%TD*%
D14*
%TO.C,D5*%
X147066000Y-103959000D03*
X147066000Y-106934000D03*
%TD*%
D15*
%TO.C,U1*%
X176530000Y-109464000D03*
D16*
X179070000Y-109464000D03*
X181610000Y-109464000D03*
X184150000Y-109464000D03*
X184150000Y-101844000D03*
X181610000Y-101844000D03*
X179070000Y-101844000D03*
X176530000Y-101844000D03*
%TD*%
D13*
%TO.C,R1*%
X186680000Y-102648000D03*
X186680000Y-104648000D03*
%TD*%
D15*
%TO.C,U2*%
X152146000Y-109474000D03*
D16*
X154686000Y-109474000D03*
X157226000Y-109474000D03*
X159766000Y-109474000D03*
X162306000Y-109474000D03*
X164846000Y-109474000D03*
X167386000Y-109474000D03*
X169926000Y-109474000D03*
X169926000Y-101854000D03*
X167386000Y-101854000D03*
X164846000Y-101854000D03*
X162306000Y-101854000D03*
X159766000Y-101854000D03*
X157226000Y-101854000D03*
X154686000Y-101854000D03*
X152146000Y-101854000D03*
%TD*%
D13*
%TO.C,R2*%
X186680000Y-106712000D03*
X186680000Y-108712000D03*
%TD*%
D17*
%TO.C,R4*%
X177546000Y-113538000D03*
X177546000Y-111538000D03*
%TD*%
%TO.C,R3*%
X190246000Y-113538000D03*
X190246000Y-111538000D03*
%TD*%
D13*
%TO.C,R9*%
X165100000Y-97790000D03*
X165100000Y-99790000D03*
%TD*%
D17*
%TO.C,R7*%
X149606000Y-104394000D03*
X149606000Y-106394000D03*
%TD*%
D13*
%TO.C,R8*%
X154178000Y-97822000D03*
X154178000Y-99822000D03*
%TD*%
D11*
%TO.C,D6*%
X149171000Y-98806000D03*
X152146000Y-98806000D03*
%TD*%
%TO.C,D7*%
X160093000Y-98806000D03*
X163068000Y-98806000D03*
%TD*%
D17*
%TO.C,R6*%
X154178000Y-113538000D03*
X154178000Y-111538000D03*
%TD*%
D18*
%TO.C,U3*%
X136398000Y-101930000D03*
D19*
X136398000Y-104680000D03*
X136398000Y-106680000D03*
D18*
X136398000Y-109430000D03*
%TD*%
D17*
%TO.C,R5*%
X165100000Y-113538000D03*
X165100000Y-111538000D03*
%TD*%
D13*
%TO.C,R10*%
X177546000Y-97806000D03*
X177546000Y-99806000D03*
%TD*%
M02*
