M48
; DRILL file {KiCad 7.0.11+dfsg-1build4} date Fri 24 Oct 2025 22:04:30
; FORMAT={-:-/ absolute / inch / decimal}
; #@! TF.CreationDate,2025-10-24T22:04:30+11:00
; #@! TF.GenerationSoftware,Kicad,Pcbnew,7.0.11+dfsg-1build4
; #@! TF.FileFunction,Plated,1,2,PTH
FMAT,2
INCH
; #@! TA.AperFunction,Plated,PTH,ViaDrill
T1C0.0118
; #@! TA.AperFunction,Plated,PTH,ComponentDrill
T2C0.0315
%
G90
G05
T1
X5.79Y-4.0929
X5.8729Y-3.89
X5.93Y-4.43
X6.07Y-3.93
X6.2Y-4.2164
X6.27Y-4.14
X6.3Y-4.43
X6.3029Y-3.89
X6.5Y-3.93
X6.5Y-4.39
X6.53Y-4.11
X6.79Y-3.89
X6.7929Y-4.43
X6.82Y-4.0773
X6.82Y-4.2427
X6.92Y-4.14
X6.99Y-3.93
X7.1Y-4.09
X7.19Y-4.08
X7.2929Y-3.89
X7.2929Y-4.43
X7.4296Y-4.2
T2
X5.99Y-4.01
X5.99Y-4.31
X6.09Y-4.01
X6.09Y-4.31
X6.19Y-4.01
X6.19Y-4.31
X6.29Y-4.01
X6.29Y-4.31
X6.39Y-4.01
X6.39Y-4.31
X6.49Y-4.01
X6.49Y-4.31
X6.59Y-4.01
X6.59Y-4.31
X6.69Y-4.01
X6.69Y-4.31
X6.95Y-4.0096
X6.95Y-4.3096
X7.05Y-4.0096
X7.05Y-4.3096
X7.15Y-4.0096
X7.15Y-4.3096
X7.25Y-4.0096
X7.25Y-4.3096
M30
