%TF.GenerationSoftware,KiCad,Pcbnew,7.0.11+dfsg-1build4*%
%TF.CreationDate,2025-10-24T22:04:28+11:00*%
%TF.ProjectId,usb-ic,7573622d-6963-42e6-9b69-6361645f7063,rev?*%
%TF.SameCoordinates,Original*%
%TF.FileFunction,Copper,L1,Top*%
%TF.FilePolarity,Positive*%
%FSLAX46Y46*%
G04 Gerber Fmt 4.6, Leading zero omitted, Abs format (unit mm)*
G04 Created by KiCad (PCBNEW 7.0.11+dfsg-1build4) date 2025-10-24 22:04:28*
%MOMM*%
%LPD*%
G01*
G04 APERTURE LIST*
G04 Aperture macros list*
%AMRoundRect*
0 Rectangle with rounded corners*
0 $1 Rounding radius*
0 $2 $3 $4 $5 $6 $7 $8 $9 X,Y pos of 4 corners*
0 Add a 4 corners polygon primitive as box body*
4,1,4,$2,$3,$4,$5,$6,$7,$8,$9,$2,$3,0*
0 Add four circle primitives for the rounded corners*
1,1,$1+$1,$2,$3*
1,1,$1+$1,$4,$5*
1,1,$1+$1,$6,$7*
1,1,$1+$1,$8,$9*
0 Add four rect primitives between the rounded corners*
20,1,$1+$1,$2,$3,$4,$5,0*
20,1,$1+$1,$4,$5,$6,$7,0*
20,1,$1+$1,$6,$7,$8,$9,0*
20,1,$1+$1,$8,$9,$2,$3,0*%
G04 Aperture macros list end*
%TA.AperFunction,SMDPad,CuDef*%
%ADD10RoundRect,0.250000X-0.475000X0.337500X-0.475000X-0.337500X0.475000X-0.337500X0.475000X0.337500X0*%
%TD*%
%TA.AperFunction,SMDPad,CuDef*%
%ADD11RoundRect,0.250001X-0.462499X-1.074999X0.462499X-1.074999X0.462499X1.074999X-0.462499X1.074999X0*%
%TD*%
%TA.AperFunction,SMDPad,CuDef*%
%ADD12RoundRect,0.200000X-0.800000X0.200000X-0.800000X-0.200000X0.800000X-0.200000X0.800000X0.200000X0*%
%TD*%
%TA.AperFunction,SMDPad,CuDef*%
%ADD13RoundRect,0.250000X-0.450000X0.350000X-0.450000X-0.350000X0.450000X-0.350000X0.450000X0.350000X0*%
%TD*%
%TA.AperFunction,SMDPad,CuDef*%
%ADD14RoundRect,0.250001X-1.074999X0.462499X-1.074999X-0.462499X1.074999X-0.462499X1.074999X0.462499X0*%
%TD*%
%TA.AperFunction,ComponentPad*%
%ADD15R,1.600000X1.600000*%
%TD*%
%TA.AperFunction,ComponentPad*%
%ADD16O,1.600000X1.600000*%
%TD*%
%TA.AperFunction,SMDPad,CuDef*%
%ADD17RoundRect,0.250000X0.450000X-0.350000X0.450000X0.350000X-0.450000X0.350000X-0.450000X-0.350000X0*%
%TD*%
%TA.AperFunction,SMDPad,CuDef*%
%ADD18RoundRect,0.500000X-3.000000X-0.500000X3.000000X-0.500000X3.000000X0.500000X-3.000000X0.500000X0*%
%TD*%
%TA.AperFunction,SMDPad,CuDef*%
%ADD19RoundRect,0.375000X-2.625000X-0.375000X2.625000X-0.375000X2.625000X0.375000X-2.625000X0.375000X0*%
%TD*%
%TA.AperFunction,ViaPad*%
%ADD20C,0.600000*%
%TD*%
%TA.AperFunction,Conductor*%
%ADD21C,0.200000*%
%TD*%
G04 APERTURE END LIST*
D10*
%TO.P,C1,1*%
%TO.N,Net-(U1-THR)*%
X188712000Y-104605000D03*
%TO.P,C1,2*%
%TO.N,Net-(D1-K)*%
X188712000Y-106680000D03*
%TD*%
D11*
%TO.P,D9,1,K*%
%TO.N,Net-(D1-K)*%
X185239000Y-98806000D03*
%TO.P,D9,2,A*%
%TO.N,Net-(D9-A)*%
X188214000Y-98806000D03*
%TD*%
D12*
%TO.P,SW1,1,1*%
%TO.N,Net-(D1-K)*%
X173228000Y-103564000D03*
%TO.P,SW1,2,2*%
%TO.N,Net-(U1-Q)*%
X173228000Y-107764000D03*
%TD*%
D11*
%TO.P,D4,1,K*%
%TO.N,Net-(D1-K)*%
X149098000Y-112522000D03*
%TO.P,D4,2,A*%
%TO.N,Net-(D4-A)*%
X152073000Y-112522000D03*
%TD*%
%TO.P,D8,1,K*%
%TO.N,Net-(D1-K)*%
X172466000Y-98806000D03*
%TO.P,D8,2,A*%
%TO.N,Net-(D8-A)*%
X175441000Y-98806000D03*
%TD*%
%TO.P,D1,1,K*%
%TO.N,Net-(D1-K)*%
X185239000Y-112522000D03*
%TO.P,D1,2,A*%
%TO.N,Net-(D1-A)*%
X188214000Y-112522000D03*
%TD*%
D13*
%TO.P,R11,1*%
%TO.N,Net-(D9-A)*%
X190246000Y-97822000D03*
%TO.P,R11,2*%
%TO.N,Net-(U2-Q8)*%
X190246000Y-99822000D03*
%TD*%
D11*
%TO.P,D3,1,K*%
%TO.N,Net-(D1-K)*%
X160020000Y-112522000D03*
%TO.P,D3,2,A*%
%TO.N,Net-(D3-A)*%
X162995000Y-112522000D03*
%TD*%
%TO.P,D2,1,K*%
%TO.N,Net-(D1-K)*%
X172539000Y-112522000D03*
%TO.P,D2,2,A*%
%TO.N,Net-(D2-A)*%
X175514000Y-112522000D03*
%TD*%
D14*
%TO.P,D5,1,K*%
%TO.N,Net-(D1-K)*%
X147066000Y-103959000D03*
%TO.P,D5,2,A*%
%TO.N,Net-(D5-A)*%
X147066000Y-106934000D03*
%TD*%
D15*
%TO.P,U1,1,GND*%
%TO.N,Net-(D1-K)*%
X176530000Y-109464000D03*
D16*
%TO.P,U1,2,TR*%
%TO.N,Net-(U1-THR)*%
X179070000Y-109464000D03*
%TO.P,U1,3,Q*%
%TO.N,Net-(U1-Q)*%
X181610000Y-109464000D03*
%TO.P,U1,4,R*%
%TO.N,Net-(U1-R)*%
X184150000Y-109464000D03*
%TO.P,U1,5,CV*%
%TO.N,unconnected-(U1-CV-Pad5)*%
X184150000Y-101844000D03*
%TO.P,U1,6,THR*%
%TO.N,Net-(U1-THR)*%
X181610000Y-101844000D03*
%TO.P,U1,7,DIS*%
%TO.N,Net-(U1-DIS)*%
X179070000Y-101844000D03*
%TO.P,U1,8,VCC*%
%TO.N,Net-(U1-R)*%
X176530000Y-101844000D03*
%TD*%
D13*
%TO.P,R1,1*%
%TO.N,Net-(U1-R)*%
X186680000Y-102648000D03*
%TO.P,R1,2*%
%TO.N,Net-(U1-DIS)*%
X186680000Y-104648000D03*
%TD*%
D15*
%TO.P,U2,1,Q5*%
%TO.N,Net-(U2-Q5)*%
X152146000Y-109474000D03*
D16*
%TO.P,U2,2,Q1*%
%TO.N,Net-(U2-Q1)*%
X154686000Y-109474000D03*
%TO.P,U2,3,Q0*%
%TO.N,Net-(U2-Q0)*%
X157226000Y-109474000D03*
%TO.P,U2,4,Q2*%
%TO.N,Net-(U2-Q2)*%
X159766000Y-109474000D03*
%TO.P,U2,5,Q6*%
%TO.N,Net-(U2-Q6)*%
X162306000Y-109474000D03*
%TO.P,U2,6,Q7*%
%TO.N,Net-(U2-Q7)*%
X164846000Y-109474000D03*
%TO.P,U2,7,Q3*%
%TO.N,Net-(U2-Q3)*%
X167386000Y-109474000D03*
%TO.P,U2,8,VSS*%
%TO.N,Net-(D1-K)*%
X169926000Y-109474000D03*
%TO.P,U2,9,Q8*%
%TO.N,Net-(U2-Q8)*%
X169926000Y-101854000D03*
%TO.P,U2,10,Q4*%
%TO.N,Net-(U2-Q4)*%
X167386000Y-101854000D03*
%TO.P,U2,11,Q9*%
%TO.N,Net-(U2-Q9)*%
X164846000Y-101854000D03*
%TO.P,U2,12,Cout*%
%TO.N,unconnected-(U2-Cout-Pad12)*%
X162306000Y-101854000D03*
%TO.P,U2,13,CKEN*%
%TO.N,Net-(D1-K)*%
X159766000Y-101854000D03*
%TO.P,U2,14,CLK*%
%TO.N,Net-(U1-Q)*%
X157226000Y-101854000D03*
%TO.P,U2,15,Reset*%
%TO.N,Net-(U2-Q9)*%
X154686000Y-101854000D03*
%TO.P,U2,16,VDD*%
%TO.N,Net-(U1-R)*%
X152146000Y-101854000D03*
%TD*%
D13*
%TO.P,R2,1*%
%TO.N,Net-(U1-DIS)*%
X186680000Y-106712000D03*
%TO.P,R2,2*%
%TO.N,Net-(U1-THR)*%
X186680000Y-108712000D03*
%TD*%
D17*
%TO.P,R4,1*%
%TO.N,Net-(D2-A)*%
X177546000Y-113538000D03*
%TO.P,R4,2*%
%TO.N,Net-(U2-Q1)*%
X177546000Y-111538000D03*
%TD*%
%TO.P,R3,1*%
%TO.N,Net-(D1-A)*%
X190246000Y-113538000D03*
%TO.P,R3,2*%
%TO.N,Net-(U2-Q0)*%
X190246000Y-111538000D03*
%TD*%
D13*
%TO.P,R9,1*%
%TO.N,Net-(D7-A)*%
X165100000Y-97790000D03*
%TO.P,R9,2*%
%TO.N,Net-(U2-Q6)*%
X165100000Y-99790000D03*
%TD*%
D17*
%TO.P,R7,2*%
%TO.N,Net-(U2-Q4)*%
X149606000Y-104394000D03*
%TO.P,R7,1*%
%TO.N,Net-(D5-A)*%
X149606000Y-106394000D03*
%TD*%
D13*
%TO.P,R8,1*%
%TO.N,Net-(D6-A)*%
X154178000Y-97822000D03*
%TO.P,R8,2*%
%TO.N,Net-(U2-Q5)*%
X154178000Y-99822000D03*
%TD*%
D11*
%TO.P,D6,1,K*%
%TO.N,Net-(D1-K)*%
X149171000Y-98806000D03*
%TO.P,D6,2,A*%
%TO.N,Net-(D6-A)*%
X152146000Y-98806000D03*
%TD*%
%TO.P,D7,1,K*%
%TO.N,Net-(D1-K)*%
X160093000Y-98806000D03*
%TO.P,D7,2,A*%
%TO.N,Net-(D7-A)*%
X163068000Y-98806000D03*
%TD*%
D17*
%TO.P,R6,1*%
%TO.N,Net-(D4-A)*%
X154178000Y-113538000D03*
%TO.P,R6,2*%
%TO.N,Net-(U2-Q3)*%
X154178000Y-111538000D03*
%TD*%
D18*
%TO.P,U3,1,VCC*%
%TO.N,Net-(U1-R)*%
X136398000Y-101930000D03*
D19*
%TO.P,U3,2,D+*%
%TO.N,unconnected-(U3-D+-Pad2)*%
X136398000Y-104680000D03*
%TO.P,U3,3,D-*%
%TO.N,unconnected-(U3-D--Pad3)*%
X136398000Y-106680000D03*
D18*
%TO.P,U3,4,GND*%
%TO.N,Net-(D1-K)*%
X136398000Y-109430000D03*
%TD*%
D17*
%TO.P,R5,1*%
%TO.N,Net-(D3-A)*%
X165100000Y-113538000D03*
%TO.P,R5,2*%
%TO.N,Net-(U2-Q2)*%
X165100000Y-111538000D03*
%TD*%
D13*
%TO.P,R10,1*%
%TO.N,Net-(D8-A)*%
X177546000Y-97806000D03*
%TO.P,R10,2*%
%TO.N,Net-(U2-Q7)*%
X177546000Y-99806000D03*
%TD*%
D20*
%TO.N,Net-(D1-K)*%
X172539000Y-112522000D03*
X160093000Y-98806000D03*
X173228000Y-103564000D03*
X147066000Y-103959000D03*
X172466000Y-98806000D03*
X188712000Y-106680000D03*
X185239000Y-112522000D03*
X160020000Y-112522000D03*
X185239000Y-98806000D03*
X149171000Y-98806000D03*
X150622000Y-112522000D03*
%TO.N,Net-(U1-THR)*%
X182626000Y-103632000D03*
%TO.N,Net-(U1-Q)*%
X159258000Y-105156000D03*
X173228000Y-107764000D03*
X175768000Y-105156000D03*
%TO.N,Net-(U1-DIS)*%
X180340000Y-103886000D03*
%TO.N,Net-(U2-Q0)*%
X157480000Y-107096000D03*
%TO.N,Net-(U2-Q2)*%
X165100000Y-111506000D03*
%TO.N,Net-(U2-Q4)*%
X165862000Y-104394000D03*
%TO.N,Net-(U2-Q5)*%
X154178000Y-99822000D03*
%TO.N,Net-(U2-Q6)*%
X165100000Y-99822000D03*
%TO.N,Net-(U2-Q7)*%
X177546000Y-99822000D03*
%TD*%
D21*
%TO.N,Net-(U1-THR)*%
X188712000Y-104605000D02*
X189484000Y-104605000D01*
X188296500Y-105792500D02*
X188002256Y-105792500D01*
X189484000Y-104605000D02*
X188296500Y-105792500D01*
X188002256Y-105792500D02*
X187687000Y-106107756D01*
X187687000Y-106107756D02*
X187687000Y-107705000D01*
X187687000Y-107705000D02*
X186680000Y-108712000D01*
%TO.N,Net-(D1-K)*%
X149098000Y-112522000D02*
X150622000Y-112522000D01*
X146006000Y-109430000D02*
X149098000Y-112522000D01*
X136398000Y-109430000D02*
X146006000Y-109430000D01*
%TO.N,Net-(U1-THR)*%
X187739000Y-103632000D02*
X182626000Y-103632000D01*
X188712000Y-104605000D02*
X187739000Y-103632000D01*
X180170000Y-108364000D02*
X179070000Y-109464000D01*
X186332000Y-108364000D02*
X180170000Y-108364000D01*
X186680000Y-108712000D02*
X186332000Y-108364000D01*
%TO.N,Net-(U1-Q)*%
X175768000Y-105156000D02*
X159258000Y-105156000D01*
%TO.N,Net-(D1-A)*%
X190246000Y-113538000D02*
X189230000Y-113538000D01*
X189230000Y-113538000D02*
X188214000Y-112522000D01*
%TO.N,Net-(D2-A)*%
X176530000Y-113538000D02*
X175514000Y-112522000D01*
X177546000Y-113538000D02*
X176530000Y-113538000D01*
%TO.N,Net-(D3-A)*%
X164011000Y-113538000D02*
X162995000Y-112522000D01*
X165100000Y-113538000D02*
X164011000Y-113538000D01*
%TO.N,Net-(D4-A)*%
X153089000Y-113538000D02*
X152073000Y-112522000D01*
X154178000Y-113538000D02*
X153089000Y-113538000D01*
%TO.N,Net-(D5-A)*%
X147574000Y-106426000D02*
X147066000Y-106934000D01*
X149606000Y-106426000D02*
X147574000Y-106426000D01*
%TO.N,Net-(D6-A)*%
X154178000Y-97822000D02*
X153130000Y-97822000D01*
X153130000Y-97822000D02*
X152146000Y-98806000D01*
%TO.N,Net-(D7-A)*%
X164084000Y-97790000D02*
X163068000Y-98806000D01*
X165100000Y-97790000D02*
X164084000Y-97790000D01*
%TO.N,Net-(D8-A)*%
X177546000Y-97806000D02*
X176441000Y-97806000D01*
X176441000Y-97806000D02*
X175441000Y-98806000D01*
%TO.N,Net-(D9-A)*%
X190246000Y-97822000D02*
X189198000Y-97822000D01*
X189198000Y-97822000D02*
X188214000Y-98806000D01*
%TO.N,Net-(U1-R)*%
X171701352Y-103378000D02*
X173235352Y-101844000D01*
X136398000Y-101930000D02*
X152070000Y-101930000D01*
X152070000Y-101930000D02*
X152146000Y-101854000D01*
X153670000Y-103378000D02*
X171701352Y-103378000D01*
X152146000Y-101854000D02*
X153670000Y-103378000D01*
X186680000Y-102648000D02*
X186384000Y-102944000D01*
X173235352Y-101844000D02*
X176530000Y-101844000D01*
X177630000Y-102944000D02*
X176530000Y-101844000D01*
X186384000Y-102944000D02*
X177630000Y-102944000D01*
%TO.N,Net-(U1-DIS)*%
X181102000Y-104648000D02*
X180340000Y-103886000D01*
X186680000Y-104648000D02*
X181102000Y-104648000D01*
X186680000Y-104648000D02*
X186680000Y-106712000D01*
%TO.N,Net-(U2-Q0)*%
X189605000Y-110897000D02*
X178489744Y-110897000D01*
X157642000Y-106934000D02*
X157480000Y-107096000D01*
X177800000Y-108534000D02*
X176200000Y-106934000D01*
X177800000Y-110207256D02*
X177800000Y-108534000D01*
X190246000Y-111538000D02*
X189605000Y-110897000D01*
X178489744Y-110897000D02*
X177800000Y-110207256D01*
X176200000Y-106934000D02*
X157642000Y-106934000D01*
%TO.N,Net-(U2-Q1)*%
X177546000Y-111538000D02*
X176905000Y-110897000D01*
X170434000Y-107696000D02*
X156464000Y-107696000D01*
X173635000Y-110897000D02*
X170434000Y-107696000D01*
X156464000Y-107696000D02*
X154686000Y-109474000D01*
X176905000Y-110897000D02*
X173635000Y-110897000D01*
%TO.N,Net-(U2-Q2)*%
X165100000Y-111538000D02*
X165100000Y-111506000D01*
%TO.N,Net-(U2-Q3)*%
X154178000Y-111538000D02*
X155142000Y-110574000D01*
X155142000Y-110574000D02*
X166286000Y-110574000D01*
X166286000Y-110574000D02*
X167386000Y-109474000D01*
%TO.N,Net-(U2-Q4)*%
X165830000Y-104426000D02*
X165862000Y-104394000D01*
X149606000Y-104426000D02*
X165830000Y-104426000D01*
%TO.N,Net-(U2-Q6)*%
X165100000Y-99790000D02*
X165100000Y-99822000D01*
%TO.N,Net-(U2-Q7)*%
X177546000Y-99806000D02*
X177546000Y-99822000D01*
%TO.N,Net-(U2-Q8)*%
X171074000Y-100706000D02*
X169926000Y-101854000D01*
X190246000Y-99822000D02*
X189362000Y-100706000D01*
X189362000Y-100706000D02*
X171074000Y-100706000D01*
%TD*%
M02*
